<svg width="165" height="165" viewBox="0 0 165 165" fill="none" xmlns="http://www.w3.org/2000/svg">
<path d="M55.5853 56.1897C56.0135 56.3266 56.2965 56.0469 56.5101 55.6947C56.7109 55.3762 56.8098 55.0041 56.7939 54.6279C56.723 54.1329 56.3674 53.7039 55.8699 53.9176C55.0878 54.1272 54.6646 55.8943 55.5853 56.1897Z" fill="#191919"/>
<path d="M65.329 56.0472C65.2581 55.5522 64.905 55.129 64.405 55.336C63.6972 55.6297 63.1964 57.3985 64.1204 57.6114C64.636 57.698 65.329 57.1642 65.329 56.0472Z" fill="#191919"/>
<path d="M58.3611 50.2165C57.3183 49.4864 55.2351 50.2215 55.8036 51.0696C56.0164 51.3542 56.372 51.1405 56.6566 51.0696C57.2259 50.9268 57.5097 51.2824 58.008 51.4961C58.5054 51.7461 59.3478 51.2032 58.3611 50.2165Z" fill="#191919"/>
<path d="M65.9681 52.5629C66.4631 52.7757 66.3946 53.4159 66.7502 53.7715C66.8211 53.8406 66.9093 53.8894 67.0055 53.9127C67.1017 53.9359 67.2025 53.9328 67.2971 53.9037C67.3917 53.8746 67.4768 53.8205 67.5433 53.7472C67.6098 53.6738 67.6553 53.5839 67.675 53.4869C67.8879 52.7048 66.8888 51.6554 66.1818 51.4962C65.8935 51.4277 65.5914 51.4451 65.3129 51.5463C65.0343 51.6474 64.7915 51.8279 64.6143 52.0654C64.5833 52.1112 64.5624 52.1631 64.5528 52.2175C64.5432 52.272 64.5453 52.3279 64.5587 52.3815C64.5722 52.4351 64.5968 52.4853 64.631 52.5288C64.6651 52.5723 64.7081 52.6081 64.757 52.6338C65.1745 52.9077 65.5424 52.421 65.9681 52.5629Z" fill="#191919"/>
<path d="M60.1384 54.1977C60.2812 53.9139 59.7829 53.7027 59.6434 53.9848C59.0084 55.2404 58.4839 56.5488 58.0759 57.8953C57.9266 58.3903 57.5067 59.3177 58.2178 59.5313C58.5734 59.6023 59.9957 59.8151 60.3513 59.8151C60.4484 59.8129 60.5412 59.7751 60.6122 59.7088C60.6831 59.6425 60.7272 59.5524 60.736 59.4558C60.7447 59.3591 60.7176 59.2625 60.6597 59.1845C60.6019 59.1066 60.5173 59.0526 60.4222 59.033C60.1277 58.9744 58.7962 58.8202 58.5734 58.8202C58.717 58.5355 59.7119 55.4071 60.1384 54.1977Z" fill="#191919"/>
<path d="M56.5131 64.2961C57.1541 64.16 57.7927 64.0824 58.4329 63.9405C58.5426 65.5823 61.1554 68.9408 63.3392 66.927C64.264 66.0731 64.3349 64.7226 64.3349 63.5132C64.3449 63.3636 64.3176 63.2139 64.2556 63.0774C64.1935 62.9409 64.0986 62.8219 63.9794 62.7311C63.6467 62.5756 63.2744 62.5261 62.9126 62.5892C62.2724 62.5892 61.5621 62.6667 60.9219 62.7311C59.3661 62.8517 57.8344 63.1868 56.3704 63.7268C56.2978 63.7484 56.2363 63.7971 56.1988 63.8629C56.1612 63.9287 56.1506 64.0064 56.169 64.0799C56.1874 64.1533 56.2335 64.2168 56.2976 64.2571C56.3617 64.2974 56.4389 64.3114 56.5131 64.2961ZM63.3392 63.5849C63.3564 63.9182 63.3326 64.2524 63.2682 64.5799C62.7188 68.4277 59.5788 65.6194 59.2859 63.8687C60.6273 63.6692 61.9831 63.5743 63.3392 63.5849Z" fill="#191919"/>
<path d="M57.08 87.9748C55.87 89.1128 54.5902 90.2507 53.2405 91.3887L55.1603 95.5838L52.7422 103.192C53.5813 104.645 54.1593 106.233 54.4499 107.885C55.0456 110.795 56.5834 117.699 57.9339 123.885L58.7878 95.5871L62.1299 92.245C61.3478 90.7518 60.5624 89.1876 59.7827 87.6943C59.2135 88.0466 57.9331 88.5441 57.08 87.9748ZM56.8672 94.3752C56.7928 94.4462 56.7012 94.4967 56.6014 94.5216C56.5015 94.5464 56.397 94.5449 56.2979 94.5171C55.9025 94.1548 55.5851 93.7157 55.3651 93.2266C55.1451 92.7375 55.0271 92.2087 55.0184 91.6725C55.0184 91.5782 55.0558 91.4877 55.1225 91.4211C55.1892 91.3544 55.2796 91.3169 55.3739 91.3169C55.4682 91.3169 55.5587 91.3544 55.6254 91.4211C55.6921 91.4877 55.7295 91.5782 55.7295 91.6725C55.7553 92.0538 55.8565 92.4261 56.0273 92.768C56.1981 93.1099 56.4351 93.4144 56.7245 93.664C56.9381 93.9478 57.0074 94.2325 56.8672 94.3752Z" fill="#64876F"/>
<path d="M56.6535 45.594C59.4246 46.476 64.1387 47.2036 66.6087 48.4387C67.1597 48.6482 67.6498 48.9918 68.0347 49.4383C68.4196 49.8849 68.6871 50.4203 68.8131 50.9961C69.1229 52.2375 69.3604 53.4958 69.5243 54.7648C70.4648 60.0324 73.0355 60.1652 73.1502 59.2445C73.2309 58.6075 73.2786 57.9667 73.2929 57.3247C73.9661 51.619 77.4459 52.2922 76.8478 49.0046C76.3091 46.0396 73.4967 43.6718 71.515 43.6718C70.1892 38.7028 62.2272 30.6211 55.5867 32.0096C54.541 32.21 53.5499 32.6308 52.6794 33.2438C51.8088 33.8569 51.0788 34.6483 50.5377 35.5654C48.745 38.9058 50.5551 43.6545 56.6535 45.594ZM54.8756 33.6481C56.5492 33.1799 58.3332 33.3056 59.9246 34.0036C65.1584 36.0092 63.4902 38.301 62.6999 37.4876C60.6737 35.4086 57.523 33.9277 54.7362 34.8567C54.3242 35.0336 53.9607 35.3067 53.6761 35.6531C53.3914 35.9994 53.1939 36.409 53.1002 36.8474C52.941 37.123 52.5318 36.9901 52.3899 36.7765C51.4626 35.1446 53.7437 34.0218 54.8756 33.6481ZM65.2574 38.9809C65.3572 39.0526 66.8175 39.9321 66.8934 40.5484C66.9486 41.0005 66.7638 41.1885 66.2532 41.1885C65.9628 41.1885 64.6939 39.829 64.6172 39.5534C64.505 39.1426 64.9637 38.7688 65.2574 38.9809Z" fill="#191919"/>
<path d="M71.3012 37.3461C72.4337 37.5458 73.5189 37.9557 74.5006 38.5548C77.8426 40.6882 78.9844 44.5995 78.5538 48.2964C78.4164 49.494 78.2026 50.6817 77.9136 51.8521C75.3561 52.8759 74.39 56.0547 74.2877 58.8209C74.2184 60.6697 74.5715 62.8023 76.1365 63.9408C75.5111 64.6866 74.8463 65.3985 74.145 66.0735C72.9814 67.1259 71.5962 67.9036 70.0918 68.3488C69.8088 68.4247 69.4516 68.4915 69.1678 68.5625C68.9308 68.1919 68.5846 67.9041 68.1771 67.7386C67.7695 67.5731 67.3207 67.5381 66.8924 67.6385C66.4068 67.8205 65.9924 68.1536 65.7102 68.5887C65.428 69.0239 65.293 69.5381 65.3249 70.0557C65.5609 71.9384 68.9417 72.4532 69.4499 69.9138C72.3135 69.4412 74.899 67.9203 76.7033 65.6469C76.9945 65.2971 77.2726 64.9358 77.5564 64.5802C81.9478 65.7781 84.521 60.7481 83.3165 56.19C82.8273 54.3387 81.6814 52.1367 79.6189 51.7102C79.6898 51.7102 80.1139 47.7989 80.1139 47.4433C80.1967 45.2587 79.9327 43.0748 79.3318 40.9728C79.0609 40.0836 78.6037 39.2622 77.9908 38.5634C77.3779 37.8645 76.6231 37.3042 75.7768 36.9196C74.3935 36.2815 72.8913 35.9422 71.368 35.9238C70.9415 35.9238 70.7278 35.9948 70.7278 36.4188C70.8029 36.8478 71.0166 37.2752 71.3012 37.3461ZM77.2742 62.3049C76.5129 61.5458 76.0572 60.5334 75.9938 59.4603C75.9938 59.1055 76.5985 58.9653 76.634 59.3893C76.7314 60.5649 77.7799 61.9427 78.6965 62.092C79.109 62.1588 79.1915 62.1621 79.4077 61.9493C79.5008 61.8796 79.6146 61.8431 79.7309 61.8456C79.8472 61.8482 79.9593 61.8896 80.0493 61.9632C80.1393 62.0369 80.2021 62.1386 80.2275 62.2521C80.253 62.3656 80.2397 62.4844 80.1898 62.5895C79.9414 63.285 78.3937 63.4252 77.2742 62.3049Z" fill="#191919"/>
<path d="M18.8935 47.6564C19.8128 47.9625 20.7148 48.3186 21.5953 48.7231C21.3247 51.9753 22.0821 53.6731 22.1646 53.6294C21.2183 53.8955 20.3273 54.3289 19.5337 54.909C19.3405 55.0878 19.2193 55.3311 19.193 55.5931C19.1667 55.8551 19.2371 56.1176 19.3909 56.3313C20.0475 57.2709 20.7851 58.1513 21.5953 58.9622C22.733 60.0999 24.9374 57.1134 24.9374 57.1134C25.7194 57.6346 26.5842 58.0193 27.4949 58.251C27.3723 59.411 27.3964 60.5819 27.5667 61.7358C27.6912 61.979 27.8877 62.1778 28.1294 62.3051C28.3712 62.4324 28.6463 62.4819 28.9172 62.447C30.2438 62.447 32.7163 62.6945 33.1841 61.4512C33.326 60.882 32.5439 57.8212 32.5439 57.8212C33.3416 57.4825 34.0845 57.0271 34.7483 56.4699C35.3167 57.0391 35.886 57.6793 36.5262 58.2477C36.9527 58.6743 37.4502 58.9589 38.0194 58.4614C39.0843 57.3558 40.059 56.1667 40.9342 54.9057C41.4976 54.1194 40.5868 53.4694 39.9392 53.1278C39.6579 52.9801 37.5154 52.1312 37.5921 51.7773C37.9024 50.516 37.9024 49.1982 37.5921 47.9369C38.8015 47.2975 40.0811 46.6573 40.2238 46.2308C40.4367 45.5906 39.9417 45.2334 39.5836 44.6633C39.0886 43.8787 38.5326 42.8763 38.0904 42.1058C38.0444 42.0293 37.9821 41.9638 37.908 41.914C37.8338 41.8642 37.7497 41.8314 37.6614 41.8177C37.5732 41.8041 37.483 41.8101 37.3973 41.8352C37.3116 41.8603 37.2325 41.904 37.1656 41.9631C36.2968 42.5762 35.4659 43.2412 34.6774 43.9546C34.8902 43.8119 32.9704 42.6033 32.1883 42.4614C32.4301 39.677 32.421 39.2752 32.0464 38.7637C31.6851 38.2687 30.9797 38.3372 30.4789 38.3372C28.4882 38.3372 26.4257 38.4791 26.4975 39.3321C26.6149 40.4104 26.8048 41.4796 27.0659 42.5323C24.1462 43.2624 23.6529 44.9867 23.6529 44.4521C22.6571 43.599 20.8924 41.7642 20.0229 42.5323C19.547 43.0302 19.1645 43.6094 18.8935 44.2425C18.1138 45.3802 17.3317 47.0162 18.8935 47.6564ZM29.9864 46.6606C32.6891 46.6251 34.0454 50.1479 32.831 52.3531C32.4656 52.9957 31.922 53.5189 31.266 53.8596C30.6099 54.2002 29.8692 54.3437 29.1334 54.2729C28.5796 54.2012 28.0492 54.0052 27.5819 53.6994C27.1147 53.3936 26.7227 52.986 26.4354 52.5071C26.1481 52.0283 25.9729 51.4907 25.9229 50.9345C25.873 50.3783 25.9495 49.818 26.1469 49.2957C26.4768 48.5411 27.0117 47.8942 27.6908 47.4284C28.37 46.9626 29.1661 46.6966 29.9889 46.6606H29.9864Z" fill="#64876F"/>
<path d="M11.0038 85.1316C11.0042 85.3201 11.0793 85.5007 11.2125 85.634C11.3458 85.7672 11.5265 85.8423 11.7149 85.8427C14.3908 86.1277 17.0927 86.0558 19.7496 85.6291C19.9026 85.5774 20.0375 85.4829 20.1384 85.3569C20.2393 85.2308 20.3019 85.0785 20.3189 84.9179C20.1052 82.7845 19.9633 80.6518 19.7496 78.5893C19.7496 78.4474 24.3696 71.9068 26.3628 68.9187C26.4516 68.7664 26.4791 68.586 26.4395 68.4141C26.4 68.2423 26.2964 68.092 26.15 67.9939C25.9985 67.9014 25.8168 67.872 25.6439 67.9119C25.471 67.9519 25.3207 68.058 25.2251 68.2075C23.3763 70.9812 21.4565 73.825 19.5326 76.5277C19.4834 76.3932 19.3972 76.2754 19.2839 76.1879C19.1706 76.1003 19.0349 76.0465 18.8924 76.0327C17.6838 76.1036 11.9963 76.4666 11.3552 76.6019C11.2712 76.6204 11.1917 76.6554 11.1212 76.7048C11.0508 76.7543 10.9908 76.8171 10.9448 76.8898C10.8988 76.9626 10.8676 77.0437 10.8531 77.1285C10.8386 77.2133 10.841 77.3001 10.8602 77.384C10.9254 77.667 11.0038 83.8512 11.0038 85.1316ZM18.2564 77.7363C18.2564 78.0209 18.3281 78.2313 18.3281 78.5184C18.0435 78.9449 16.3366 81.363 15.7706 82.1484C15.486 81.7928 14.1347 79.873 13.6372 79.3747C13.5582 79.3061 13.4571 79.2684 13.3526 79.2684C13.248 79.2684 13.1469 79.3061 13.0679 79.3747C12.9796 79.4366 12.9166 79.5282 12.8906 79.6328C12.8645 79.7374 12.8771 79.8479 12.926 79.944C13.6414 81.1958 14.4247 82.4076 15.2723 83.574C15.3294 83.6638 15.4082 83.7377 15.5014 83.7889C15.5947 83.8401 15.6993 83.867 15.8057 83.867C15.9121 83.867 16.0167 83.8401 16.11 83.7889C16.2032 83.7377 16.282 83.6638 16.3391 83.574C17.0502 82.5782 17.8323 81.5824 18.5435 80.5867C18.6144 81.8671 18.7571 83.1442 18.8281 84.427C16.7287 84.6878 14.6084 84.7353 12.4995 84.5689C12.4286 83.5022 12.1439 78.6669 12.073 78.2404C12.497 78.1628 17.2614 77.8072 18.2564 77.7363Z" fill="#64876F"/>
<path d="M65.4727 126.16C65.5238 126.174 65.5772 126.177 65.6297 126.171C65.6823 126.164 65.733 126.147 65.779 126.12C65.8249 126.094 65.8652 126.059 65.8976 126.017C65.93 125.975 65.9538 125.927 65.9677 125.876C66.67 124.353 67.8974 123.133 69.4254 122.441C70.9533 121.749 72.6795 121.63 74.2878 122.107C74.7828 122.253 75.14 121.469 74.6425 121.254C71.3755 119.841 66.5955 121.59 65.1146 125.662C65.0461 125.804 65.259 126.089 65.4727 126.16Z" fill="#191919"/>
<path d="M65.1865 120.187C62.3502 120.612 60.2464 123.839 60.7777 126.231C60.8487 126.726 61.5598 126.587 61.6308 126.089V125.235C61.7876 124.376 62.155 123.571 62.7 122.889C63.3883 121.991 64.3697 121.362 65.4736 121.111C65.9034 120.967 65.9224 120.187 65.1865 120.187Z" fill="#191919"/>
<path d="M105.078 59.389H106.002C106.227 59.8702 106.541 60.3046 106.927 60.6694C107.781 61.7361 108.961 61.5909 109.771 60.4557C110.098 59.8986 110.224 59.2457 110.127 58.6069C110.127 58.394 109.842 58.3223 109.632 58.3223C108.148 58.5669 106.653 58.7322 105.152 58.8173C104.723 58.8222 104.723 59.389 105.078 59.389ZM107.922 60.6694C107.51 60.5044 107.031 59.7619 106.785 59.389C107.595 59.3918 108.405 59.3205 109.203 59.1761C109.326 59.7965 108.701 60.8913 107.922 60.6694Z" fill="#191919"/>
<path d="M105.36 54.9093C104.782 55.9166 106.508 57.5179 106.711 56.6162C106.794 56.2623 106.216 55.8341 106.071 55.6204C105.858 55.3358 106 55.1939 106.214 54.9802C106.356 54.7674 106.709 54.3409 106.64 54.0562C106.49 53.4598 105.522 54.6676 105.36 54.9093Z" fill="#191919"/>
<path d="M105.079 50.5014C105.48 49.9659 104.419 49.3233 103.799 49.7902C103.372 50.0748 103.586 50.5014 104.084 50.3595C104.41 50.3595 104.846 50.7381 105.079 50.5014Z" fill="#191919"/>
<path d="M110.765 50.999C111.275 50.7433 110.337 49.684 109.13 50.2879C109.059 50.3296 109.005 50.3959 108.979 50.4743C108.952 50.5528 108.955 50.6381 108.987 50.7144C109.201 50.999 109.482 50.7144 109.769 50.7854C110.04 50.7854 110.357 51.2028 110.765 50.999Z" fill="#191919"/>
<path d="M49.6137 58.6073C50.3702 57.8805 50.3702 55.6283 51.7472 50.3573C52.1597 48.7898 52.7743 47.2405 53.3147 45.7373C53.4656 45.3141 52.8197 45.027 52.5326 45.4535C51.9694 46.3185 51.5155 47.2498 51.1812 48.2264C49.1187 47.9417 47.2724 49.5076 46.4168 51.3556C45.4953 53.3471 44.9162 56.1975 46.5596 58.0381C47.1899 58.7525 48.7062 59.4827 49.6137 58.6073Z" fill="#191919"/>
<path d="M135.723 48.9362C136.296 49.6072 137.03 50.1211 137.857 50.4295C137.908 50.4436 137.961 50.4474 138.014 50.4406C138.067 50.4339 138.118 50.4169 138.164 50.3904C138.21 50.3639 138.25 50.3286 138.282 50.2864C138.315 50.2443 138.338 50.1962 138.352 50.1448C138.537 49.588 138.036 49.682 136.289 48.1541C135.734 47.6488 135.276 47.0463 134.938 46.3762C134.88 46.3041 134.802 46.2516 134.713 46.2262C134.624 46.2007 134.53 46.2036 134.443 46.2343C134.229 46.3762 134.229 46.519 134.3 46.7293C134.681 47.5211 135.159 48.2625 135.723 48.9362Z" fill="#191919"/>
<path d="M140.135 51.2828C140.775 51.7093 141.266 50.9916 140.847 50.5725C139.741 49.6651 138.925 48.4536 138.5 47.0877C138.472 46.9934 138.407 46.9142 138.321 46.8675C138.234 46.8209 138.132 46.8106 138.038 46.8389C137.944 46.8673 137.864 46.9319 137.818 47.0186C137.771 47.1054 137.761 47.2071 137.789 47.3014C138.148 48.8363 138.967 50.2252 140.135 51.2828Z" fill="#191919"/>
<path d="M140.703 49.2212C141.26 49.5 141.782 49.2311 142.622 49.8614C144.006 50.7837 143.867 52.8413 144.045 55.4079C142.513 55.6265 141.671 57.8738 142.477 59.0337C142.534 59.1162 142.642 59.3274 142.69 59.3893C142.69 59.5394 141.853 60.2589 141.766 60.3141C141.415 60.536 141.055 60.6697 140.699 60.8825C140.415 61.0962 140.486 61.6646 140.912 61.5937C141.448 61.5819 141.968 61.4095 142.405 61.0987C142.548 61.0277 143.615 60.1029 143.543 60.032C145.134 60.899 147.485 57.4538 145.464 55.8368C145.389 52.6622 145.231 49.3028 142.405 48.4415C142.307 48.411 141.115 48.0761 140.628 48.5125C140.537 48.5925 140.397 49.0685 140.703 49.2212ZM143.549 58.8918C143.378 58.6698 143.262 58.411 143.21 58.1362C143.157 57.8614 143.169 57.5781 143.245 57.3088C143.321 57.0395 143.459 56.7916 143.648 56.5849C143.836 56.3782 144.07 56.2184 144.332 56.1182C144.388 56.1085 144.446 56.1171 144.497 56.1428C144.548 56.1685 144.59 56.2099 144.616 56.2609C144.76 56.5158 144.26 56.6165 144.12 56.7559C143.811 57.0653 143.534 58.2137 143.907 58.4628C144.05 58.6047 144.334 58.6757 144.262 58.9578C144.187 59.3893 143.76 59.1765 143.549 58.8918Z" fill="#191919"/>
<path d="M84.5976 38.91C85.1314 39.5794 85.8131 40.1159 86.5892 40.4775C88.2482 41.1836 90.0538 41.4766 91.851 41.3314C93.1198 43.4267 95.0821 45.0117 97.3975 45.8111C97.8925 45.953 98.1796 45.3161 97.8925 44.9572C96.7765 43.7342 96.1667 42.133 96.1864 40.4775C102.218 37.948 102.626 29.67 96.7548 27.1125C94.7519 26.2912 92.5845 25.9504 90.4263 26.1175C89.0471 26.2616 87.7178 26.7132 86.5364 27.4393C85.355 28.1653 84.3516 29.1473 83.6002 30.3127C81.7044 33.1754 82.3751 36.3896 84.5976 38.91ZM92.5622 32.5814C92.8355 32.7467 93.0507 32.9929 93.1781 33.2858C93.3055 33.5787 93.3388 33.9039 93.2733 34.2166C93.2068 34.5383 93.0395 34.8304 92.7958 35.0507C92.5521 35.271 92.2445 35.408 91.9177 35.4418C91.591 35.4756 91.2619 35.4045 90.9782 35.2388C90.6946 35.0731 90.471 34.8213 90.34 34.5201C90.209 34.2188 90.1773 33.8837 90.2495 33.5632C90.3217 33.2427 90.4941 32.9535 90.7416 32.7375C90.9892 32.5215 91.2991 32.39 91.6264 32.3619C91.9537 32.3339 92.2815 32.4107 92.5622 32.5814ZM95.335 34.0037C95.31 33.7569 95.346 33.5078 95.4398 33.2781C95.5335 33.0485 95.6822 32.8453 95.8727 32.6865C96.0632 32.5276 96.2898 32.418 96.5326 32.3671C96.7753 32.3162 97.0269 32.3256 97.2652 32.3946C97.5034 32.4635 97.7212 32.5899 97.8992 32.7626C98.0773 32.9352 98.2103 33.149 98.2866 33.385C98.3628 33.621 98.38 33.8722 98.3366 34.1164C98.2932 34.3606 98.1906 34.5905 98.0377 34.7858C97.8498 35.0213 97.5962 35.1958 97.3091 35.287C97.022 35.3783 96.7142 35.3824 96.4248 35.2986C96.1354 35.2149 95.8773 35.0471 95.6833 34.8166C95.4893 34.5861 95.3681 34.3032 95.335 34.0037ZM88.0824 34.2166C88.0451 34.4465 87.9537 34.6643 87.8157 34.8519C87.6777 35.0396 87.4971 35.1918 87.2887 35.296C87.0804 35.4002 86.8503 35.4533 86.6173 35.4511C86.3844 35.4489 86.1553 35.3914 85.949 35.2833C85.6246 35.1135 85.3692 34.8363 85.2265 34.4991C85.0839 34.1618 85.0628 33.7855 85.1669 33.4345C85.7163 31.6516 88.5717 32.2951 88.0824 34.2166Z" fill="#64876F"/>
<path d="M120.152 94.8755C123.888 93.2848 125.143 89.7308 123.993 87.2665C123.85 86.9117 123.281 87.1955 123.423 87.4802C123.656 88.3499 123.646 89.2666 123.395 90.1312C123.144 90.9959 122.662 91.7757 122.001 92.3864C120.705 93.5932 119.064 94.364 117.308 94.5908C118.09 91.3772 118.707 88.1258 119.157 84.8492C119.735 80.3703 114.819 79.4397 111.402 79.1609C105.215 78.6543 89.8574 78.4142 88.3634 78.4497C85.3892 78.5198 84.9545 81.3793 85.8059 84.209C82.666 83.4013 79.4367 82.9935 76.1946 82.9954C76.127 82.9954 75.9834 82.875 75.9232 82.7818C74.9827 81.3364 71.87 75.9582 71.87 75.8848C71.9706 74.5598 71.9943 73.2302 71.9409 71.9025C71.9273 71.824 71.8941 71.7503 71.8443 71.6881C71.7946 71.6259 71.7299 71.5774 71.6563 71.5469C71.5144 71.5469 71.3015 71.6179 71.3015 71.7606C71.1365 72.6607 71.0194 75.4351 70.946 76.1694C67.2795 79.2506 63.4067 82.0776 59.3547 84.6306C58.9125 83.5993 56.7972 76.7403 56.7238 76.4532C56.7238 76.4037 56.7947 77.0711 56.7947 72.6846C57.5691 72.8265 58.3546 72.898 59.1419 72.8983C60.6659 72.81 62.1719 72.523 63.6216 72.0444C63.9772 71.9025 63.9772 71.2623 63.5507 71.3341C61.4461 71.5675 56.7197 73.178 53.8082 70.1246C52.263 68.5043 52.3232 66.2999 52.4577 64.0807C52.786 58.1315 53.9852 52.2627 56.0168 46.6616C56.1595 46.377 55.6546 46.1609 55.5218 46.448C53.5046 50.7297 52.1228 56.4593 51.6822 63.7276C51.5387 66.0821 51.4487 68.3715 52.8908 70.2698C53.5649 71.1182 54.4455 71.7792 55.4483 72.1896C55.6612 72.2605 55.9433 72.3315 56.1595 72.4025V76.1001C52.6244 79.6352 51.9347 80.0032 50.7549 81.5047C48.8723 81.0616 44.5674 81.3661 42.7912 81.6466C34.6097 82.9385 27.9412 86.783 23.9474 93.8063C23.3042 94.98 22.7342 96.1923 22.2404 97.4362C17.1914 97.0097 12.6407 96.6583 10.1517 96.4405C2.18634 95.7434 4.10776 101.205 4.96081 104.049C5.81386 106.894 15.1298 130.146 15.1298 130.146C62.8032 135.635 60.037 135.443 62.2744 135.124C66.6469 134.249 74.4019 131.659 74.948 131.641C75.745 131.613 76.089 133.438 75.7136 133.703C74.6659 134.438 64.6199 136.809 63.6257 137.045C62.5321 137.354 61.4139 137.568 60.2837 137.685C56.9729 137.685 23.2882 134.202 18.5428 133.134C18.3935 133.101 18.2373 133.127 18.1072 133.208C17.9771 133.288 17.8836 133.416 17.8465 133.564C17.8094 133.713 17.8317 133.869 17.9086 134.002C17.9854 134.134 18.1109 134.231 18.2582 134.272C23.4251 135.238 50.3655 138.369 59.2879 138.892C60.0295 138.982 60.7819 138.909 61.4923 138.678C63.3989 138.283 74.3879 135.644 75.9983 134.838C76.9833 134.223 76.8868 132.373 76.0692 131.283C75.8527 131.016 75.5572 130.824 75.2251 130.735C74.8931 130.646 74.5414 130.665 74.2204 130.788C70.1226 131.906 70.7282 131.865 65.4036 133.345C64.3402 133.641 63.3254 133.848 62.2744 134.127C61.9716 134.21 60.3323 134.566 60.2226 134.062C54.092 105.843 54.0962 105.187 52.7456 102.982C52.2747 102.121 51.6139 101.38 50.8134 100.813C50.0128 100.246 49.0936 99.8692 48.1256 99.7108C46.4946 99.4633 33.7616 98.5021 23.0242 97.6483C24.1905 94.6074 25.9833 91.8458 28.286 89.5427C32.9308 84.8979 39.4615 82.5194 46.1341 82.3602C47.0647 82.3379 46.7273 82.2893 50.4719 82.2893C50.7566 85.4185 51.254 88.5469 51.5387 91.6753C51.6096 92.0308 51.9652 92.2445 52.2498 91.9599C52.5204 91.6893 55.3889 89.461 58.9323 85.916C59.7936 87.4232 61.093 90.1053 62.1325 92.0308C62.5026 92.6748 62.8349 93.3397 63.1274 94.0224C63.1696 94.0878 63.2275 94.1416 63.2958 94.1788C63.3641 94.216 63.4407 94.2355 63.5185 94.2355C63.5963 94.2355 63.6729 94.216 63.7412 94.1788C63.8095 94.1416 63.8674 94.0878 63.9095 94.0224C65.7245 90.9146 72.506 85.8194 75.212 83.7099C78.2685 83.7286 81.3163 84.038 84.3143 84.6339C90.1821 85.8095 95.5879 88.6482 99.887 92.8113C104.578 97.308 107.821 103.101 109.202 109.451C110.484 116.095 109.103 121.892 104.224 127.086C97.6182 134.119 89.4936 134.758 80.1183 132.632C79.4789 132.487 78.7719 132.402 78.0558 132.206C77.9996 132.191 77.941 132.188 77.8834 132.196C77.8259 132.204 77.7705 132.223 77.7205 132.253C77.6705 132.283 77.6268 132.322 77.5921 132.368C77.5573 132.415 77.5322 132.468 77.5181 132.524C77.5039 132.581 77.5011 132.639 77.5098 132.697C77.5185 132.754 77.5385 132.81 77.5686 132.859C77.5987 132.909 77.6384 132.952 77.6854 132.986C77.7323 133.021 77.7856 133.045 77.8421 133.059C79.139 133.351 80.0746 134.066 86.4461 134.626C92.7746 135.18 98.2807 133.694 103.085 129.578C110.357 123.349 112.184 114.92 109.343 106.396C109.471 106.524 109.4 106.478 113.183 106.254C113.877 106.358 114.587 106.285 115.245 106.04C116.026 105.61 115.956 103.765 115.53 103.125C115.324 102.817 114.723 102.769 114.819 102.769C115.245 102.698 116.738 95.4455 116.881 95.4455C118.003 95.5582 119.135 95.361 120.152 94.8755ZM17.9018 126.16C17.5181 125.347 13.3354 114.575 12.2093 111.299C12.0632 110.874 12.7043 110.732 12.8495 111.086C16.1412 119.033 18.641 124.153 18.9644 125.663C19.037 126.374 18.1979 126.794 17.9018 126.16ZM24.0175 100.775C29.3033 101.362 41.9604 101.455 45.4213 102.41C47.9351 103.105 48.2197 104.94 48.8343 107.388C50.2649 113.09 50.3366 113.586 50.4695 114.784C50.4613 114.895 50.4132 115.001 50.3341 115.08C50.2549 115.16 50.1498 115.208 50.038 115.217C49.9261 115.225 49.8149 115.193 49.7246 115.127C49.6342 115.06 49.5706 114.964 49.5455 114.854C49.3186 114.345 48.4952 110.885 48.4787 110.801C46.3436 102.687 48.2387 103.448 37.4567 102.482C32.9811 102.08 28.4972 101.842 24.0175 101.272C23.9797 101.282 23.9402 101.283 23.9019 101.276C23.8636 101.268 23.8276 101.251 23.7967 101.228C23.7657 101.204 23.7405 101.173 23.7232 101.138C23.7058 101.103 23.6966 101.065 23.6964 101.026C23.6961 100.987 23.7048 100.948 23.7217 100.913C23.7386 100.878 23.7633 100.847 23.794 100.823C23.8246 100.799 23.8604 100.782 23.8986 100.773C23.9367 100.765 23.9763 100.766 24.0142 100.775H24.0175ZM51.1064 82.0731C51.1889 82.0731 51.6286 81.4527 53.7373 79.5156C54.5895 78.7319 55.4442 77.8796 56.2263 77.0975C56.8371 79.9009 57.6448 82.6578 58.6436 85.3475C56.6528 87.3391 54.5903 89.3298 52.3868 91.1786C51.9594 88.0469 51.5329 85.058 51.1064 82.0731ZM70.3767 86.6255C67.8768 88.5072 65.6092 90.6793 63.6216 93.0959C62.3412 90.6069 60.9907 88.1187 59.7103 85.6297C63.834 83.0561 67.7778 80.2049 71.5144 77.0959C72.7057 79.4785 74.1593 81.9848 74.8565 83.0689C73.3632 84.2066 71.8733 85.4201 70.3767 86.6255ZM97.8245 79.943C102.516 79.9958 106.427 79.7326 112.046 80.8669C113.331 81.1268 114.748 81.3619 115.602 82.4344C115.953 82.8054 116.177 83.2787 116.242 83.7858C116.65 85.615 116.625 87.5141 116.171 89.3323C116.101 89.6169 115.957 89.9015 115.676 89.9015C115.036 89.8298 115.39 88.6211 115.463 88.2655C115.669 87.3082 115.74 86.327 115.676 85.35C115.47 82.1771 113.34 82.0195 110.2 81.5105C105.833 80.8018 103.217 80.8694 97.8253 80.5856C97.3979 80.5089 97.3979 79.9355 97.8245 79.943ZM91.4959 80.0849C91.5952 80.0913 91.6884 80.1353 91.7564 80.2079C91.8245 80.2806 91.8624 80.3764 91.8624 80.4759C91.8624 80.5754 91.8245 80.6712 91.7564 80.7439C91.6884 80.8165 91.5952 80.8605 91.4959 80.8669C90.7582 80.8433 90.02 80.8911 89.2915 81.0097C88.9998 81.0115 88.7139 81.0916 88.4637 81.2417C88.2135 81.3918 88.0082 81.6062 87.8692 81.8627C87.7314 82.2199 87.158 82.0756 87.2298 81.7208C87.6761 80.0791 89.9045 80.0824 91.4959 80.0824V80.0849ZM109.842 105.755C109.786 105.753 109.729 105.762 109.676 105.783C109.623 105.804 109.576 105.835 109.535 105.875C109.495 105.915 109.464 105.963 109.443 106.016C109.422 106.069 109.413 106.125 109.415 106.182C109.202 105.471 108.92 104.76 108.633 104.049C109.115 104.145 109.054 104.12 115.033 104.12V105.471C114.488 105.468 110.384 105.72 109.842 105.752V105.755Z" fill="#191919"/>
<path d="M104.224 70.1977C104.175 70.6531 104.223 71.1139 104.367 71.549C104.976 74.5966 107.352 75.9941 108.917 73.2559C109.345 75.1774 110.782 75.9215 112.401 75.2467C114.606 74.4646 116.099 71.9755 117.095 69.9848C117.237 69.7002 117.308 69.4164 117.45 69.1318C117.556 68.9181 117.435 68.7407 117.237 68.6368C117.097 68.5617 114.89 68.1418 114.961 68.0683C115.079 65.5933 115.175 61.1111 115.175 61.0286C115.326 61.1287 115.494 61.2008 115.67 61.2415C117.661 61.8107 119.232 59.537 119.581 57.8994C119.944 56.1949 119.717 53.5137 117.732 52.9222C115.663 52.3051 114.423 54.3535 113.892 56.0506C113.662 56.7435 113.587 57.4785 113.673 58.2036C113.758 58.9286 114.002 59.6261 114.387 60.2465C113.495 61.1749 112.432 61.9232 111.258 62.4509C110.831 61.9559 109.044 62.0269 109.48 63.5168C109.531 63.761 109.671 63.9775 109.873 64.1242C110.075 64.271 110.324 64.3375 110.572 64.311C110.82 64.2845 111.05 64.1668 111.216 63.9807C111.382 63.7946 111.473 63.5535 111.472 63.304C112.539 62.9165 113.527 62.3382 114.387 61.597C114.31 61.6738 113.791 68.4949 114.032 68.4949C112.464 69.7035 110.902 70.8412 109.338 71.9788C109.409 71.9079 107.916 69.4213 107.916 69.0633C107.845 68.8504 107.916 66.646 107.845 66.646C108.129 66.717 108.556 66.7879 108.698 66.5033C108.727 66.4531 108.745 66.397 108.749 66.3392C108.754 66.2813 108.746 66.2231 108.726 66.1688C108.705 66.1144 108.673 66.0653 108.632 66.0248C108.59 65.9844 108.54 65.9537 108.485 65.9349C106.483 65.5818 105.121 65.4209 103.865 63.6595C102.262 61.7893 102.016 60.1327 102.016 57.6156C102.028 54.3668 102.362 51.1271 103.012 47.9441C103.012 48.0868 104.079 48.2287 104.221 48.2287C105.501 48.3715 109.27 47.7337 110.903 47.5885C111.543 49.0818 113.589 50.2153 113.108 52.0691C112.961 52.6367 112.052 54.3271 112.752 54.771C112.852 54.83 112.968 54.8549 113.084 54.8421C113.199 54.8293 113.307 54.7795 113.392 54.7C113.822 54.0507 114.297 53.4328 114.814 52.8512C115.526 52.1401 116.877 51.9973 117.233 51.6418C117.449 51.3919 117.602 51.0927 117.676 50.7704C117.75 50.4481 117.744 50.1125 117.659 49.7929C117.282 48.3672 116.656 47.0193 115.81 45.8115C117.419 45.2266 118.45 46.9054 122.423 48.2287C123.986 48.8242 125.672 49.0198 127.33 48.798C128.108 48.6388 127.685 47.8022 126.974 47.3757C125.231 46.1077 123.427 43.4932 122.921 42.825C119.965 39.5737 116.921 41.1403 114.885 44.9576C114.414 44.6245 113.863 44.4227 113.288 44.3728C112.713 44.323 112.136 44.4268 111.614 44.6738C108.55 37.5235 98.7443 39.6793 100.949 45.8824C101.192 46.6667 101.726 47.3281 102.442 47.7313C101.581 51.5147 100.322 58.4703 101.873 62.0236C102.393 63.2985 103.225 64.4229 104.291 65.2947C105.164 65.9637 106.191 66.4038 107.277 66.5751C107.286 67.1922 107.263 67.8093 107.206 68.4239C107.422 68.4239 105.15 68.3752 104.669 68.749C104.419 69.1945 104.267 69.6885 104.224 70.1977ZM102.656 44.1722C102.692 44.4654 102.785 44.7486 102.932 45.0051C103.079 45.2615 103.275 45.4861 103.509 45.6655C104.136 46.1357 104.544 46.021 105.287 46.021C105.714 45.9501 105.928 46.6612 105.501 46.8749C105.07 47.0228 104.609 47.0629 104.159 46.9918C103.709 46.9207 103.283 46.7406 102.918 46.467C102.553 46.1935 102.261 45.8349 102.067 45.4226C101.873 45.0102 101.782 44.5566 101.803 44.1013C101.831 44.0031 101.891 43.9174 101.975 43.8591C102.058 43.8008 102.159 43.7735 102.261 43.7819C102.362 43.7903 102.458 43.8339 102.531 43.9052C102.603 43.9764 102.649 44.0709 102.66 44.1722H102.656ZM115.031 58.0388C114.931 57.5622 114.929 57.0699 115.027 56.5927C115.125 56.1155 115.32 55.6636 115.601 55.2652C115.814 54.9805 116.233 55.2652 116.17 55.6207C116.005 56.5414 115.666 57.4011 116.027 58.3226C116.099 58.49 116.207 58.64 116.341 58.7626C116.476 58.8852 116.636 58.9777 116.809 59.0338C116.888 59.0881 116.948 59.1651 116.982 59.2546C117.016 59.344 117.021 59.4416 116.998 59.5343C116.975 59.627 116.924 59.7105 116.852 59.7737C116.781 59.8368 116.691 59.8765 116.596 59.8876C116.162 59.809 115.768 59.5814 115.482 59.2441C115.197 58.9068 115.038 58.4806 115.032 58.0388H115.031ZM114.748 68.7044C114.844 68.7333 115.139 68.8471 116.596 69.1994C115.867 70.7488 114.326 73.4894 112.827 74.3194C112.512 74.5452 112.149 74.6949 111.767 74.7566C111.385 74.8183 110.993 74.7903 110.623 74.6749C109.848 74.3045 109.77 73.4655 109.557 72.7543C111.25 71.2058 114.482 68.9701 114.748 68.7044ZM104.905 69.503C104.91 69.4414 104.937 69.3837 104.982 69.3413C105.027 69.2989 105.086 69.2747 105.148 69.2737C105.313 69.2737 106.913 69.1417 106.997 69.1318C107.438 70.2133 107.962 71.2592 108.564 72.2602C108.35 72.8845 107.954 73.4305 107.427 73.8277C106.779 74.1692 106.206 73.7658 105.791 73.1875C105.09 72.094 104.778 70.7958 104.906 69.503H104.905Z" fill="#191919"/>
<path d="M103.374 53.2744C103.215 54.389 104.413 54.6051 104.583 53.4163C104.741 52.305 103.543 52.0856 103.374 53.2744Z" fill="#191919"/>
<path d="M109.702 52.8477C108.946 52.8477 108.755 54.3929 109.56 54.5538C109.747 54.5319 109.918 54.4381 110.038 54.2921C110.157 54.1462 110.215 53.9595 110.199 53.7717C110.199 53.2742 109.986 52.9186 109.702 52.8477Z" fill="#191919"/>
<path d="M135.87 55.9761C136.042 55.9486 136.199 55.863 136.315 55.7335C136.432 55.6041 136.5 55.4387 136.509 55.2649C136.581 54.8384 136.374 54.4473 136.083 54.4119C135.792 54.3764 135.514 54.6965 135.443 55.123C135.372 55.5495 135.585 55.9761 135.87 55.9761Z" fill="#191919"/>
<path d="M140.205 55.4787C140.277 55.0522 140.07 54.6612 139.778 54.6249C139.487 54.5886 139.21 54.9095 139.139 55.336C139.068 55.7625 139.274 56.1536 139.566 56.1899C139.857 56.2262 140.134 55.9053 140.205 55.4787Z" fill="#191919"/>
<path d="M137.431 54.8385C137.431 54.5538 137.004 54.5538 136.936 54.8385C136.864 55.5496 136.864 56.2608 136.793 56.9719C136.793 57.2565 136.722 57.6113 137.007 57.825C137.22 57.9601 137.466 58.0341 137.718 58.0386C137.79 58.0332 137.857 58.0008 137.906 57.948C137.954 57.8953 137.982 57.826 137.982 57.754C137.982 57.6821 137.954 57.6128 137.906 57.56C137.857 57.5072 137.79 57.4749 137.718 57.4694C137.575 57.4694 137.362 57.4694 137.291 57.3984C137.289 57.2549 137.431 55.4077 137.431 54.8385Z" fill="#191919"/>
<path d="M135.727 52.7762C135.18 53.0501 135.384 53.3454 135.585 53.3454H136.509C136.548 53.3518 136.587 53.3489 136.625 53.3369C136.662 53.3249 136.696 53.3041 136.724 53.2762C136.752 53.2484 136.773 53.2143 136.785 53.1769C136.797 53.1394 136.8 53.0996 136.793 53.0608C136.793 52.5361 135.961 52.6615 135.727 52.7762Z" fill="#191919"/>
<path d="M140.492 53.1301C140.279 52.7745 139.502 52.739 139.14 52.7745C139.075 52.7855 139.017 52.8212 138.977 52.8742C138.937 52.9272 138.92 52.9934 138.928 53.0591C138.928 53.2728 139.142 53.2464 139.354 53.2728C139.627 53.3301 139.89 53.426 140.136 53.5574C140.303 53.6251 140.619 53.3858 140.492 53.1301Z" fill="#191919"/>
<path d="M136.295 59.5322C136.576 59.591 136.862 59.6149 137.148 59.6032C137.408 61.1633 139.85 61.1517 139.85 59.8878C139.85 57.2841 139.144 58.8153 136.224 59.1057C136.153 59.1057 136.011 59.4605 136.295 59.5322ZM139.211 59.0372C139.211 59.109 139.353 60.033 138.716 60.1039C138.501 60.124 138.286 60.0618 138.114 59.9299C137.943 59.798 137.828 59.6061 137.792 59.3928C138.281 59.3492 138.76 59.228 139.211 59.0339V59.0372Z" fill="#191919"/>
<path d="M144.256 83.3524C144.503 83.1301 144.802 82.9743 145.125 82.8997C145.449 82.825 145.786 82.8341 146.105 82.9259C146.743 83.2208 147.322 83.6305 147.812 84.1346C147.878 84.164 147.951 84.1753 148.023 84.1671C148.095 84.159 148.163 84.1318 148.221 84.0883C148.279 84.0448 148.325 83.9866 148.352 83.9198C148.38 83.8529 148.39 83.7798 148.38 83.708C148.204 83.2386 147.88 82.8392 147.456 82.5704C147.199 82.3478 146.898 82.1828 146.572 82.0863C146.246 81.9898 145.903 81.9642 145.566 82.0111C145.229 82.0579 144.906 82.1763 144.619 82.3581C144.332 82.5399 144.087 82.7811 143.9 83.0653C143.863 83.1126 143.846 83.1726 143.853 83.2323C143.86 83.292 143.89 83.3467 143.937 83.3844C143.983 83.4222 144.043 83.44 144.103 83.434C144.163 83.428 144.218 83.3987 144.256 83.3524Z" fill="#191919"/>
<path d="M143.759 81.9311C144.351 80.7489 145.991 80.9832 146.248 80.9353C146.326 80.9134 146.394 80.8668 146.442 80.8026C146.491 80.7384 146.517 80.6602 146.517 80.5797C146.517 80.4993 146.491 80.4211 146.442 80.3569C146.394 80.2927 146.326 80.2461 146.248 80.2242C145.31 79.9115 144.072 80.1681 143.262 81.7917C143.19 82.0053 143.618 82.1448 143.759 81.9311Z" fill="#191919"/>
<path d="M145.185 79.2289C145.834 79.2289 145.789 78.7842 145.398 78.5887C144.332 78.1622 143.194 79.2998 142.696 80.1562C142.506 80.5357 142.986 80.6512 143.123 80.5117C143.342 80.151 143.642 79.8469 144.001 79.624C144.359 79.4012 144.765 79.2658 145.185 79.2289Z" fill="#191919"/>
<path d="M69.7368 127.725C71.3348 125.139 74.45 125.625 74.7149 125.449C74.8004 125.422 74.8769 125.372 74.9358 125.305C74.9947 125.237 75.0337 125.154 75.0484 125.066C75.0631 124.978 75.053 124.887 75.0191 124.804C74.9853 124.721 74.9291 124.649 74.8568 124.596C74.4212 124.252 73.5772 124.383 73.0079 124.454C72.1631 124.569 71.3589 124.888 70.665 125.383C69.9712 125.879 69.4085 126.536 69.0257 127.298C68.9547 127.793 69.519 128.077 69.7368 127.725Z" fill="#191919"/>
<path d="M88.2237 116.347C86.3262 119.286 82.6335 120.329 79.0506 120.329C78.9778 120.333 78.9094 120.365 78.8593 120.418C78.8092 120.47 78.7812 120.541 78.7812 120.613C78.7812 120.686 78.8092 120.756 78.8593 120.809C78.9094 120.862 78.9778 120.894 79.0506 120.898C81.559 121.236 84.1091 120.736 86.304 119.475C89.2245 117.68 90.3572 115.094 90.3572 111.867C90.3922 111.102 90.3203 110.337 90.1435 109.592C90.121 109.515 90.0743 109.447 90.0101 109.399C89.946 109.351 89.8681 109.325 89.7879 109.325C89.7078 109.325 89.6298 109.351 89.5657 109.399C89.5016 109.447 89.4548 109.515 89.4324 109.592C89.137 110.991 89.9983 113.602 88.2237 116.347Z" fill="#191919"/>
<path d="M104.43 69.2793C93.1329 69.2925 88.8817 75.348 87.5625 78.5548C87.827 78.4896 88.0978 78.4533 88.3702 78.4467C89.3214 78.4236 95.895 78.5135 102.143 78.7115C102.604 75.9275 103.301 73.1877 104.226 70.5218C104.207 70.098 104.277 69.6749 104.43 69.2793ZM100.387 71.1223C100.015 71.2273 99.6343 71.2988 99.2494 71.336C98.1556 71.4783 97.0961 71.8153 96.121 72.331C94.7789 73.0336 93.5934 74.0013 92.6362 75.1756C92.5876 75.2576 92.5089 75.3175 92.4169 75.3425C92.3248 75.3674 92.2266 75.3554 92.1432 75.3091C92.0598 75.2628 91.9978 75.1858 91.9703 75.0944C91.9428 75.0031 91.9521 74.9046 91.9961 74.82C92.4593 74.1357 93.0092 73.5143 93.632 72.9712C94.8696 71.8761 96.3228 71.0524 97.8981 70.5531C98.698 70.279 99.5425 70.1583 100.387 70.1975C100.884 70.2751 100.817 70.9804 100.387 71.1223Z" fill="#64876F"/>
<path d="M134.093 83.6373C128.978 68.0027 117.721 69.8598 117.128 69.9118C116.958 70.2822 116.571 71.0123 116.181 71.6534C115.218 74.2006 114.483 76.828 113.984 79.5049C116.836 80.0758 119.6 81.4238 119.16 84.8459C118.711 88.1225 118.093 91.374 117.312 94.5875C122.365 93.7452 124.299 90.0921 123.426 87.4769C123.285 87.1922 123.853 86.9076 123.996 87.2632C125.146 89.7275 123.891 93.2857 120.155 94.8722C119.138 95.3575 118.006 95.5544 116.884 95.4414C116.777 95.4414 115.899 99.578 115.292 101.629C115.158 102.187 115.057 102.592 114.995 102.805C115.126 102.837 115.251 102.889 115.365 102.961C117.414 103.331 119.497 103.478 121.578 103.401C128.863 103.319 134.89 100.419 135.515 93.1611C135.68 89.9235 135.196 86.6856 134.093 83.6373Z" fill="#64876F"/>
<path d="M160.616 77.5226C160.063 74.8973 158.881 72.4453 157.172 70.377C155.463 68.3088 153.278 66.6859 150.804 65.6476C148.372 64.6858 145.804 64.1102 143.195 63.9415H142.555C142.65 63.3776 142.674 62.8042 142.626 62.2345C142.626 61.9499 142.131 61.808 142.057 62.1636C141.986 62.6586 141.981 63.1536 141.915 63.5859C141.731 64.7764 141.679 65.9545 140.564 67.0699C140.265 67.3301 139.913 67.5221 139.532 67.6327C139.151 67.7432 138.751 67.7696 138.359 67.7101C138.012 67.5944 137.695 67.3992 137.436 67.14C137.177 66.8808 136.982 66.5647 136.866 66.2168C136.627 65.3122 136.578 64.3675 136.724 63.4432C137.742 63.5141 138.764 63.5141 139.782 63.4432C139.867 63.4432 139.948 63.4094 140.008 63.3494C140.068 63.2894 140.102 63.208 140.102 63.1231C140.102 63.0382 140.068 62.9567 140.008 62.8967C139.948 62.8367 139.867 62.803 139.782 62.803C138.929 62.803 135.516 62.9457 134.804 62.5901C134.651 62.4609 134.532 62.2961 134.458 62.11C134.384 61.924 134.356 61.7225 134.378 61.5234C133.868 57.4462 134.52 53.1513 134.52 51.0706C134.864 51.2209 135.221 51.3399 135.587 51.4262C136.384 51.4262 136.252 50.7027 135.871 50.5723C134.484 50.1534 133.296 49.2444 132.529 48.0148C132.487 47.9434 132.421 47.8896 132.343 47.8634C132.264 47.8371 132.179 47.8402 132.103 47.8721C131.96 47.9431 131.82 48.1551 131.889 48.2986C132.374 49.3595 133.167 50.2504 134.164 50.8561C133.608 54.4561 133.513 58.1121 133.88 61.7362C133.889 62.2076 134.065 62.6606 134.375 63.0158C134.945 63.3196 135.578 63.4889 136.223 63.5108C136.164 63.8631 136.14 64.2205 136.152 64.5775C131.914 64.5775 127.599 66.0625 124.775 69.4846C124.416 69.9141 124.086 70.3675 123.789 70.8418C124.004 70.9292 124.22 71.0246 124.439 71.128C126.214 68.4632 128.921 66.5582 132.029 65.787C133.36 65.4836 134.718 65.3177 136.082 65.292C136.078 65.6816 136.151 66.0682 136.296 66.4297C137.464 69.9334 141.824 69.186 142.554 64.7945C145.012 64.9567 147.433 65.4851 149.735 66.362C151.864 67.1208 153.787 68.3635 155.353 69.992C158.908 73.7689 160.063 78.0085 159.762 81.014C159.594 82.4579 159.053 83.8332 158.193 85.0049C157.333 86.1765 156.183 87.1041 154.855 87.6965C153.434 88.2705 151.907 88.5371 150.376 88.4786C150.283 88.4882 150.197 88.5295 150.132 88.5955C150.067 88.6615 150.027 88.7481 150.018 88.8405C150.01 88.9328 150.034 89.0253 150.086 89.1019C150.138 89.1786 150.216 89.2347 150.305 89.2607C154.43 90.2672 159.489 87.1924 160.544 82.6475C160.967 80.9682 160.991 79.2133 160.616 77.5226Z" fill="#191919"/>
<path d="M146.39 84.9887C146.374 84.9318 146.343 84.8802 146.3 84.8391C146.257 84.798 146.204 84.7688 146.147 84.7544C146.089 84.7401 146.029 84.741 145.972 84.7572C145.915 84.7734 145.863 84.8043 145.822 84.8468C145.497 85.2263 144.144 86.9324 143.901 87.3358C142.053 78.9117 141.27 76.3196 141.27 75.6736C141.27 75.4607 141.199 75.2471 140.915 75.2471C137.209 75.524 133.489 75.5722 129.777 75.3914C129.969 75.6249 130.158 75.8699 130.347 76.1232C133.769 76.3769 137.206 76.3692 140.628 76.1001C140.675 76.6215 142.773 86.0059 143.185 87.5486C142.33 87.7202 137.905 87.5486 135.292 87.5486C135.363 87.7623 135.363 88.0436 135.435 88.2598C136.064 88.2598 143.452 88.6335 143.896 88.1888C144.503 87.5825 145.697 85.9613 145.888 85.7708C145.963 86.026 146.01 86.2885 146.03 86.5537C146.03 86.9175 145.229 87.6039 144.75 88.4025C144.561 88.7265 144.347 89.0355 144.11 89.3265C143.487 89.8215 138.109 89.4206 137.355 89.3265C135.361 89.3265 135.636 88.9239 135.447 89.6252C135.457 89.7159 135.461 89.8067 135.47 89.8974C138.077 90.0533 142.491 90.6011 144.181 90.0377C144.579 89.8691 144.906 89.5675 145.106 89.1846C146.658 86.7385 147.013 87.4752 146.39 84.9887Z" fill="#191919"/>
</svg>
