<svg width="165" height="165" viewBox="0 0 165 165" fill="none" xmlns="http://www.w3.org/2000/svg">
<path fill-rule="evenodd" clip-rule="evenodd" d="M25.4516 111.778C24.6984 111.781 23.9705 111.782 23.269 111.785C16.585 111.804 12.3113 111.816 11.6501 111.815C10.4645 111.814 9.63954 112.612 11.4083 112.689C13.16 112.766 17.1447 112.833 25.4645 112.875C25.4605 112.501 25.4562 112.136 25.4516 111.778ZM33.0333 112.904C32.2996 112.901 31.5886 112.9 30.8996 112.897C30.9034 112.51 30.9071 112.132 30.911 111.763C31.5962 111.761 32.2954 111.759 33.0079 111.757C33.0152 112.158 33.0237 112.54 33.0333 112.904ZM127.203 112.76C134.732 112.735 142.738 112.707 151.252 112.676C154.543 112.664 154.533 111.74 150.962 111.693C146.698 111.635 138.456 111.607 128.021 111.598C127.757 111.994 127.485 112.382 127.203 112.76Z" fill="#191919"/>
<path fill-rule="evenodd" clip-rule="evenodd" d="M55.6266 55.1375C54.2728 55.1317 41.2073 55.0145 39.8551 54.9304C38.827 54.8668 38.7191 55.2986 37.8712 58.6934C37.8176 58.9081 37.761 59.1348 37.701 59.3738C37.6241 59.6806 37.5119 61.1394 37.3835 63.4076C42.1259 66.9729 48.1624 85.7532 36.5304 92.7929C36.4724 92.8276 36.4149 92.8622 36.3582 92.8969C36.1193 105.747 36.2206 117.433 37.2316 117.675C38.6914 118.024 40.4072 118.384 42.2375 118.676C43.2905 118.106 44.5111 117.572 45.8794 117.07L45.8553 117.05C45.4795 116.736 45.3078 116.437 45.3078 116.182C45.3067 115.813 45.6635 115.537 46.281 115.442C48.0124 115.177 48.7142 115.094 49.2353 115.032C49.4521 115.006 49.6382 114.984 49.8538 114.954C50.1596 114.912 50.5258 114.853 51.1272 114.746C51.7982 114.627 52.7621 114.445 54.2617 114.157C53.7407 111.86 54.0283 109.04 55.6753 106.306C56.2036 105.428 56.775 104.561 57.3473 103.692C57.7275 103.115 58.1082 102.537 58.477 101.955C58.673 83.4853 58.0543 55.1473 55.6258 55.1366L55.6266 55.1375Z" fill="#64876F"/>
<path fill-rule="evenodd" clip-rule="evenodd" d="M54.7875 47.8747C57.1495 50.449 59.9865 53.5409 60.5774 65.2648C60.7678 69.0484 60.8854 84.2051 60.8999 97.4959C60.857 97.585 60.814 97.6741 60.7711 97.7632L60.7709 97.764C60.4857 98.3555 60.2 98.9487 59.8935 99.5353C59.8483 99.6219 59.8026 99.7077 59.7562 99.7943C59.7769 97.2847 59.7988 94.9936 59.815 93.2966C59.8308 91.64 59.8412 90.5494 59.8398 90.3728C59.816 87.35 59.8167 84.479 59.8173 81.7587C59.8212 65.0386 59.8238 54.0341 54.111 48.6592C49.9075 44.7045 50.1941 39.5866 50.6168 32.0389C50.6675 31.1327 50.7202 30.1915 50.7673 29.2131C50.7879 28.7824 50.9381 28.3699 51.2532 28.0771C51.7993 27.5688 51.7887 26.9387 51.7779 26.3075C51.776 26.1929 51.7741 26.0782 51.7755 25.9642L51.7755 25.9633C51.7762 25.9069 51.7768 25.8629 51.7588 25.8288C51.6953 25.7084 51.4008 25.7099 50.0673 25.7165C49.2158 25.7208 47.9408 25.7271 46.0318 25.7052C44.948 25.6927 44.203 25.6501 43.6932 25.621C42.6595 25.5619 42.5936 25.5581 42.6328 25.9725C42.636 26.0047 42.6349 26.0625 42.6334 26.14C42.6215 26.7599 42.5855 28.6391 44.4973 28.7123C47.134 28.8138 48.6933 28.9128 49.4985 29.0052C50.5627 29.1265 50.3862 29.5579 49.5694 29.6363C48.4901 29.7396 46.3686 29.5627 45.0313 29.4513C44.7772 29.4301 44.551 29.4112 44.3661 29.3971C43.7965 29.3534 43.8015 29.4192 43.9282 31.0897C44.0312 32.4483 44.2147 34.8681 44.235 39.1535C44.2622 44.8633 42.8399 47.071 40.4895 49.4107C37.2926 52.5944 35.8043 58.2325 35.5403 61.1785C35.5401 61.1807 35.5325 61.7691 35.5196 62.8207L34.4446 62.8272C34.564 59.1704 35.1163 55.9865 37.3198 51.6457C37.9183 50.4664 38.7363 49.6464 39.5723 48.8084C41.2142 47.1625 42.9254 45.4472 43.1773 40.8043C43.2604 39.2796 43.1765 36.9249 43.102 34.8333C43.0396 33.0828 42.9838 31.5165 43.0379 30.7748C43.1231 29.6061 42.7812 29.1741 42.4319 28.7329C41.9662 28.1446 41.4877 27.54 41.9926 25.15C42.0619 24.8242 42.3297 24.8371 42.5717 24.8488C42.6207 24.8512 42.6686 24.8535 42.7137 24.853C45.6152 24.8134 48.5175 24.8101 51.4182 24.9099L51.4517 24.911C52.0289 24.9307 52.3179 24.9404 52.4752 25.0894C52.633 25.2387 52.6583 25.528 52.709 26.1072L52.7151 26.1771C52.7993 27.1291 52.6458 27.9822 51.9619 28.6933C51.9533 28.7025 51.9447 28.7112 51.9362 28.7199C51.6233 29.0391 51.4809 29.1844 51.4191 38.9143C51.3858 44.1672 52.9416 45.8628 54.7875 47.8747ZM39.919 120.209C38.5756 119.863 37.2993 119.476 36.1128 119.093C35.3111 118.834 35.3082 118.505 35.2823 115.511C35.2749 114.653 35.2656 113.578 35.235 112.223C35.1583 108.804 35.1719 101.571 35.2223 93.5953C34.7709 93.8791 34.3683 94.1472 34.0091 94.4211C33.871 106.541 33.8841 118.842 34.4934 119.372C34.4814 119.388 36.1887 120.314 38.9172 121.194C39.2016 120.857 39.5363 120.528 39.919 120.209ZM39.6744 102.788C39.6744 102.781 39.7197 96.8969 39.798 90.0321C40.188 89.5734 40.5403 89.0924 40.8572 88.5949C40.8011 92.2365 40.7371 96.6643 40.6644 102.146L40.6643 102.148C40.6625 102.28 40.6611 102.382 40.7033 102.461C40.8491 102.732 41.5144 102.725 44.4727 102.69C46.3867 102.668 49.2606 102.635 53.5748 102.659C54.2427 102.662 54.2427 102.66 54.1223 93.6324C54.0587 88.8565 53.9613 81.5548 53.9114 70.3912L53.9113 70.3841C53.9106 70.2109 53.9099 70.0767 53.8528 69.974C53.6571 69.6218 52.7976 69.6386 48.9918 69.7128C47.2019 69.7476 44.7598 69.7953 41.4295 69.8231C41.2907 69.457 41.1464 69.1004 40.9975 68.7543C42.0424 68.6892 43.9546 68.6914 44.8571 68.6924H44.8595H44.8617C45.0036 68.6926 45.1203 68.6927 45.2043 68.6926C47.2957 68.6876 48.9417 68.6675 50.2371 68.6516C53.7484 68.6087 54.6844 68.5972 54.9354 69.0061C55.0266 69.1547 55.0274 69.3588 55.0284 69.6372L55.0284 69.6413L55.0301 102.678L55.0312 102.712C55.0393 103.561 55.0401 103.64 54.1944 103.645C50.636 103.665 47.9503 103.707 45.9231 103.739H45.922C41.1299 103.814 40.0181 103.831 39.7566 103.368C39.6777 103.228 39.6763 103.045 39.6744 102.806L39.6744 102.788Z" fill="#191919"/>
<path d="M28.8668 124.69C26.6681 124.729 20.7851 124.894 18.1203 124.414C17.5337 124.308 17.4372 123.797 18.0188 123.554C26.4371 120.028 26.3769 120.692 26.3736 119.867C26.2985 102.896 26.3109 97.0545 23.2922 94.587C20.3049 92.1458 16.4249 91.5122 14.2808 84.4164C13.0911 80.4795 13.6109 73.1824 17.5865 66.4529C17.9825 65.7822 18.5056 65.2055 18.9503 64.5735C19.4312 63.8904 20.0846 64.1668 35.8958 63.7923C39.6206 63.704 48.3087 84.7653 36.0822 92.1656C30.2074 95.7213 30.0383 95.6058 29.9879 117.228C29.9813 120.075 29.8807 120.051 30.2981 120.244C40.6709 125.04 40.4069 124.482 28.8668 124.69ZM35.2077 123.665C35.2457 123.453 35.3249 123.524 34.6574 123.219C29.6563 120.93 29.158 120.906 29.1621 119.849C29.2207 103.823 27.9964 96.0802 33.3902 92.6705C36.0253 91.0048 37.4096 90.3564 38.7082 88.5579C43.5823 81.8094 41.2525 72.0183 36.8082 65.2476C36.1655 64.2683 36.0533 65.2855 19.9403 65.0834C18.0007 65.0595 8.62786 85.559 21.3609 92.0377C26.4759 94.6398 27.093 98.2145 27.2308 109.703C27.3686 121.191 27.3875 120.733 26.6186 121.031C15.5158 125.322 19.3826 123.336 35.2077 123.665Z" fill="#191919"/>
<path d="M29.017 92.0224C21.2447 91.8739 17.4225 86.1987 16.7905 79.7927C16.7369 79.2532 16.9093 78.9545 17.4909 78.91C20.7984 78.6567 24.1074 78.3704 27.4272 78.3993C37.9064 78.4909 39.0663 77.3557 39.1876 78.8646C39.7758 86.1938 33.7245 92.1123 29.017 92.0224Z" fill="#64876F"/>
<path d="M94.6683 136.464C42.0399 137.082 27.5553 124.216 46.7152 117.668C46.9893 117.574 47.2678 117.482 47.5505 117.391L49.1215 118.269C31.6803 123.581 43.6244 127.707 46.0287 129.15C58.9103 136.88 130.821 138.39 144.705 126.082C148.646 122.589 139.26 119.037 138.44 118.933C138.181 118.9 137.69 118.492 136.952 118.269C136.271 118.063 135.558 117.863 134.814 117.668C135.322 117.799 135.981 117.192 136.247 116.872C141.169 118.266 144.695 119.961 146.178 121.929H146.179C147.36 123.497 147.327 125.648 145.323 127.416C136.676 135.051 106.123 136.33 94.6683 136.464Z" fill="#191919"/>
<path d="M82.9666 113.054C81.4643 114.041 75.8402 112.787 72.0527 109.34C70.6972 108.106 71.0437 107.321 70.0215 107.698C67.7264 108.545 66.592 110.555 65.0245 112.799C64.9172 111.097 66.554 107.771 69.9184 106.85C70.4786 106.697 70.1024 106.404 70.0372 106.217C69.2147 103.865 69.5686 101.673 70.9612 99.6469C75.3601 93.249 84.8402 96.469 97.0345 91.0421C98.5847 90.3524 99.7496 89.7626 99.9542 91.4373C101.244 101.978 78.552 106.309 78.7838 104.377C78.8325 103.972 98.6614 102.543 99.0203 91.8944C99.0467 91.1164 99.017 91.0908 98.3215 91.3944C84.3542 97.4887 76.2404 94.4329 71.9792 99.8218C69.581 102.855 69.3582 108.061 77.2592 111.348C78.9299 112.043 80.4784 112.224 82.9674 113.055L82.9666 113.054Z" fill="#191919"/>
<path fill-rule="evenodd" clip-rule="evenodd" d="M63.4285 94.6482C74.3218 78.2794 91.971 76.7391 109.433 86.0401L109.432 86.0393C114.073 88.511 116.932 89.8417 118.623 90.6296C120.464 91.486 120.922 91.6988 120.787 92.0387C120.659 92.3629 120.372 92.2557 119.544 91.9447C119.409 91.8935 119.259 91.8374 119.092 91.7764C115.922 90.6156 113.097 89.185 110.287 87.7627C104.067 84.6129 97.9209 81.5004 88.2544 81.4317C79.2528 81.3682 70.922 86.5203 65.3557 93.9684C64.2191 95.4889 63.8483 96.2611 63.2895 97.4251C62.6165 98.8276 61.6706 100.798 58.7854 105.329C58.6791 105.495 58.5649 105.67 58.4458 105.853C57.0151 108.044 54.8616 111.342 56.8714 115.439C57.4708 116.661 59.3998 117.744 61.9535 118.702C61.6622 118.969 61.3858 119.251 61.1265 119.548C59.6272 119.005 58.3952 118.445 57.6296 117.887C55.2354 116.497 53.4914 111.599 56.4135 106.748C56.9489 105.86 57.5202 104.992 58.0914 104.125C58.9935 102.756 59.8954 101.387 60.6557 99.9331C60.9574 99.3556 61.2403 98.7674 61.5234 98.1792C62.1042 96.9722 62.6852 95.7644 63.4285 94.6482ZM78.456 123.68C79.069 123.775 79.4372 123.818 79.4813 123.801C89.562 124.715 97.9721 116.41 93.192 109.742C90.9488 106.612 87.7841 105.168 84.0213 104.874C83.8901 104.864 83.7524 104.866 83.6146 105.053C84.169 105.377 84.8249 105.614 85.5698 105.882C87.0169 106.404 88.7989 107.045 90.8276 108.691C97.9754 114.491 90.0125 124.277 78.7627 122.897C78.6771 123.159 78.5747 123.421 78.456 123.68Z" fill="#191919"/>
<path d="M134.403 89.8215C133.426 91.2042 132.554 91.2627 130.62 90.8354C128.685 90.408 126.858 93.6198 126.233 93.2271C126.007 93.0852 126.115 92.8789 126.221 92.7032C126.49 92.2577 125.265 92.3311 125.188 91.0515C125.128 90.0566 123.576 90.7735 123.182 89.3479C123.038 88.824 121.437 89.9221 118.32 89.8479C117.366 89.8256 117.124 89.8413 117.102 89.5929C117.032 88.8067 124.111 89.5096 126.374 85.0596C127.754 82.347 128.19 81.2844 131.374 81.7192C133.186 81.9667 135.176 82.347 135.069 84.3022C135.045 84.7353 134.326 84.44 134.288 84.2346C134.05 82.9839 133.063 82.9946 132.13 82.8271C126.126 81.7506 129.293 85.7031 124.415 88.4866C124.225 88.5947 123.912 88.6351 123.986 88.9833C124.157 89.7918 125.941 89.2176 126.052 91.0557C126.086 91.6282 126.959 91.9128 127.335 91.4797C128.656 89.9576 130.266 89.6334 132.132 90.1556C132.86 90.3594 133.503 89.9163 134.403 89.8215Z" fill="#191919"/>
<path fill-rule="evenodd" clip-rule="evenodd" d="M148.312 89.9078C148.34 90.3846 148.382 91.1263 148.548 92.457L148.548 92.4562C148.893 95.2356 145.692 95.2785 142.895 95.1391C136.111 94.8 133.25 100.243 130.298 105.856C128.436 109.4 126.536 113.012 123.592 115.279C122.632 116.434 120.858 117.559 118.709 118.602C118.402 118.3 118.074 118.016 117.727 117.75C121.431 115.847 124.589 113.607 126.131 111.242C128.032 108.325 128.923 106.542 129.699 104.989C130.809 102.767 131.684 101.016 134.946 97.0886C133.92 96.4195 133.853 96.2644 134.118 95.0005C134.124 94.9733 134.132 94.9452 134.141 94.9172C134.171 94.8116 134.203 94.7027 134.103 94.6317C133.66 94.3199 133.273 94.0055 133.223 93.3851C133.214 93.2746 132.995 93.362 132.566 93.5336C131.658 93.8958 129.813 94.6325 127.032 94.6697C126.617 94.6754 125.936 94.5707 125.042 94.4337C120.219 93.6945 109.196 92.0057 100.304 101.501C97.7481 104.231 97.895 107.486 97.9725 109.202C98.0039 109.894 98.0237 110.336 97.8504 110.391C97.3125 110.562 96.9998 108.432 97.2985 106.087C98.2208 98.8301 107.655 94.1672 114.875 92.9982C117.8 92.5247 120.452 92.8827 122.962 93.221C127.228 93.796 131.082 94.3157 135.163 90.6032C135.812 90.0125 136.438 88.9986 137.113 87.9063C138.64 85.4354 140.416 82.5603 143.274 83.2574C144.639 83.5899 144.967 84.1328 144.821 85.3282C144.611 87.0417 144.989 87.8255 145.2 88.2594C145.337 88.5449 145.402 88.6793 145.18 88.827C144.99 88.9541 144.847 88.8031 144.713 88.6595C144.671 88.615 144.629 88.5704 144.587 88.5358C143.687 87.8024 143.587 86.8115 143.729 85.758C144.131 82.7971 140.467 84.3464 138.891 87.0285C138.763 87.2463 138.642 87.4534 138.526 87.6506C137.247 89.8418 136.647 90.8697 134.78 92.2466C134.216 92.6624 133.773 93.584 134.392 93.914C135.079 94.2803 134.951 94.7637 134.832 95.2166C134.73 95.6044 134.634 95.9707 135.056 96.2231C135.441 96.4533 135.774 96.3395 136.146 96.0804C139.131 94.0055 141.277 94.0913 143.323 94.1738C144.324 94.2134 145.302 94.253 146.342 94.0369C147.553 93.7853 147.789 93.4866 147.644 92.2623C147.581 91.7343 147.545 91.2641 147.514 90.8458C147.394 89.2775 147.331 88.4483 146.123 88.0754C144.214 87.4856 146.881 86.4337 147.98 88.5407C148.265 89.0861 148.273 89.2313 148.312 89.9078ZM102.171 123.114C101.174 123.291 100.268 123.408 99.4864 123.455C91.4418 123.939 88.0271 123.498 86.213 123.263C84.7989 123.08 84.3551 123.023 83.4492 123.627C85.4325 124.91 97.5757 124.829 100.918 124.317C101.014 124.329 101.614 124.216 102.563 123.996C102.51 123.896 102.46 123.795 102.411 123.692C102.32 123.499 102.24 123.307 102.171 123.114Z" fill="#191919"/>
<path d="M132.447 85.3888C132.176 85.0868 132.445 84.7049 132.783 84.8286C134.354 85.4045 137.297 85.5752 137.177 86.2567C137.097 86.7104 133.435 86.491 132.448 85.3896L132.447 85.3888Z" fill="#191919"/>
<path d="M67.6311 129.128C60.4833 128.956 58.7368 124.364 61.1615 120.901C64.2016 116.559 70.7909 115.107 74.9604 116.879C81.6479 119.719 77.3348 128.603 67.632 129.129L67.6311 129.128ZM62.4493 120.818C60.4008 123.156 60.73 126.21 63.87 127.449C68.4553 129.257 74.5438 126.923 76.5774 123.303C80.0639 117.095 68.1814 114.274 62.4493 120.818Z" fill="#191919"/>
<path d="M65.6146 123.241C64.5042 124.259 63.4135 123.036 64.1593 122.128C64.4365 121.789 64.8441 122.023 64.7319 122.278C64.3359 123.178 65.0074 123.183 65.6146 123.241Z" fill="#191919"/>
<path d="M73.6832 123.915C72.7451 123.9 72.8697 122.702 73.4472 122.996C73.9851 123.27 74.1798 122.588 74.4611 122.99C74.6938 123.322 74.3077 123.926 73.6832 123.915Z" fill="#191919"/>
<path d="M69.9492 125.913C69.5854 127.066 68.3809 126.924 68.2869 126.253C68.2365 125.894 68.5294 125.55 68.9782 125.965C69.2917 126.255 69.6126 125.78 69.9492 125.913Z" fill="#191919"/>
<path d="M71.0926 124.788C70.4788 124.707 70.5126 123.595 71.194 123.973C71.5232 124.157 71.7666 123.529 71.9943 123.934C72.17 124.247 71.6874 124.807 71.0926 124.788Z" fill="#191919"/>
<path d="M67.6591 123.65C68.1937 123.614 67.9751 124.104 68.1475 124.321C68.3117 124.528 67.9702 124.621 67.7994 124.637C67.1427 124.695 67.1056 123.804 67.6591 123.65Z" fill="#191919"/>
<path d="M113.11 128.805C109.297 128.738 104.96 127.062 103.191 123.322C99.6299 115.793 113.6 112.853 119.027 120.285C122.199 124.627 118.485 128.9 113.11 128.805ZM110.535 116.882C104.461 116.479 102.097 120.564 104.606 123.79C108.532 128.839 117.081 128.615 118.793 124.982C120.474 121.413 115.825 117.234 110.535 116.882V116.882Z" fill="#191919"/>
<path d="M107.704 122.318C106.668 122.218 106.813 120.888 107.425 120.842C108.037 120.796 107.69 121.472 108.043 121.609C108.202 121.671 108.598 121.556 108.421 121.946C108.297 122.22 108.022 122.349 107.704 122.318Z" fill="#191919"/>
<path d="M115.41 125.507C114.486 125.367 114.882 124.241 115.048 124.463C115.485 125.048 116.052 123.997 116.399 124.574C116.618 124.939 116.003 125.531 115.41 125.507Z" fill="#191919"/>
<path d="M112.282 126.427C111.413 126.361 111.236 125.411 111.6 125.164C112.002 124.892 112.14 125.539 112.475 125.573C112.726 125.598 112.997 125.606 112.911 125.975C112.834 126.305 112.579 126.416 112.282 126.427Z" fill="#191919"/>
<path d="M46.5764 116.32C46.7422 116.892 49.8079 118.607 52.3984 119.065C53.6747 119.29 53.6582 120.075 52.7705 120.742C50.8515 122.182 49.2213 122.087 53.1723 122.071C54.0245 122.068 55.3272 121.638 55.3725 123.267C55.3849 123.698 55.5309 123.852 55.9434 123.879C58.0538 124.02 59.7615 123.517 60.0198 123.645C60.1229 124.23 54.5187 126.369 54.4213 123.548C54.3842 122.463 53.5971 123.704 49.7271 122.922C49.0877 122.792 48.1183 121.826 49.3014 121.327C54.9427 118.945 50.5686 120.995 45.8562 117.05C44.9388 116.283 45.2374 115.603 46.2819 115.443C50.9497 114.727 48.1348 115.334 54.4692 114.119C54.9551 114.026 56.9046 114.757 46.5756 116.321L46.5764 116.32Z" fill="#191919"/>
<path d="M126.949 119.201C125.866 117.132 128.527 117.881 132.422 116.768C133.769 116.383 133.12 116.539 130.194 115.963C129.128 115.752 123.866 114.955 124.28 113.949C124.397 113.663 124.661 113.672 124.906 113.751C128.437 114.888 135.344 115.124 135.397 116.228C135.475 117.816 127.936 118.442 127.859 118.723C127.722 119.215 129.988 120.082 130.32 120.22C131.922 120.887 132.323 120.92 132.282 121.447C132.215 122.325 130.727 122.409 129.839 122.434C125.774 122.545 125.845 121.368 127.107 123.229C128.119 124.721 126.269 125.11 125.035 124.713C123.239 124.134 121.093 122.715 121.504 122.144C121.82 121.706 124.712 124.096 126.536 123.911C125.026 122.324 124.575 122.109 124.858 121.45C125.219 120.61 126.367 121.338 129.669 121.398C132.29 121.446 127.797 120.819 126.95 119.202L126.949 119.201Z" fill="#191919"/>
<path d="M103.618 127.926C102.627 129.502 99.5041 129.686 97.6553 129.366C95.6703 129.022 97.1289 131.349 94.6308 130.971C91.7392 130.534 91.91 129.359 91.4183 130.1C90.1156 132.063 88.5563 133.34 87.3073 131.342C86.4526 129.974 86.8659 128.827 85.4981 129.562C83.8514 130.446 80.9596 132.017 78.8988 131.63C76.8379 131.242 78.9219 128.932 80.2683 127.049C80.3887 126.88 80.6049 126.603 80.8697 126.806C81.1345 127.009 80.8903 127.259 80.7798 127.449C79.006 130.493 78.5729 130.734 79.4557 130.673C84.8529 130.292 86.111 125.268 88.0778 130.307C88.4491 131.257 88.7543 131.323 89.4729 130.623C89.9027 130.204 90.2674 129.731 90.6056 129.239C91.8085 127.485 91.7953 129.278 94.663 129.878C95.8889 130.135 94.9888 128.178 96.9457 128.146C99.6328 128.104 96.9697 128.627 103.618 127.925L103.618 127.926Z" fill="#191919"/>
<path d="M90.0771 49.2627C89.6761 50.8104 88.5682 52.7417 88.3801 55.0756C88.1829 57.5242 90.1398 59.8087 90.9475 62.032C92.3054 65.7685 90.5968 68.6848 89.0368 72.8445C87.8859 75.9143 89.8766 77.4026 89.2199 77.7384C88.9353 77.8836 88.7134 77.6781 88.5459 77.4587C85.0677 72.9162 92.5768 67.5175 89.1976 61.2887C87.5353 58.2247 86.108 56.1151 87.7027 51.8977C88.0567 50.9614 88.5211 49.676 89.309 48.922C90.1637 48.1036 90.3386 48.2562 90.0771 49.2627Z" fill="#64876F"/>
<path d="M96.9959 55.2325C97.0801 56.0055 96.8878 57.2769 96.8326 58.9772C96.6898 63.3521 99.4156 64.6557 98.8142 68.5389C98.5057 70.5305 97.8382 72.0361 96.9274 74.9607C96.1874 77.3384 97.6237 77.7814 97.0825 78.1873C96.4927 78.6295 95.355 77.406 95.6033 75.53C95.9589 72.8397 96.8383 72.0278 97.4744 68.3549C98.193 64.2085 93.7504 62.8852 96.0496 55.2094C96.5116 53.6683 96.9415 54.7367 96.9959 55.2325Z" fill="#64876F"/>
<path d="M83.43 66.3752C83.3715 68.6101 82.4541 71.0142 81.5919 73.5354C80.4287 76.936 83.3409 78.6157 82.8245 79.0901C82.2231 79.642 79.7208 77.1984 80.1812 74.2358C80.6415 71.2732 82.7139 67.7587 81.8848 64.5553C81.2413 62.0704 80.0459 60.3948 80.248 58.3909C80.3041 57.834 80.6655 58.0947 80.7224 58.3273C81.4055 61.1142 83.5043 63.5372 83.43 66.3769V66.3752Z" fill="#64876F"/>
</svg>
