<svg width="165" height="165" viewBox="0 0 165 165" fill="none" xmlns="http://www.w3.org/2000/svg">
<path fill-rule="evenodd" clip-rule="evenodd" d="M59.3041 35.6327C59.394 37.555 59.8816 38.0929 59.7009 38.6027C59.5202 39.1126 56.914 47.9656 56.6641 49.4176C56.9462 53.3067 57.3818 58.387 57.9461 59.6171C58.5863 57.5158 60.2396 52.4157 61.3732 50.9167C60.733 46.0986 60.4508 39.1414 60.6942 38.5771C61.3495 37.6804 62.1964 36.9409 63.1733 36.4123C62.7757 35.3409 62.3224 34.2909 61.8154 33.2666C60.7132 34.1469 59.6052 34.9925 59.3041 35.6327Z" fill="#64876F"/>
<path fill-rule="evenodd" clip-rule="evenodd" d="M60.9434 19.5839C60.5408 19.9254 59.1556 20.2307 58.9576 19.1549C58.8932 18.815 58.522 18.8084 58.4766 19.1549C58.3042 20.7438 60.8023 20.9806 61.4301 20.0195C61.6158 19.7373 61.2981 19.2844 60.9434 19.5839ZM60.0276 13.7346C59.6227 13.5746 59.1829 13.5237 58.7522 13.5869C58.06 13.7214 58.0155 14.4647 58.8347 14.4713C59.144 14.4848 59.4511 14.5299 59.7513 14.6058C60.3906 14.7337 60.3321 13.8501 60.0276 13.7346ZM64.467 14.7337C63.9289 14.3972 63.2853 14.2717 62.6602 14.3814C62.1652 14.4969 62.1734 15.1569 62.7633 15.2213C63.2378 15.254 63.7022 15.3734 64.1337 15.5735C64.7235 15.8103 64.9347 15.1124 64.467 14.7337ZM62.817 16.5215C62.3046 16.439 62.0934 17.8027 62.5802 17.867C63.0669 17.9314 63.2237 16.5866 62.8202 16.5215H62.817ZM58.9345 15.8813C58.4675 15.8458 58.2943 17.2202 58.7621 17.2714C59.2299 17.3225 59.4064 15.9159 58.9378 15.8813H58.9345ZM63.5314 21.45C64.038 20.9954 64.3712 21.6802 64.1724 21.9178C63.799 22.3665 63.3003 22.6939 62.7401 22.8582C62.1798 23.0225 61.5834 23.0162 61.0267 22.8401C60.4377 22.6925 60.3857 22.1356 61.0267 22.1991C61.4747 22.2823 61.9362 22.2565 62.3721 22.1238C62.8081 21.9912 63.2057 21.7555 63.5314 21.4368V21.45Z" fill="#191919"/>
<path fill-rule="evenodd" clip-rule="evenodd" d="M69.8786 29.7454C69.6311 29.4303 69.3663 29.4245 68.9819 29.6745C66.809 31.0937 64.4327 32.1739 61.9347 32.878C61.1153 32.2067 60.4063 31.4111 59.8334 30.5201C59.5447 30.0078 58.9622 30.5201 59.1924 30.9112C59.7174 31.7848 60.3647 32.5788 61.1147 33.269C60.5059 34.0362 59.7896 34.7114 58.9878 35.2738C58.6764 34.153 58.5592 32.9872 58.6413 31.8269C58.5836 31.4969 58.0778 31.0456 57.95 32.8912C57.8397 34.009 57.9841 35.1372 58.3724 36.1912C58.77 37.069 60.5702 34.9099 61.5758 34.0066C61.8233 34.57 62.8571 37.4278 63.6326 37.2934C65.1893 37.0302 68.1173 35.5757 68.854 34.3143C68.8886 34.2509 68.9022 34.1781 68.8927 34.1064C68.8831 34.0348 68.851 33.9681 68.801 33.9159C68.751 33.8638 68.6856 33.829 68.6144 33.8165C68.5433 33.804 68.47 33.8145 68.4052 33.8465C67.3607 34.41 67.124 35.2878 63.6903 36.4535C63.14 35.5464 62.6707 34.5926 62.2878 33.6031C64.7919 32.8053 67.1993 31.7309 69.4653 30.3997C69.8555 30.931 70.5989 32.1866 71.0922 32.0497C71.6367 31.9168 70.0808 30.007 69.8786 29.7454Z" fill="#191919"/>
<path fill-rule="evenodd" clip-rule="evenodd" d="M64.6805 25.1578C62.6947 26.439 60.6058 26.9777 58.4278 25.8689C57.3701 25.3376 57.3066 25.0233 57.3066 23.8444C57.3568 19.9597 57.7093 16.0848 58.361 12.2548C58.4435 11.7424 57.6564 11.5502 57.5731 12.0625C57.3041 13.8115 56.0229 23.5243 56.612 25.2543C57.1763 26.8812 59.45 27.4067 60.9845 27.4067C60.8054 28.24 60.6256 29.0724 60.4532 29.9114C60.4078 30.1168 60.9721 31.0012 61.3945 29.4057C61.5743 28.7267 61.7022 28.0345 61.8623 27.349C63.1127 27.226 64.2805 26.6684 65.1623 25.7732C65.4436 25.4523 65.0657 24.9144 64.6813 25.1322L64.6805 25.1578ZM72.7787 13.267C74.1176 14.1894 73.2654 16.5472 72.2663 16.8145C73.0666 17.9101 71.4141 21.8058 69.2807 21.7093C69.2361 22.6324 68.935 25.9506 68.8261 29.2308C68.8261 29.6029 68.1851 29.5195 68.1207 29.1796C67.9029 28.2441 68.4218 21.5814 68.5695 20.9923C68.7939 20.1145 69.4919 20.4973 70.1964 19.5502C71.9009 17.2402 69.4853 15.8377 68.5052 17.6734C68.0572 18.5124 66.2306 16.2189 65.9427 12.7234C63.2714 12.4478 58.5557 11.8588 57.1078 10.8011C56.7441 10.5282 56.4843 10.1395 56.3713 9.69908C56.2583 9.25866 56.2988 8.79288 56.4862 8.37859C56.6735 7.9643 56.9965 7.62625 57.4018 7.42023C57.8072 7.21421 58.2706 7.15253 58.7157 7.24537C58.493 4.3488 62.288 4.73985 63.0701 6.01447C63.1724 3.89422 69.1181 3.86205 68.9639 7.04655C71.2739 5.64982 73.8206 9.05129 72.065 10.2946C73.838 10.2046 74.5384 12.7225 72.7762 13.267H72.7787Z" fill="#191919"/>
<path fill-rule="evenodd" clip-rule="evenodd" d="M159.337 159.061C108.765 159.083 57.2403 159.308 6.8584 159.285C6.73434 159.285 6.61536 159.334 6.52763 159.422C6.43991 159.51 6.39063 159.629 6.39062 159.753C6.39063 159.877 6.43991 159.996 6.52763 160.083C6.61536 160.171 6.73434 160.22 6.8584 160.22C57.2469 160.765 108.79 160.284 159.337 160.278C160.062 160.276 160.119 159.061 159.337 159.061Z" fill="#191919"/>
<path fill-rule="evenodd" clip-rule="evenodd" d="M38.0195 150.703C33.3879 154.498 25.2064 155.355 24.8673 157.75C24.803 158.237 46.3421 157.859 46.4955 157.571C47.3478 155.976 46.0286 151.683 45.9898 151.164C43.3238 151.392 40.6389 151.23 38.0195 150.684V150.703ZM93.2516 147.788C92.7269 149.812 91.4316 153.315 90.9416 153.645C90.4515 153.975 85.7647 155.516 84.9966 158.271C84.8869 158.662 92.967 158.508 95.1128 156.811C97.2586 155.114 103.646 149.166 103.729 148.478C103.812 147.79 101.014 144.23 99.8854 143.629C99.2617 144.828 95.9238 147.788 93.2516 147.788Z" fill="#191919"/>
<path fill-rule="evenodd" clip-rule="evenodd" d="M102.796 80.5442C102.372 80.0764 101.828 80.4617 102.155 81.0392C102.692 82.0135 103.685 83.3327 104.3 83.1842C106.36 82.5434 108.288 81.5374 109.992 80.2142C110.633 79.7918 109.864 78.7152 109.396 77.7796C108.813 76.5883 108.391 77.2549 108.359 77.4084C108.269 77.7928 109.16 79.3306 109.377 79.6573C107.753 80.694 106.05 81.602 104.284 82.3732C103.739 81.8052 103.241 81.1934 102.796 80.5442ZM114.788 83.6511C115.103 84.4571 115.182 85.3365 115.014 86.1857C114.846 87.0349 114.439 87.8183 113.841 88.4436C113.511 88.7959 112.841 88.4436 113.098 87.9758C113.52 87.343 113.854 86.6551 114.088 85.9314C114.799 82.9779 111.646 82.0878 110.532 81.2677C110.472 81.2165 110.429 81.147 110.412 81.0695C110.394 80.9921 110.402 80.9111 110.435 80.8387C110.467 80.7663 110.523 80.7064 110.592 80.6682C110.662 80.6299 110.742 80.6154 110.82 80.6267C112.487 81.0787 113.91 82.166 114.784 83.6553L114.788 83.6511ZM109.508 89.1481C108.765 88.8404 106.689 89.116 105.868 87.758C105.228 86.707 105.733 85.3102 105.497 84.0991C105.414 83.6701 104.741 83.7856 104.735 84.2278C104.69 86.8868 103.745 89.6283 108.848 89.9938C109.762 90.0449 109.999 89.3527 109.506 89.1481H109.508Z" fill="#191919"/>
<path fill-rule="evenodd" clip-rule="evenodd" d="M138.696 100.975C135.128 99.5779 125.537 104.605 122.385 106.62C119.636 101.334 114.517 92.0704 111.495 87.2516C112.681 85.3871 109.656 83.8947 108.638 85.727C108.475 86.0203 108.408 86.3581 108.449 86.6915C108.49 87.0249 108.636 87.3367 108.865 87.5819C109.095 87.8272 109.396 87.9932 109.726 88.056C110.056 88.1189 110.397 88.0752 110.701 87.9314C121.048 107.196 131.573 126.532 141.26 146.123C141.299 146.206 141.354 146.279 141.423 146.339C141.492 146.399 141.572 146.443 141.66 146.469C141.747 146.495 141.839 146.502 141.929 146.49C142.02 146.478 142.106 146.447 142.184 146.398C145.534 144.583 149.154 146.674 150.339 148.858C151.73 148.446 158.867 145.764 160.628 142.183C162.39 138.601 154.376 126.403 151.768 120.88C151.684 120.88 143.426 102.824 138.696 100.975ZM147.352 148.077C151.586 150.212 151.907 157.386 144.533 158.065C140.971 158.395 136.935 152.767 140.573 149.141C141.452 148.28 142.577 147.714 143.792 147.524C145.008 147.333 146.252 147.526 147.352 148.077ZM149.085 153.299C148.855 155.22 147.24 156.47 145.33 156.822C141.788 157.462 139.084 152.927 141.025 150.332C143.559 146.943 149.615 148.897 149.088 153.299H149.085ZM154.69 143.765C148.129 130.317 141.236 116.793 134.285 103.493C134.048 103.05 134.816 102.641 135.06 103.07C142.627 116.447 149.155 129.44 155.869 143.317C156.219 144.045 155.042 144.492 154.69 143.765Z" fill="#64876F"/>
<path fill-rule="evenodd" clip-rule="evenodd" d="M35.4306 84.8041C34.7128 84.1054 32.2271 85.1696 31.657 83.7085C31.2792 82.7474 33.802 81.8316 34.2195 81.0949C34.2566 81.0308 34.274 80.9571 34.2697 80.8832C34.2654 80.8092 34.2394 80.7381 34.195 80.6787C34.1507 80.6193 34.0899 80.5743 34.0202 80.5491C33.9504 80.524 33.8749 80.5198 33.8028 80.5372C33.126 80.8256 32.499 81.219 31.9449 81.7029C29.4914 83.414 30.9327 85.2843 32.996 85.5475C33.5339 85.611 35.0783 85.7652 35.4561 85.4385C35.4991 85.3969 35.5332 85.3471 35.5565 85.2921C35.5798 85.237 35.5919 85.1778 35.5919 85.118C35.5919 85.0582 35.5798 84.9991 35.5565 84.944C35.5332 84.889 35.4991 84.8391 35.4561 84.7975L35.4306 84.8041ZM42.0487 81.6007C42.1898 81.9463 41.043 83.6384 40.5687 83.433C39.3642 82.933 33.5982 80.1206 33.8094 79.1537C34.1059 78.4349 34.5413 77.7817 35.0907 77.2315C35.3217 76.9749 35.7317 77.2892 35.6294 77.5837C35.5007 78.0127 34.5915 79.0638 34.6295 79.1983C34.7194 79.5118 40.2543 82.4785 40.6454 82.6517C40.8566 82.3217 41.0488 81.8118 41.2864 81.4967C41.3254 81.4526 41.3727 81.4166 41.4256 81.3907C41.4785 81.3649 41.536 81.3497 41.5948 81.3461C41.6535 81.3425 41.7124 81.3506 41.7681 81.3697C41.8238 81.3889 41.8751 81.4189 41.9192 81.4579C42.0652 81.5924 42.0322 81.7013 42.0487 81.6007ZM39.6818 84.0097C39.0416 83.9453 39.0416 85.2076 38.8683 85.8865C38.7273 86.3675 38.5614 86.8476 38.3948 87.3286C38.2281 87.8096 39.0672 88.5331 39.8105 86.1299C39.9408 85.6943 40.4985 84.0922 39.6818 84.0097ZM36.0435 89.5825C36.5582 89.3563 37.0124 89.0121 37.3693 88.5777C37.9014 87.8855 38.8238 88.4614 37.8503 89.4811C36.2316 91.1624 35.0098 90.0487 36.0394 89.5825H36.0435ZM34.6592 88.5967C34.4604 88.6792 34.2112 88.8442 34.2558 89.1024C34.4348 90.1988 37.517 88.3277 36.5658 87.6298C36.1376 87.3113 35.8563 88.02 34.6443 88.5967H34.6592ZM34.7557 86.8411C34.3069 86.4376 33.7756 87.3476 32.949 87.7065C32.6734 87.8211 32.1091 87.9499 32.199 88.3467C32.4465 89.4621 35.5626 87.5522 34.7615 86.8287L34.7557 86.8411ZM31.9623 86.5531C32.3789 86.2009 32.7114 86.1175 32.8467 86.4376C33.2303 87.3088 31.3089 88.0876 30.4311 87.2832C29.7455 86.643 29.88 85.0797 30.6233 85.361C30.9434 85.4831 30.8155 86.0854 30.9624 86.3997C31.0089 86.4857 31.0745 86.56 31.1541 86.6168C31.2338 86.6735 31.3254 86.7113 31.4219 86.7273C31.5184 86.7432 31.6173 86.7368 31.7109 86.7086C31.8046 86.6805 31.8906 86.6312 31.9623 86.5647V86.5531Z" fill="#191919"/>
<path fill-rule="evenodd" clip-rule="evenodd" d="M57.4773 61.1827C54.5172 52.8502 55.4395 37.6058 56.8296 32.8521C56.9839 32.3076 50.5126 35.6068 49.1415 38.7014C47.7703 41.796 45.0453 57.0568 44.0677 59.3371C43.0901 61.6174 35.5529 75.6358 35.3103 75.8858C35.0678 76.1358 42.7172 81.7928 43.2419 81.4273C43.5942 81.1798 45.7532 78.4482 47.2464 76.4773C49.0499 57.3926 48.2265 56.9801 49.6167 47.5644C49.6155 47.5253 49.6226 47.4865 49.6376 47.4504C49.6526 47.4144 49.6751 47.3819 49.7036 47.3552C49.732 47.3285 49.7659 47.3081 49.8028 47.2954C49.8398 47.2828 49.879 47.2781 49.9179 47.2818C49.9567 47.2854 49.9944 47.2973 50.0283 47.3166C50.0623 47.3359 50.0917 47.3622 50.1147 47.3938C50.1378 47.4254 50.1538 47.4615 50.1618 47.4997C50.1698 47.5379 50.1696 47.5774 50.1612 47.6155C49.8312 51.2785 48.7826 73.0981 48.6943 74.5427C48.5598 76.7339 47.022 87.5158 47.4131 88.0991C47.7208 88.5281 51.8978 88.8878 52.9356 88.0991C53.9735 87.3104 56.9707 79.4284 57.3378 78.8781C56.3363 76.2703 56.5797 65.7119 57.4773 61.1827ZM100.047 57.9214C101.668 60.4839 108.44 74.8867 108.523 75.7002C108.607 76.5136 101.559 80.3895 100.995 80.0727C100.432 79.7559 90.6827 64.825 89.3866 63.2039C87.3769 60.6893 76.8507 53.7502 73.2603 52.0573C72.9138 51.8923 72.5748 52.4096 72.9015 52.6398C74.9004 54.0497 76.9563 55.203 79.0642 56.6955C80.3974 73.6905 84.6899 87.3583 83.9845 87.9861C83.4466 88.4662 65.3222 89.0429 63.6895 88.5562C62.0568 88.0694 58.3526 81.1114 57.9228 77.549C57.4929 73.9867 57.3337 64.665 58.4739 60.8914C61.6394 50.3718 70.0065 32.9074 71.7168 32.6574C73.427 32.4075 80.4873 36.5019 82.2363 37.8277C86.9933 41.3818 100.82 58.3067 100.05 57.9214H100.047ZM59.9498 67.9477C59.9637 68.1704 60.0583 68.3804 60.216 68.5383C60.3737 68.6963 60.5836 68.7912 60.8064 68.8054C61.0291 68.8196 61.2494 68.752 61.4258 68.6153C61.6023 68.4787 61.7228 68.2823 61.7648 68.0632C62.0321 65.5774 59.5274 65.8975 59.9498 67.9477ZM62.0065 75.0336C62.4504 73.6311 60.6543 72.1634 60.3219 74.1558C60.0397 75.8173 61.5932 76.3379 62.0065 75.0336ZM74.4096 40.1493C75.3327 39.7005 73.6473 35.408 73.3016 34.6713C73.1217 34.2934 72.6606 34.4345 72.8148 34.8511C73.3918 36.3241 73.7353 37.8781 73.8329 39.4571C73.0489 39.7521 72.2904 40.1108 71.565 40.5296C68.2914 42.324 69.0669 42.0971 70.5337 45.6553C70.8093 46.2955 71.0914 46.7278 70.5915 47.2888C66.9144 51.4336 62.5642 56.7004 60.4052 61.7164C60.2402 62.0943 60.6807 62.2552 60.8721 61.9087C64.319 55.7005 66.7923 52.9392 71.1236 47.9868C72.1136 46.8466 71.8083 46.7055 70.848 44.2454C69.9405 41.9453 69.297 42.6185 74.4228 40.1517L74.4096 40.1493ZM54.914 58.4338C50.7197 46.5942 50.789 48.1658 51.9291 45.8063C52.1725 45.294 52.8705 44.4673 52.6659 44.1472C51.3838 42.1029 50.558 41.8851 51.3838 40.2194C52.128 38.6887 53.0391 37.245 54.1005 35.9145C54.3571 35.5845 54.7416 35.8502 54.5238 36.1835C53.4827 37.6816 52.5595 39.2582 51.7625 40.8992C51.397 42.1227 53.806 43.7496 53.495 44.4096C51.5736 48.382 51.68 46.9151 53.1171 51.3099C53.8926 53.6545 54.7127 55.9868 55.4049 58.357C55.536 58.7027 55.0534 58.8223 54.914 58.4338Z" fill="#191919"/>
<path fill-rule="evenodd" clip-rule="evenodd" d="M100.396 141.517C99.8431 140.883 89.0628 115.07 88.4993 113.532C87.9358 111.994 81.4868 92.2295 81.0091 89.6225C78.9714 89.87 65.1972 90.4747 63.2815 89.6225C61.7891 88.9814 58.3357 83.4721 57.8035 80.7686C56.6366 83.5851 55.2419 86.3018 53.6332 88.8915C53.0557 89.6546 49.6286 89.8658 48.2896 89.469C48.1362 89.969 41.7169 115.795 41.3134 118.543C40.91 121.291 37.0845 146.469 36.8287 148.655C36.7388 149.296 46.7395 150.417 46.8038 149.563C46.8682 148.709 53.6397 122.187 54.0432 121.135C54.4466 120.083 61.6282 104.775 64.8127 99.4177C63.3459 96.055 63.4482 95.0039 60.0459 93.6905C59.5723 93.5049 59.8157 93.0495 60.2934 93.1716C62.8938 93.8126 63.7658 94.7028 64.7203 96.734C67.7827 103.223 70.9078 113.622 74.3621 118.792C75.4511 120.432 90.8621 145.982 91.8406 146.891C92.819 147.801 100.933 142.132 100.396 141.517Z" fill="#191919"/>
<path fill-rule="evenodd" clip-rule="evenodd" d="M42.1258 97.6357C41.7595 96.9064 20.9835 84.1824 19.7922 84.3425C18.2247 84.5215 3.89032 102.371 4.12792 103.459C4.36552 104.548 32.7785 121.059 33.752 120.879C34.7255 120.699 42.4871 98.3609 42.1258 97.6357ZM38.4801 92.0496C37.8976 94.5164 37.0454 93.7153 37.1477 93.1708C37.3127 92.2352 37.5643 91.3063 37.7887 90.3897C37.9612 89.7495 38.4735 89.634 38.7111 90.0251C38.9487 90.4161 38.5634 91.5686 38.4545 92.0496H38.4801ZM29.825 84.227C30.0403 84.6395 29.6138 84.557 29.005 84.7715C27.5117 85.316 27.3005 87.5649 26.4937 87.1037C25.7883 86.6912 28.0051 84.1247 28.5949 83.8293C28.811 83.72 29.0614 83.7005 29.2918 83.775C29.5222 83.8495 29.7138 84.0119 29.825 84.227ZM36.0711 108.098L33.0087 106.424C32.7987 106.936 32.523 107.419 32.1886 107.86C31.4354 107.667 30.7277 107.327 30.1063 106.86C30.1063 106.809 30.3819 106.047 30.7474 105.175L19.6701 99.1479C19.334 99.7626 18.9255 100.335 18.4532 100.852C17.5872 100.549 16.7853 100.086 16.0888 99.4886C16.3969 98.8824 16.7459 98.2978 17.1332 97.7388C15.8132 96.9963 14.4932 96.2456 13.1996 95.4709C12.7186 95.1887 13.1996 94.5287 13.6476 94.7597C15.0187 95.4321 16.3643 96.1367 17.7099 96.8478C18.0283 96.3065 18.3994 95.798 18.8179 95.3298C19.6379 95.6195 20.3995 96.0534 21.0668 96.611C20.8488 97.1607 20.574 97.686 20.2468 98.1785L31.1368 104.105C31.3258 103.522 31.6023 102.971 31.9568 102.471C32.7767 102.755 33.548 103.163 34.2437 103.681C34.0377 104.267 33.7895 104.837 33.5012 105.387L36.7047 107.119C37.321 107.489 36.7121 108.444 36.0711 108.098Z" fill="#64876F"/>
</svg>
