<svg width="157" height="99" viewBox="0 0 157 99" fill="none" xmlns="http://www.w3.org/2000/svg">
<path d="M150.305 40.5085C155.24 46.0558 152.171 46.3454 146.212 45.706C143.387 45.4008 142.644 44.7325 144.621 48.1563C147.58 53.2803 149.279 57.3261 141.561 53.9313C136.679 51.7813 135.364 51.0652 135.992 56.8518C136.906 65.2668 132.767 61.659 129.924 57.1339C126.761 52.1014 127.129 52.3827 123.245 56.9178C118.42 62.5509 117.883 61.5295 115.83 54.729C114.81 51.3564 115.803 50.892 116.903 54.4254C118.705 60.2326 119.123 59.6774 122.28 56.0886C126.771 50.9819 127.282 50.5306 131.005 56.4558C133.003 59.6345 135.454 63.6844 134.728 56.9887C133.958 49.9003 136.378 50.2559 142.078 52.7647C147.866 55.3123 146.101 53.2663 143.52 48.7965C140.938 44.3266 141.248 44.1682 146.282 44.4372C151.433 44.7111 153.068 45.5352 149.355 41.3624C144.96 36.4239 145.875 35.8902 151.554 33.5249C157.561 31.026 155.322 30.6712 150.554 29.1936C145.036 27.4834 144.16 27.2087 148.189 22.5037C152.94 16.9581 151.329 17.3953 145.014 18.6196C138.434 19.8951 138.803 19.6096 138.948 12.6796C139.024 9.00753 139.799 7.38971 136.013 10.8275C130.745 15.6125 129.792 15.459 127.063 9.0001C124.552 3.05433 124.488 3.49241 121.896 8.82191C118.987 14.8073 118.817 15.2668 114.209 10.6089C109.923 6.27431 108.296 5.63658 110.261 11.9008C112.28 18.3358 111.296 18.6798 104.87 17.6329C99.7551 16.7997 99.7402 17.048 103.591 21.0872C107.702 25.3986 108.223 26.4786 101.968 27.212C101.134 27.3102 100.871 26.415 101.688 26.2311C106.563 25.133 106.081 25.5455 102.669 21.9658C97.9211 16.9853 97.6818 15.1695 105.075 16.3748C110.532 17.2633 110.69 17.5298 109.045 12.2828C106.259 3.39753 109.575 4.11033 115.116 9.71291C118.965 13.6053 118.242 13.4254 120.75 8.26503C123.848 1.89191 125.168 1.23768 128.237 8.50428C129.97 12.5971 130.634 13.9905 135.156 9.88368C140.147 5.35113 140.436 6.59028 140.211 12.8446C140.04 17.6634 139.227 18.4414 144.771 17.3681C152.299 15.9103 155.001 16.5117 149.158 23.3328C145.932 27.099 146.18 26.3185 150.973 27.9908C157.655 30.3214 159.523 31.5886 152.045 34.7022C147.108 36.7506 146.716 36.4751 150.305 40.5085ZM127.896 96.413C110.704 97.0251 50.8507 96.7075 26.5759 97.6505C25.8392 97.6794 25.7253 98.8179 26.505 98.8278C39.5037 98.9928 53.2812 98.6446 66.105 98.4977C86.2655 98.2676 107.691 98.7362 127.815 97.7553C128.66 97.7181 128.78 96.3825 127.896 96.413ZM84.3977 60.9231C72.7297 60.8002 60.0783 61.1847 48.2231 61.1005C45.8248 61.0832 45.4486 60.8959 45.1764 63.5607C44.3233 71.9105 43.5041 90.1512 43.4199 95.4345C43.4109 96.0046 44.3547 96.0409 44.419 95.4774C45.1153 89.4112 45.6788 73.3163 46.729 62.4098C57.5019 62.4783 74.001 62.2596 85.485 62.371C86.5097 73.7758 86.5575 84.3787 87.5211 94.7737C87.5238 94.8707 87.5468 94.9661 87.5886 95.0537C87.6304 95.1413 87.6901 95.2192 87.7638 95.2823C87.8376 95.3455 87.9237 95.3924 88.0167 95.4202C88.1097 95.448 88.2075 95.456 88.3038 95.4436C88.4001 95.4313 88.4927 95.3989 88.5757 95.3486C88.6587 95.2982 88.7303 95.2311 88.7857 95.1514C88.8411 95.0717 88.8793 94.9813 88.8976 94.886C88.916 94.7907 88.9142 94.6926 88.8923 94.598C87.9749 84.2343 87.5871 73.4211 86.7605 63.2587C86.5848 61.1739 86.6557 60.9479 84.3977 60.9231ZM65.6298 27.7911C64.2099 22.0986 61.3686 13.4906 59.2723 7.89213C58.6948 6.34361 58.6123 6.13818 56.9945 6.71898C45.6491 10.8003 27.3184 16.8376 15.9425 20.9148C15.4277 21.0987 15.6884 21.9996 16.2213 21.8412C28.1063 18.3045 45.3438 11.9652 57.9358 7.70568C60.3349 15.1307 62.3908 20.994 64.6488 28.4718C50.6362 33.2114 36.1393 37.9518 22.3016 43.113C21.8553 43.278 22.1366 44.042 22.5969 43.9026C36.5114 39.6439 50.6024 34.533 64.4376 29.8107C65.916 29.3067 66.0365 29.4131 65.6298 27.7911ZM27.3275 35.7755C26.0204 36.1025 24.7599 36.5937 23.5762 37.2374C22.842 37.6499 23.4937 38.5277 24.0646 38.3767C25.3549 38.036 26.4497 37.602 27.6517 37.1582C28.8925 36.697 28.6607 35.4554 27.3275 35.7755ZM29.5467 27.9C29.7017 27.8423 29.8309 27.7309 29.9108 27.5861C29.9907 27.4413 30.016 27.2726 29.9821 27.1107C29.9483 26.9488 29.8576 26.8044 29.7264 26.7037C29.5952 26.603 29.4322 26.5527 29.2671 26.5619C26.7075 27.1513 24.2172 28.0085 21.8371 29.1194C20.1673 29.8734 20.7646 31.0029 22.2752 30.4724C24.5893 29.6573 27.3852 28.824 29.5467 27.8967V27.9ZM32.8921 19.9058C28.5922 21.3908 23.5275 22.936 19.3761 24.6322C19.2355 24.7069 19.1266 24.8298 19.0695 24.9784C19.0124 25.1271 19.011 25.2913 19.0654 25.4409C19.1199 25.5905 19.2266 25.7154 19.3659 25.7925C19.5051 25.8696 19.6676 25.8938 19.8233 25.8606C24.4738 24.5827 28.8884 22.7512 33.4655 21.291C35.5998 20.6054 34.5669 19.3233 32.8921 19.9025V19.9058ZM32.7948 35.193C34.9313 34.5738 37.0256 33.8173 39.0648 32.9284C40.4747 32.2866 39.9805 31.059 38.3701 31.6241C36.2889 32.3004 34.2526 33.1078 32.2734 34.0413C31.3923 34.4984 31.6653 35.5115 32.7948 35.193ZM6.72476 24.0819C6.66784 25.6874 13.0773 45.2985 13.9089 46.4675C16.2867 45.8136 18.6258 45.0258 20.9148 44.108C20.3925 42.5149 15.2899 24.2915 14.4492 21.5781C11.8204 22.2303 9.24085 23.067 6.72971 24.0819H6.72476ZM1.36226 21.3594C3.70609 20.4552 6.00536 19.4471 8.30711 18.4505C8.61759 19.2701 8.98877 20.0654 9.41756 20.8298C9.83006 21.3916 10.396 21.0484 10.3713 20.4627C10.1283 19.6052 9.83155 18.764 9.48274 17.9439C22.7949 12.2333 36.249 6.95741 49.8417 1.96286C50.3062 3.18716 51.0908 5.37258 51.6089 6.51273C51.9851 7.33773 52.8555 6.9508 52.6096 6.08373C52.2441 4.79755 51.6279 3.10961 51.1766 1.89768C50.5554 0.229532 50.2097 0.382981 48.841 0.884581C33.3211 6.57048 15.7824 13.5888 1.03226 20.1673C0.0422608 20.6079 -0.0798392 21.0979 0.387936 22.3478C2.67071 28.4454 5.20841 34.7492 8.17429 41.336C8.95969 43.0784 10.2945 42.708 9.31691 40.4796C6.32794 33.6651 4.03031 27.8274 1.37051 21.3586L1.36226 21.3594ZM106.117 95.1284C106.344 95.3182 115.432 95.0806 115.734 94.4487C116.076 93.7359 115.546 86.1162 115.28 86.1162C115.014 86.1162 105.996 95.0196 106.126 95.1276L106.117 95.1284ZM88.5499 59.571C88.776 60.2244 88.9187 65.5332 89.1654 65.6463C89.412 65.7593 105.048 46.9617 105.048 46.6209C105.048 46.2802 97.4748 46.1928 96.6498 46.3627C95.8248 46.5327 86.2952 58.2658 86.1978 58.7154C86.1723 58.859 88.3321 58.9159 88.5582 59.5685L88.5499 59.571ZM90.3864 90.4722C90.2354 91.2295 90.6141 95.2448 90.8814 95.4716C91.1487 95.6985 95.0468 95.6235 95.5014 95.4716C95.9559 95.3199 114.677 77.0354 114.942 76.316C115.206 75.5966 114.677 67.4885 114.336 67.2649C113.995 67.0413 90.5448 89.7305 90.3946 90.473L90.3864 90.4722ZM65.2998 58.3178C65.5555 58.4316 74.9828 46.4485 74.8128 46.1903C74.6429 45.9321 65.6974 45.9354 65.4417 46.1903C65.1859 46.4452 64.8171 58.1025 65.2998 58.3178ZM72.0012 59.0034C72.257 59.2063 79.1243 59.1981 79.6638 58.8854C80.2034 58.5727 89.7206 46.3058 89.5218 46.1358C87.0722 45.9934 84.6164 45.9934 82.1669 46.1358C81.6579 46.253 71.6118 58.6923 72.0029 59.0034H72.0012ZM89.6373 73.0556C89.4863 73.6232 89.8072 81.6876 90.1859 81.5745C90.5646 81.4615 114.039 57.2255 114.152 56.813C114.054 53.5957 113.788 50.3858 113.358 47.196C113.169 47.1605 89.7346 72.6893 89.6373 73.0556ZM132.887 23.9846C131.555 25.1594 118.45 37.9749 116.183 40.6149C115.791 41.072 116.601 41.6734 116.997 41.3343C119.554 39.1431 132.517 25.9596 133.662 24.6693C134.117 24.1545 133.371 23.5589 132.887 23.9846ZM123.862 25.0191C124.38 29.866 117.248 32.3163 115.192 28.527C114.756 27.6312 114.578 26.631 114.68 25.6396C114.782 24.6481 115.16 23.705 115.77 22.917C117.894 20.2094 123.433 21.008 123.862 25.0191ZM122.393 24.6479C121.764 22.4336 117.773 21.682 116.453 24.4004C116.129 25.007 115.979 25.6917 116.02 26.3785C116.061 27.0652 116.292 27.727 116.687 28.2903C118.445 30.2983 123.357 28.0345 122.39 24.6479H122.393ZM135.477 38.545C135.499 43.0066 129.609 45.1335 126.834 41.7543C126.198 41.0082 125.836 40.0675 125.808 39.0877C125.78 38.1079 126.087 37.1478 126.678 36.3662C129.485 32.987 135.453 33.7864 135.477 38.545ZM127.431 37.6152C127.16 38.2292 127.093 38.9139 127.24 39.5687C127.387 40.2234 127.74 40.8137 128.248 41.2527C130.659 43.3391 134.84 41.039 134.045 38.0352C133.153 34.6626 128.671 35.1609 127.431 37.6152Z" fill="#64876F"/>
</svg>
