<svg width="165" height="165" viewBox="0 0 165 165" fill="none" xmlns="http://www.w3.org/2000/svg">
<path d="M132.473 127.84C132.845 128.276 133.561 127.725 133.182 127.286C120.33 112.263 107.131 97.3752 94.0204 81.6432C93.7663 81.3372 93.2779 81.7109 93.5031 82.0219C106.24 97.4948 119.634 112.816 132.473 127.84Z" fill="#64876F"/>
<path d="M130.257 131.321C130.563 131.74 133.727 135.495 134.784 136.697C135.665 136.625 140.794 136.645 142.633 136.697C142.385 136.257 135.344 129.383 134.536 128.648C133.728 127.913 129.847 130.762 130.257 131.321Z" fill="#64876F"/>
<path d="M130.156 129.342C123.577 121.221 115.921 112.024 109.135 103.825C108.897 103.539 108.451 103.99 108.674 104.264C115.46 112.553 122.699 121.53 129.456 129.86C129.809 130.285 130.503 129.773 130.156 129.342Z" fill="#64876F"/>
<path d="M92.6886 84.383C92.4931 84.1792 92.1243 84.4655 92.3001 84.699C95.1496 88.5682 99.6921 93.7798 103.065 97.7686C103.36 98.1209 103.997 97.6234 103.697 97.2505C100.599 93.505 95.8839 87.697 92.6886 84.383Z" fill="#64876F"/>
<path d="M150.752 137.879C150.166 137.767 129.943 137.549 129.747 137.879C129.55 138.209 127.881 141.199 128.079 141.505C128.409 142.023 152.125 141.846 152.716 141.505C153.306 141.163 151.342 137.99 150.752 137.879Z" fill="#64876F"/>
<path d="M74.408 64.2842C74.0656 64.6785 73.5896 65.1389 73.0195 65.8385C74.4649 68.1798 82.342 75.5619 89.145 76.3647C83.0639 69.7655 76.1743 64.9739 74.408 64.2842Z" fill="#64876F"/>
<path d="M44.159 121.39C35.7193 114.455 23.091 111.636 16.7459 113.869C11.6483 115.651 11.918 123.468 12.1144 127.787C23.2313 122.96 28.4114 135.071 23.2313 140.645C25.3911 140.707 36.2663 141.069 48.044 140.35C59.8217 139.63 51.669 127.561 44.159 121.39ZM49.6502 130.285C47.5877 130.832 28.9295 131.176 25.6502 130.424C25.3086 130.352 25.2104 129.497 25.6089 129.517C35.5757 129.905 44.7233 129.636 49.6082 129.341C49.9926 129.305 50.0396 130.181 49.6502 130.285Z" fill="#64876F"/>
<path d="M44.8026 80.3789C41.1075 88.671 33.9242 99.297 21.8495 94.2389C7.65041 88.2866 13.517 73.3054 24.3352 71.544C33.4424 70.0838 39.125 73.8755 43.9323 80.138C44.4185 78.811 45.0435 77.5389 45.7968 76.343C43.2434 72.548 37.1409 66.179 24.2841 68.0543C9.90926 70.1993 2.51148 89.7749 20.9478 97.4309C34.2864 102.969 43.4917 93.5723 48.2371 81.3731C50.397 75.8175 56.5251 67.485 62.2901 66.8646C61.8298 65.4918 62.0732 64.4086 62.7101 62.4971C54.5154 64.2848 49.5687 69.682 44.8026 80.3789Z" fill="#64876F"/>
<path d="M47.4526 85.6524C53.2441 94.5674 50.5603 110.694 43.3086 119.215C44.6344 120.147 45.6186 121.132 46.748 121.914C54.3166 111.823 58.4968 93.749 49.4161 81.0762C48.8863 82.6522 48.2297 84.1826 47.4526 85.6524Z" fill="#64876F"/>
<path d="M160.388 142.872C140.062 142.955 10.2384 142.821 4.53846 142.981C4.42502 142.993 4.31998 143.046 4.24362 143.131C4.16726 143.216 4.125 143.326 4.125 143.44C4.125 143.554 4.16726 143.664 4.24362 143.748C4.31998 143.833 4.42502 143.887 4.53846 143.898C13.2298 144.146 132.404 143.911 160.42 144.012C160.555 143.987 160.676 143.914 160.763 143.807C160.849 143.7 160.894 143.566 160.89 143.429C160.887 143.291 160.834 143.16 160.742 143.058C160.65 142.956 160.525 142.89 160.388 142.872Z" fill="#191919"/>
<path d="M108.232 42.1701C108.272 42.2072 108.325 42.2282 108.381 42.2293C108.436 42.2304 108.489 42.2116 108.532 42.1762C108.574 42.1408 108.602 42.0912 108.611 42.0368C108.62 41.9823 108.608 41.9265 108.579 41.8797C108.2 41.1372 107.085 41.4309 107.376 41.8731C107.522 42.0991 107.949 41.9176 108.232 42.1701Z" fill="#191919"/>
<path d="M104.438 40.2116C104.665 40.3766 104.873 40.3255 105.098 40.7297C105.116 40.7909 105.157 40.8425 105.213 40.8731C105.269 40.9037 105.335 40.9109 105.396 40.8931C105.457 40.8753 105.509 40.8339 105.539 40.778C105.57 40.7222 105.577 40.6564 105.559 40.5953C105.529 40.2793 105.244 39.7249 104.695 39.7975C104.412 39.847 104.22 40.0574 104.438 40.2116Z" fill="#191919"/>
<path d="M106.46 37.7027C105.024 37.4114 104.056 38.2876 105.424 38.3552C105.828 38.3552 106.222 38.4897 106.626 38.4955C106.916 38.498 107.289 37.8677 106.46 37.7027Z" fill="#191919"/>
<path d="M109.477 40.7352C109.578 40.5301 109.638 40.3067 109.652 40.0782C109.666 39.8496 109.635 39.6206 109.559 39.4045C109.3 38.4871 108.663 39.2024 108.817 39.5695C108.996 39.9134 109.07 40.3025 109.029 40.6882C109 40.8911 109.322 41.0388 109.477 40.7352Z" fill="#191919"/>
<path d="M104.042 44.1802C103.575 43.8293 103.259 43.3147 103.156 42.7398C103.084 41.6161 102.638 42.1078 102.565 42.5533C102.544 42.9731 102.641 43.3904 102.847 43.7572C103.052 44.1239 103.357 44.425 103.726 44.6257C104.093 44.7495 104.244 44.3667 104.042 44.1802Z" fill="#191919"/>
<path d="M105.857 42.9681C105.445 42.8328 104.893 42.5325 104.775 42.8031C104.604 43.1967 106.184 43.8394 106.266 43.3213C106.406 42.4715 106.831 41.7669 106.52 41.6275C106.08 41.4345 105.899 42.6885 105.857 42.9681Z" fill="#191919"/>
<path d="M98.6343 64.4964C100.436 61.0794 101.402 57.2841 101.452 53.4216C101.452 52.5612 100.588 50.7429 99.8982 50.4632C99.0798 50.1266 99.3388 53.3853 97.5057 56.1615C96.5982 57.545 94.9944 58.4979 93.5283 57.2595C90.7357 54.9132 93.4029 50.4426 92.3156 46.0651C92.2125 45.6353 92.2686 45.6303 91.4609 45.3663C90.9364 45.2076 90.3961 45.1069 89.8497 45.066C89.037 45.024 89.1253 45.3606 88.9842 45.9463C87.3738 52.7113 86.9127 55.0791 80.4735 58.9384C80.2145 59.0886 80.4422 59.487 80.7012 59.3839C86.0679 57.2439 88.7524 52.991 89.782 45.8061C90.455 45.8334 91.1157 45.9955 91.7249 46.2829C91.9996 49.3915 90.9222 54.5139 92.1135 56.6433C93.6108 59.3212 96.5577 59.4252 98.3661 56.343C99.1786 54.9113 99.7492 53.3553 100.055 51.7378C100.417 52.3353 100.669 52.9931 100.797 53.6799C100.578 57.1403 99.6988 60.5269 98.2077 63.6574C96.1353 67.6826 91.9188 70.3449 88.1526 72.6705C87.7278 72.9345 88.1526 73.5723 88.5874 73.3132C92.3453 70.9974 96.4868 68.4573 98.6343 64.4964Z" fill="#191919"/>
<path d="M118.987 73.4323C119.368 73.5622 119.719 73.7665 120.019 74.0334C120.32 74.3002 120.565 74.6243 120.739 74.9866C120.936 75.3991 121.257 76.7686 121.625 75.4272C121.763 74.9254 122.026 74.4665 122.388 74.0926C122.75 73.7187 123.2 73.4417 123.697 73.2871C124.96 72.9868 124.81 72.8111 123.785 72.557C121.598 72.0389 121.78 70.8839 121.448 68.5681C121.36 67.9774 120.93 68.0087 120.842 68.7389C120.697 69.827 120.537 72.0958 119.241 72.5256C118.454 72.7847 117.377 72.8565 118.987 73.4323ZM121.184 71.2312C121.255 71.6305 121.439 72.001 121.714 72.2986C121.99 72.5961 122.345 72.8081 122.738 72.9092C122.073 73.273 121.555 73.8561 121.272 74.5592C120.933 73.9201 120.414 73.3942 119.78 73.0462C120.142 72.8781 120.459 72.6256 120.703 72.3097C120.948 71.9939 121.113 71.624 121.184 71.2312Z" fill="#191919"/>
<path d="M36.1352 56.9494C36.7748 57.1311 37.3502 57.4894 37.7954 57.9832C38.2406 58.477 38.5376 59.0863 38.6523 59.7412C38.8652 60.8285 39.3519 60.6784 39.5285 59.7981C39.6078 58.9979 39.975 58.2537 40.5618 57.704C41.1486 57.1542 41.9151 56.8362 42.7187 56.8091C43.3094 56.7728 43.5635 55.9132 42.0719 55.8711C40.2429 55.8199 39.6266 54.0322 39.5903 52.0175C39.5903 51.1009 38.9303 51.2197 38.7876 51.8723C38.4147 53.5718 38.4353 56.0476 36.1971 56.1821C35.1452 56.2498 35.0792 56.6441 36.1352 56.9494ZM39.0929 54.2549C39.2214 54.7273 39.45 55.1666 39.7631 55.543C40.0763 55.9193 40.4667 56.224 40.9079 56.4362C40.0498 56.8789 39.3937 57.6331 39.0739 58.5441C38.6856 57.7529 38.0707 57.095 37.3076 56.654C37.7934 56.4513 38.2157 56.1216 38.5303 55.6995C38.8448 55.2774 39.04 54.7784 39.0953 54.2549H39.0929Z" fill="#191919"/>
<path d="M147.882 122.405C148.647 122.655 149.326 123.116 149.84 123.736C150.353 124.356 150.681 125.109 150.783 125.908C151.006 127.322 151.451 127.612 151.819 125.872C152.188 124.132 153.052 122.763 154.968 122.325C155.564 122.195 155.61 121.698 154.901 121.594C153.238 121.347 151.848 120.558 151.742 118.807C151.653 117.388 151.316 117.04 151.006 118.657C150.848 119.399 150.481 120.08 149.949 120.621C149.416 121.162 148.741 121.539 148.001 121.709C147.384 121.882 147.348 122.173 147.882 122.405ZM151.281 120.1C151.472 120.557 151.755 120.969 152.111 121.313C152.467 121.657 152.889 121.925 153.352 122.1C152.329 122.752 151.59 123.766 151.281 124.939C150.928 123.756 150.132 122.755 149.058 122.146C150.006 121.73 150.787 121.01 151.281 120.1Z" fill="#191919"/>
<path d="M92.0839 81.1671C92.7052 81.0995 92.7159 80.7266 92.461 80.5071C91.8661 79.989 90.9075 80.7975 90.7474 81.8024C90.6539 82.2108 90.6428 82.6338 90.7148 83.0466C90.7867 83.4594 90.9403 83.8537 91.1665 84.2064C91.2072 84.2494 91.2605 84.2783 91.3186 84.2892C91.3768 84.3001 91.4369 84.2922 91.4903 84.2669C91.5437 84.2415 91.5878 84.1999 91.6162 84.148C91.6446 84.0961 91.6558 84.0366 91.6483 83.9779C91.612 83.4078 91.0939 81.2752 92.0839 81.1671Z" fill="#191919"/>
<path d="M110.462 99.9761C110.675 100.141 111.084 99.9341 110.98 99.7014C110.514 98.8211 110.567 97.2404 109.214 96.2257C106.712 94.3447 107.193 94.9197 105.717 92.1485C103.263 87.6657 101.184 82.9877 99.5008 78.1623C98.7913 76.0594 99.0396 76.2302 99.5008 74.0183C100.661 68.5997 103.461 60.5502 102.231 55.4319C102.148 55.0953 101.635 55.2248 101.653 55.5507C101.983 62.767 100.168 66.9786 98.8408 73.7123C98.3788 76.0437 98.043 76.085 98.7154 78.4007C100.011 82.8863 103.156 88.8023 105.082 92.387C106.636 95.3141 106.258 94.8422 108.848 96.8263C109.939 97.7173 109.836 99.4886 110.462 99.9761Z" fill="#191919"/>
<path d="M94.4297 80.8448C93.9949 79.4134 93.1708 77.8096 91.6783 77.2552C90.4408 76.7891 87.9757 77.2552 86.2812 76.634C79.4477 74.2143 76.5371 71.0595 71.9691 65.8125C76.4703 60.6323 78.5881 58.7175 82.7485 56.5865C82.9861 56.4619 82.7485 56.1253 82.501 56.1666C79.3471 56.768 73.0375 62.6106 71.446 65.4891C71.1985 65.9346 71.2126 65.9651 71.446 66.4007C73.9631 70.7831 81.5473 76.2066 86.4107 77.4912C87.3075 77.7296 89.851 77.6883 90.9845 77.8797C92.5388 78.1388 93.3061 79.755 93.9009 81.0147C94.1088 81.3992 94.6186 81.466 94.4297 80.8448Z" fill="#191919"/>
<path d="M92.5704 76.2307C92.8509 75.6276 93.2304 73.1691 93.6058 72.0867C93.7353 71.6923 93.0877 71.392 92.9277 71.7806C92.5853 72.5371 91.7776 75.272 92.0581 76.168C92.1299 76.3495 92.4582 76.4699 92.5704 76.2307Z" fill="#191919"/>
<path d="M109.064 103.265C109.14 103.205 109.191 103.117 109.205 103.021C109.219 102.925 109.197 102.827 109.141 102.747C108.773 102.252 108.39 103.159 106.945 103.026C106.707 103.026 106.162 102.809 106.028 103.115C105.731 103.777 107.839 104.026 109.064 103.265Z" fill="#191919"/>
<path d="M104.725 102.042C105.76 102.615 108.236 102.674 108.768 101.431C108.907 101.101 108.52 100.877 108.25 101.038C107.749 101.36 107.18 101.561 106.589 101.626C105.997 101.69 105.398 101.616 104.84 101.41C104.559 101.31 104.442 101.887 104.725 102.042Z" fill="#191919"/>
<path d="M86.162 82.5292C87.6528 84.3749 89.7825 85.5933 92.1292 85.943C92.4972 85.9744 92.4345 85.3993 92.0302 85.3111C89.8317 84.8367 87.8836 83.5721 86.5555 81.757C80.3391 79.8974 70.633 75.9094 66.3529 70.8793C64.1823 68.2888 63.0323 66.2635 64.6122 63.2068C68.2801 56.1407 80.3185 47.5261 88.0364 46.5682C88.5545 46.5006 88.3837 45.7185 87.8763 45.7754C80.0182 46.6615 67.2645 55.6383 63.8202 63.0097C62.4416 65.9417 63.359 68.4126 65.3118 70.9297C69.6166 76.4778 79.515 80.5244 86.162 82.5292Z" fill="#191919"/>
<path d="M103.883 100.55C104.799 101.187 107.027 100.797 107.477 99.9723C107.502 99.9196 107.512 99.8615 107.506 99.8038C107.501 99.7461 107.481 99.6908 107.447 99.6434C107.414 99.5961 107.369 99.5584 107.316 99.5342C107.263 99.5099 107.205 99.5 107.147 99.5053C106.386 99.6249 106.065 100.588 103.92 100.023C103.583 99.9549 103.608 100.359 103.883 100.55Z" fill="#191919"/>
<path d="M105.673 98.5923C104.921 98.8294 104.115 98.8294 103.363 98.5923C102.868 98.5197 103.021 99.395 104.508 99.4932C106.527 99.6335 106.237 98.4356 105.673 98.5923Z" fill="#191919"/>
<path d="M100.074 108.912C99.3093 106.45 98.3118 104.067 97.0946 101.794C96.8471 101.359 96.2143 101.794 96.4627 102.24C98.4781 105.736 100.093 111.533 101.446 115.547C103.783 122.56 106.776 130.238 108.735 137.262C108.773 137.434 108.854 137.594 108.969 137.728C109.084 137.862 109.23 137.965 109.395 138.029C111.891 139.033 113.953 139.889 116.45 140.888C113.29 140.888 110.135 140.842 106.976 140.832C104.981 140.832 105.421 139.547 104.639 137.491C103.085 133.283 95.4859 122.877 92.2741 110.553C90.6373 108.771 89.1391 107 87.5444 105.191C87.3423 104.963 86.8605 105.191 87.0263 105.502C87.4768 106.362 91.0828 110.838 91.7354 110.972C93.5017 121.297 103.442 135.242 104.126 138.163C104.354 139.121 104.282 140.753 105.592 141.437C106.494 141.893 116.341 141.789 117.885 141.804C118.517 141.804 118.921 140.852 117.367 140.219C114.73 139.184 112.088 138.148 109.441 137.111C107.179 128.14 102.917 117.836 100.074 108.912Z" fill="#191919"/>
<path d="M59.2933 141.744C63.5833 141.731 67.8733 141.682 72.1707 141.651C72.5956 141.651 72.9841 140.614 71.8753 140.096C69.7636 138.97 67.5615 138.022 65.2918 137.263C66.0475 134.211 74.5318 121.898 79.0809 114.527C80.7804 111.767 81.117 111.683 81.4585 108.467C81.6756 106.98 81.7952 105.482 81.8166 103.98C81.8166 103.658 81.2985 103.561 81.2465 103.898C80.7804 105.841 80.7647 110.275 79.9356 111.627C76.0045 118.034 66.4105 131.689 64.3951 137.326C64.3018 137.59 64.2507 137.947 64.5922 138.046C66.9125 138.695 69.1457 139.622 71.2434 140.807L60.2824 140.942C59.2924 140.942 57.8371 141.46 59.8369 137.667C64.8694 128.135 64.9445 120.133 72.6475 111.316C72.782 111.161 72.9891 111.031 72.6475 110.036C72.0049 108.27 71.1972 105.022 70.9274 104.339C70.7822 103.976 70.2493 104.116 70.1973 104.515C70.617 106.667 71.2845 108.763 72.1864 110.762C64.8719 117.494 63.5255 129.011 59.3708 137.115C58.8577 138.082 56.7391 141.751 59.2933 141.744Z" fill="#191919"/>
<path d="M81.8213 102.97C82.6604 96.6859 81.3503 89.8276 80.4436 86.29C80.3809 86.0516 80.7736 85.927 80.8685 86.1655C82.1885 89.6626 82.94 95.7693 83.0745 99.712C83.9286 101.343 84.944 102.883 86.1056 104.311C89.8717 103.899 95.9478 101.514 96.7093 100.774C95.7977 96.836 92.0472 87.2272 91.3732 86.5796C89.0263 86.2736 86.8941 85.0565 85.4373 83.1913C81.6093 82.3119 68.7987 78.2413 63.9873 70.6299C60.3045 77.2555 63.5418 89.9671 69.7788 103.465C73.7989 103.51 77.8185 103.345 81.8213 102.97Z" fill="#191919"/>
<path d="M98.46 38.3057C98.37 38.9483 98.4411 39.6032 98.6671 40.2115C96.6186 42.1677 94.7496 44.3036 93.0826 46.5937C92.9275 46.8115 93.265 47.0804 93.4456 46.8841C95.5172 44.6665 97.0756 42.8119 99.3031 40.5019C99.4846 40.3204 99.247 40.1718 99.2099 39.9837C98.625 37.0055 100.334 35.9792 101.025 37.041C101.355 37.5591 100.978 37.9485 101.843 37.7406C103.356 37.2637 104.654 36.271 105.51 34.9356C107.153 35.9198 111.442 37.4634 111.986 37.3652C112.53 37.267 113.607 31.5275 108.614 29.2942C107.306 28.6835 105.848 28.4689 104.42 28.6767C102.992 28.8845 101.656 29.5057 100.576 30.4637C99.4967 31.4217 98.7211 32.6747 98.3451 34.0682C97.9691 35.4616 98.009 36.9347 98.46 38.3057Z" fill="#191919"/>
<path d="M98.9988 50.0383C99.719 48.847 100.232 47.7803 101.035 46.5832C101.368 46.9542 101.773 47.2536 102.226 47.4631C102.679 47.6726 103.169 47.7879 103.668 47.8019C104.166 47.816 104.663 47.7285 105.126 47.5448C105.59 47.3611 106.012 47.085 106.365 46.7333C108.882 44.5784 110.649 41.0928 111.597 37.9685C111.69 37.6583 111.208 37.4735 111.125 37.7879C110.331 40.7015 108.805 43.3636 106.692 45.5214C103.583 48.6292 100.994 46.6921 100.196 43.449C100.177 43.3933 100.139 43.3461 100.088 43.316C100.037 43.2859 99.9778 43.2748 99.9197 43.2848C99.8617 43.2947 99.8091 43.325 99.7714 43.3702C99.7337 43.4155 99.7134 43.4726 99.714 43.5315C99.8125 44.4292 100.116 45.2923 100.6 46.0544C99.7062 47.1904 99.006 48.4663 98.5277 49.8304C98.479 50.0696 98.8618 50.3031 98.9988 50.0383Z" fill="#191919"/>
<path d="M88.9546 38.1769C96.2971 36.6358 94.6117 26.8059 101.294 28.7719C102.199 28.141 103.262 27.7766 104.363 27.72C104.524 24.2599 102.664 20.9863 97.618 20.9863C91.6664 20.9863 89.7805 26.2234 89.9983 31.0975C90.1855 35.3248 88.4448 36.7958 86.7247 37.6299C85.0045 38.464 86.7643 38.6364 88.9546 38.1769Z" fill="#191919"/>
<path d="M16.2848 141.749C26.0016 141.308 25.9563 128.177 15.9482 128.565C6.91361 128.917 6.57123 142.189 16.2848 141.749Z" fill="#191919"/>
</svg>
