<svg width="165" height="165" viewBox="0 0 165 165" fill="none" xmlns="http://www.w3.org/2000/svg">
<path d="M52.6604 51.5998C51.4229 53.8191 48.9042 54.338 46.5678 54.4791C38.345 54.9691 29.6792 55.4402 21.4474 55.6209C18.7488 55.677 15.7549 55.3552 13.8574 53.2086C13.4837 52.806 12.9045 53.3892 13.2428 53.8158C15.8605 57.1488 20.5729 56.6983 24.2326 56.53C31.632 56.1918 39.1915 55.9467 46.5464 55.5087C49.2045 55.3519 52.3651 54.7043 53.5036 51.9694C53.7098 51.4752 52.9137 51.1452 52.6604 51.5998Z" fill="#64876F"/>
<path d="M111.995 39.958C109.18 44.4055 106.276 48.8044 103.45 53.2281C103.337 53.4088 103.248 54.1405 103.767 54.1892C105.469 54.346 112.534 54.2288 115.103 54.2214C115.742 54.2214 115.802 53.2396 115.143 53.2396C111.665 53.2396 107.937 53.1076 104.487 53.2718C107.278 49.2508 109.908 45.1093 112.53 40.9711C113.334 42.5386 115.795 48.7846 116.627 49.8175C116.868 50.1154 117.484 49.999 117.411 49.5403C117.267 48.6518 114.077 42.0766 113.446 40.7458C116.856 40.4884 123.543 40.3441 126.773 39.7732C124.667 42.946 122.755 46.2426 121.046 49.6451C120.842 50.1038 121.586 50.4775 121.851 50.0469C123.873 46.6369 125.9 43.2269 127.931 39.8169C129.069 41.8596 134.678 52.7257 135.82 53.7388C136.11 53.9962 136.532 53.6464 136.476 53.337C136.195 51.748 127.718 37.5448 126.371 35.1441C128.223 35.0985 130.071 35.3208 131.859 35.8041C133.549 36.3865 133.03 38.5266 130.629 38.5909C130.006 38.5909 129.969 39.5809 130.597 39.5677C133.882 39.4795 134.47 36.592 133.118 35.4295C131.767 34.2671 127.437 34.1186 125.744 34.2795C125.669 34.2974 125.598 34.3299 125.535 34.3752C125.473 34.4205 125.42 34.4776 125.38 34.5434C125.339 34.6091 125.312 34.6821 125.3 34.7583C125.288 34.8345 125.291 34.9123 125.309 34.9873C125.334 35.0888 126.932 38.072 127.219 38.5868C123.777 38.9119 115.875 39.5034 113.049 39.8936C112.631 39.0664 112.172 38.261 111.673 37.4805C111.436 37.1109 110.796 37.4244 110.977 37.8385C111.291 38.5662 111.637 39.2699 111.995 39.958Z" fill="#64876F"/>
<path d="M44.5728 100.141C40.7159 100.141 40.2828 104.331 44.4762 104.865C44.6802 103.299 44.7125 101.714 44.5728 100.141ZM12.9753 115.321C9.67526 117.009 7.34134 120.652 6.04526 124.03C8.77601 124.03 16.9353 124.078 24.5434 124.099C25.1985 116.089 20.5248 111.458 12.9777 115.317L12.9753 115.321ZM55.3151 113.788C56.2317 114.966 54.9414 116.12 54.4662 115.694C53.991 115.269 51.1752 111.63 45.3755 114.251C38.3902 117.4 40.0592 123.849 39.683 124.043C39.518 124.125 32.847 124.132 25.3791 124.115C25.9459 116.294 22.3794 111.215 13.7376 114.166C9.85346 115.494 6.38681 120.17 5.35309 124.038H5.11549C0.901388 124.083 11.4812 110.748 12.6147 110.467C13.7483 110.186 27.6867 110.467 29.5809 110.371C31.4751 110.274 29.8176 114.158 28.3021 115.816C26.7866 117.473 26.3675 122.032 27.1719 122.032C27.9762 122.032 35.3113 122.141 37.5834 121.719C37.7528 119.708 38.4476 117.778 39.5979 116.121C40.7483 114.464 42.3139 113.138 44.138 112.276C49.1119 109.719 53.9373 112.029 55.3085 113.797L55.3151 113.788ZM42.4187 112.179C41.6143 110.282 38.6311 104.177 38.3448 103.131C38.0586 102.086 39.2944 101.523 40.3801 102.661C41.4658 103.799 45.7286 109.474 46.3473 110.458C44.9609 110.833 43.6378 111.412 42.4212 112.176L42.4187 112.179Z" fill="#64876F"/>
<path d="M47.9231 116.317C39.7316 116.977 39.3497 130.444 49.2431 129.989C59.1365 129.535 57.9518 115.504 47.9231 116.317ZM36.1693 96.0101C36.0299 95.7263 35.5093 95.6075 35.3567 96.251C35.1314 97.1205 34.9103 97.9884 34.6851 98.853C34.6839 98.9374 34.7092 99.02 34.7574 99.0892C34.8057 99.1585 34.8745 99.2108 34.9541 99.2388C35.0337 99.2668 35.1201 99.269 35.2011 99.2453C35.282 99.2215 35.3535 99.1729 35.4053 99.1063C35.4878 98.8332 35.5703 98.5601 35.6528 98.3019C36.5206 99.1256 37.2454 100.088 37.7978 101.149C36.2429 102.476 34.3895 103.405 32.3966 103.859C31.9469 103.968 32.0996 104.753 32.5616 104.663C34.5652 104.287 36.4467 103.427 38.0429 102.159C38.9916 101.402 38.9116 101.439 38.6204 100.872C37.9353 99.5694 37.0118 98.4072 35.8979 97.4456C36.02 97.0075 36.3013 96.2848 36.1693 96.0101ZM30.2293 107.817C28.4932 107.753 26.7549 107.782 25.0219 107.905C24.9472 107.938 24.8837 107.992 24.8391 108.061C24.7945 108.129 24.7708 108.209 24.7708 108.291C24.7708 108.373 24.7945 108.453 24.8391 108.521C24.8837 108.59 24.9472 108.644 25.0219 108.677C26.7612 108.81 28.5066 108.846 30.2499 108.785C30.8373 108.766 30.7952 107.827 30.2293 107.817ZM22.919 107.873C21.434 107.841 13.8836 107.761 12.4415 108.017C11.9786 108.1 11.9267 108.866 12.4415 108.874C15.8957 108.918 19.3178 108.766 22.7919 108.874C23.423 108.874 23.5641 107.905 22.9247 107.888L22.919 107.873ZM21.6559 124.838C21.3787 125.704 20.8482 126.467 20.1328 127.028C19.4175 127.59 18.5502 127.924 17.6431 127.987C14.796 128.221 12.962 126.781 12.2344 124.911H10.0391C10.8434 127.854 13.5494 130.339 17.945 129.978C19.3491 129.867 20.6803 129.308 21.7418 128.382C22.8034 127.457 23.5389 126.214 23.8397 124.838H21.6559ZM49.1655 127.957C42.1852 128.291 42.45 118.8 48.2291 118.305C55.2977 117.746 56.1384 127.627 49.1655 127.957Z" fill="#191919"/>
<path d="M101.23 116.972C93.3884 117.651 93.0262 131.236 102.5 130.762C111.973 130.287 110.832 116.143 101.23 116.972ZM145.636 130.026C153.473 129.371 153.844 116.237 144.369 116.699C134.895 117.161 136.04 130.828 145.636 130.026ZM144.751 119.925C149.637 120.032 148.993 126.761 144.924 126.833C139.95 126.901 139.857 119.818 144.751 119.925ZM102.118 127.424C97.2279 127.32 97.8838 120.329 101.953 120.275C106.918 120.202 107.012 127.528 102.118 127.424Z" fill="#191919"/>
<path d="M23.1932 60.3901C22.5555 57.9745 18.6771 57.9332 18.0625 60.5023C17.5551 62.5978 20.2496 64.2148 22.0349 63.1811C22.5061 62.906 22.8744 62.4843 23.0835 61.9804C23.2926 61.4765 23.3312 60.9179 23.1932 60.3901ZM42.9255 60.5344C43.145 61.0533 43.5434 61.4762 44.0482 61.7262C44.553 61.9763 45.1308 62.0369 45.6766 61.8971C46.2223 61.7573 46.6997 61.4263 47.0221 60.9643C47.3445 60.5023 47.4904 59.9399 47.4333 59.3794C47.4779 55.709 41.7004 56.8566 42.9255 60.5344ZM46.2552 60.2573C46.1269 60.4809 45.9377 60.6636 45.7098 60.7842C45.4818 60.9048 45.2243 60.9583 44.9672 60.9385C44.71 60.9187 44.4638 60.8265 44.2569 60.6725C44.0501 60.5185 43.8911 60.309 43.7984 60.0683C43.7244 59.8298 43.7112 59.5765 43.76 59.3316C43.8089 59.0866 43.9183 58.8578 44.0782 58.6659C44.2381 58.474 44.4434 58.3252 44.6755 58.233C44.9077 58.1407 45.1592 58.108 45.4071 58.1378C46.497 58.2302 46.704 59.3803 46.2552 60.2573ZM21.6612 62.224C21.3139 62.4277 20.9126 62.5198 20.5113 62.4881C20.11 62.4564 19.7281 62.3023 19.4172 62.0467C19.217 61.8541 19.0771 61.6075 19.0144 61.337C18.9516 61.0664 18.9688 60.7834 19.0637 60.5224C19.1587 60.2614 19.3274 60.0336 19.5493 59.8666C19.7712 59.6995 20.0368 59.6006 20.3139 59.5816C22.4334 59.3481 22.7832 61.3957 21.6612 62.224Z" fill="#191919"/>
<path d="M114.016 36.407C113.634 35.6546 108.495 36.2255 107.678 36.3501C107.58 36.3773 107.494 36.4385 107.437 36.5228C107.38 36.607 107.354 36.7088 107.365 36.8102C107.376 36.9115 107.422 37.0058 107.496 37.0762C107.569 37.1466 107.665 37.1887 107.767 37.1949C108.17 37.1949 113.799 37.0579 113.799 37.0579C113.908 36.9951 113.99 36.8927 114.027 36.7717C114.063 36.6506 114.052 36.5201 113.996 36.407H114.016ZM133.238 43.9788C133.109 44.0065 132.996 44.0843 132.925 44.1951C132.853 44.3059 132.828 44.4405 132.856 44.5695C132.884 44.6985 132.962 44.8112 133.072 44.8829C133.183 44.9545 133.318 44.9792 133.447 44.9515C135.092 44.5799 136.806 44.6575 138.411 45.1761C140.016 45.6947 141.452 46.6353 142.568 47.8992C146.098 51.9211 144.884 59.2149 139.777 61.1694C137.586 62.0161 135.156 62.0077 132.97 61.1458C130.785 60.284 129.003 58.6317 127.98 56.5172C127.227 54.881 126.992 53.0541 127.305 51.2807C127.619 49.5072 128.466 47.8717 129.734 46.5924C130.136 46.1907 129.56 45.567 129.163 45.9489C127.883 47.1823 126.972 48.7467 126.529 50.4677C126.087 52.1888 126.131 53.9989 126.657 55.6963C127.097 57.0217 127.802 58.2437 128.729 59.2879C129.656 60.3321 130.786 61.1766 132.05 61.7701C133.314 62.3635 134.686 62.6935 136.081 62.7398C137.477 62.7862 138.867 62.548 140.168 62.0397C144.541 60.313 146.451 54.8457 145.153 50.5277C143.825 46.1172 138.657 42.7785 133.238 43.9788ZM121.954 52.2676C121.754 51.7839 121.43 51.3613 121.015 51.0423C120.6 50.7234 120.109 50.5193 119.59 50.4505C119.071 50.3818 118.543 50.4509 118.059 50.6508C117.576 50.8508 117.153 51.1745 116.834 51.5895C116.515 52.0045 116.311 52.4962 116.242 53.015C116.174 53.5339 116.243 54.0617 116.443 54.5454C116.643 55.0291 116.967 55.4516 117.382 55.7705C117.797 56.0894 118.288 56.2934 118.807 56.3621C119.325 56.4273 119.851 56.356 120.333 56.155C120.815 55.9541 121.236 55.6305 121.554 55.2166C121.872 54.8026 122.076 54.3127 122.146 53.7953C122.217 53.278 122.15 52.7513 121.954 52.2676ZM119.203 55.4315C118.934 55.45 118.663 55.4127 118.409 55.3218C118.155 55.231 117.922 55.0886 117.725 54.9035C117.528 54.7185 117.372 54.4948 117.266 54.2465C117.16 53.9982 117.106 53.7306 117.108 53.4606C117.103 52.9775 117.265 52.5075 117.566 52.1297C117.867 51.7519 118.289 51.4892 118.761 51.386C119.233 51.2827 119.726 51.345 120.157 51.5625C120.589 51.78 120.932 52.1394 121.13 52.5803C121.275 52.8944 121.337 53.2407 121.309 53.5857C121.281 53.9307 121.165 54.2627 120.971 54.5495C120.777 54.8363 120.513 55.0682 120.203 55.2227C119.893 55.3772 119.549 55.4491 119.203 55.4315ZM111.997 51.9566C111.832 50.4716 111.245 48.5955 110.075 47.6666C109.572 47.264 109.222 47.9966 109.556 48.334C110.399 49.3827 110.938 50.6416 111.117 51.9747C111.225 52.5456 112.086 52.7791 111.997 51.9747V51.9566ZM110.831 55.745C110.831 55.6181 110.882 55.4964 110.971 55.4066C111.061 55.3169 111.183 55.2665 111.31 55.2665C111.437 55.2665 111.558 55.3169 111.648 55.4066C111.738 55.4964 111.788 55.6181 111.788 55.745C111.72 60.0721 107.767 62.51 103.942 62.9151C97.3556 63.6023 91.3884 57.9007 92.7876 51.0037C94.2519 43.8699 102.508 41.2407 107.437 45.2089C107.819 45.5191 107.308 46.1783 106.919 45.8928C105.641 44.981 104.137 44.4372 102.572 44.3209C101.006 44.2045 99.4383 44.5199 98.0395 45.2328C93.1538 47.7978 91.8305 55.3539 96.5075 59.5482C101.932 64.4108 110.785 61.2222 110.831 55.745Z" fill="#191919"/>
<path d="M77.098 111.565C72.619 111.781 68.1564 112.259 63.733 112.996C63.375 113.056 63.5037 113.491 63.8535 113.442C68.2771 112.82 72.7321 112.429 77.1962 112.2C77.4256 112.2 77.7069 112.007 77.6821 111.481C77.6467 110.632 77.5336 109.791 77.461 108.942L81.6916 112.666C80.4221 114.029 79.2287 115.462 78.1169 116.956C78.0443 116.115 77.9519 115.271 77.8999 114.427C77.8719 113.936 77.7349 113.892 77.4132 113.913C73.1587 114.178 68.6872 114.628 64.3724 115.175C64.3394 115.181 64.3079 115.193 64.2796 115.211C64.2513 115.229 64.2269 115.252 64.2077 115.28C64.1884 115.307 64.1748 115.338 64.1675 115.371C64.1603 115.403 64.1595 115.437 64.1653 115.47C64.252 115.961 64.1967 115.46 77.3002 114.588C77.353 115.545 77.4008 116.498 77.4577 117.454C77.4899 117.958 77.8595 118.307 78.2613 117.797C79.2265 116.521 80.2718 115.322 81.3014 114.089C81.591 113.744 82.7089 112.746 82.2089 112.247C80.7412 110.788 79.0599 109.553 77.48 108.226C77.3976 108.165 77.2992 108.128 77.1967 108.122C77.0941 108.116 76.9919 108.139 76.9025 108.19C76.5568 108.483 77.0386 111.274 77.0914 111.58L77.098 111.565ZM82.0398 49.9867C79.8873 48.1967 77.5126 46.6924 74.9745 45.5111C74.7097 45.3948 74.6049 45.7124 74.5966 45.9574C74.5966 46.3592 74.7451 48.2501 74.8136 48.7723C70.5871 49.2228 66.3689 49.7772 62.1787 50.4619C62.1434 50.4636 62.1088 50.4721 62.0768 50.4871C62.0447 50.5022 62.016 50.5233 61.9922 50.5495C61.9684 50.5756 61.9499 50.6061 61.9379 50.6394C61.9259 50.6726 61.9205 50.7079 61.9222 50.7433C61.9238 50.7786 61.9324 50.8132 61.9474 50.8452C61.9624 50.8772 61.9836 50.906 62.0097 50.9298C62.0358 50.9536 62.0664 50.9721 62.0996 50.9841C62.1329 50.9961 62.1682 51.0015 62.2035 50.9998C62.776 50.9734 64.5737 50.4949 74.9019 49.4241C75.6518 49.3482 75.3969 48.6073 75.2599 46.3518C77.4139 47.4894 79.4634 48.8145 81.3847 50.3118C79.584 51.5205 77.8659 52.8478 76.2417 54.285C76.0643 53.4047 75.9076 52.5244 75.7063 51.645C75.6419 51.3513 75.5173 51.2432 75.1997 51.2795C70.8189 51.5599 66.4652 52.1665 62.1746 53.0945C62.1374 53.0971 62.1011 53.1075 62.0681 53.1248C62.035 53.1422 62.0059 53.1662 61.9827 53.1954C61.9594 53.2246 61.9424 53.2583 61.9329 53.2944C61.9233 53.3304 61.9213 53.3681 61.927 53.405C61.9328 53.4419 61.9461 53.4772 61.9661 53.5087C61.9862 53.5401 62.0126 53.5671 62.0436 53.5878C62.0746 53.6086 62.1096 53.6227 62.1464 53.6292C62.1831 53.6357 62.2208 53.6346 62.2571 53.6258C66.5332 52.8485 70.8473 52.2977 75.1816 51.9758L75.6394 54.6859C75.684 54.9475 75.9818 55.3294 76.2871 55.0877C78.0123 53.6124 79.8112 52.2255 81.6768 50.9322C81.9358 50.7589 82.5109 50.3737 82.0398 49.9867ZM71.6852 90.7343C69.1361 91.273 66.5601 91.6756 63.9682 91.9405C64.0018 89.8363 64.1497 87.7355 64.4112 85.6474C65.0239 86.1857 65.6989 86.6488 66.4217 87.0268C66.5169 87.0472 66.6157 87.0427 66.7086 87.0138C66.8015 86.9849 66.8854 86.9325 66.9522 86.8618C72.3543 81.3491 77.9346 75.9074 83.797 70.8856C84.0949 70.6282 83.7145 70.2504 83.4151 70.483C77.5122 75.471 71.8874 80.779 66.5661 86.3833C65.9061 85.9328 65.2354 85.4947 64.5861 85.0286C63.6934 84.3892 63.6893 85.7926 63.653 86.1539C63.5705 86.9789 63.2512 91.8563 63.3882 92.1855C63.4525 92.3505 63.4847 92.5559 63.7132 92.5394C66.4385 92.2787 69.1449 91.8478 71.8164 91.2491C72.6208 91.0082 72.7618 90.6906 72.1258 90.2038C71.3659 89.6263 70.6408 88.9977 69.8983 88.3938C74.6552 83.0255 80.205 76.9576 85.3035 71.7585C85.5815 71.4763 85.2111 71.1224 84.9454 71.3996C80.0317 76.5476 73.9358 82.547 69.4676 87.9763C69.4123 88.0253 69.3672 88.0848 69.3348 88.1512C69.3025 88.2177 69.2835 88.2899 69.2791 88.3637C69.2746 88.4374 69.2848 88.5114 69.3089 88.5812C69.3331 88.6511 69.3707 88.7155 69.4198 88.7708C69.7382 89.1445 71.5994 90.6675 71.6852 90.7343Z" fill="#191919"/>
<path d="M89.5938 111.521C89.6292 113.704 89.7918 115.883 90.0805 118.047C92.9754 116.942 92.3443 114.095 92.4087 111.565C91.4665 111.565 90.526 111.565 89.5938 111.521ZM160.276 115.458C160.536 115.68 160.724 115.976 160.814 116.307C160.905 116.637 160.893 116.987 160.782 117.312C160.319 118.562 158.142 122.242 154.751 123.049C154.306 123.126 153.858 123.176 153.407 123.199C153.214 118.739 149.763 114.351 143.425 114.87C138.523 115.273 135.909 119.511 135.937 123.653C128.017 123.736 118.819 123.736 110.824 123.621C110.824 119.198 107.966 114.855 101.853 115.176C96.5526 115.445 93.8986 119.105 93.6371 123.002C92.8383 122.965 92.0471 122.83 91.2817 122.599C90.8791 122.387 90.5004 120.838 90.2092 118.905C93.9605 117.529 93.0233 113.998 93.1792 111.263C93.187 111.166 93.1565 111.07 93.094 110.995C93.0316 110.919 92.9422 110.872 92.8451 110.862C91.7676 110.862 90.6902 110.862 89.6276 110.882C89.7357 109.085 96.0015 100.261 97.4651 98.9545C98.8371 97.7483 122.128 97.3457 125.68 97.9851C127.043 98.2326 135.814 104.621 139.26 107.138C141.001 107.202 155.82 109.414 158.004 112.22C156.596 112.123 155.183 112.182 153.789 112.397C153.306 112.598 154.995 114.707 155.82 114.939C157.287 115.243 158.778 115.417 160.276 115.458ZM107.661 106.426C109.14 104.069 111.361 100.848 112.254 99.6087C107.882 99.7259 103.716 99.8711 100.745 100.048C100.197 100.08 97.9015 103.348 96.4776 105.862C99.0714 106.028 103.036 106.221 107.661 106.426ZM114.9 99.5444C113.87 101.556 112.527 104.539 111.545 106.595C118.546 106.888 126.489 107.189 133.361 107.45C130.763 104.76 126.73 100.86 124.916 99.3596C121.911 99.3967 114.903 99.5411 114.903 99.5411L114.9 99.5444ZM119.21 110.233C120.365 110.151 119.805 109.429 119.314 109.429C118.028 109.429 116.745 109.486 115.467 109.574C115.137 109.598 115.153 110.201 115.467 110.213C116.709 110.292 117.955 110.303 119.198 110.245L119.21 110.233ZM130.277 120.057C131.363 120.057 133.577 110.868 133.763 109.063C133.8 108.697 133.361 108.532 133.285 108.887C132.437 112.404 131.381 115.868 130.124 119.261L119.636 119.454C117.53 119.49 116.48 119.216 115.841 118.104C114.071 115.003 113.376 111.608 112.254 108.54C112.242 108.506 112.224 108.475 112.2 108.448C112.175 108.421 112.146 108.399 112.114 108.383C112.081 108.368 112.046 108.359 112.01 108.356C111.974 108.354 111.938 108.36 111.904 108.371C111.87 108.383 111.838 108.402 111.811 108.426C111.785 108.45 111.763 108.479 111.747 108.512C111.731 108.544 111.722 108.579 111.72 108.615C111.718 108.652 111.723 108.688 111.735 108.722C112.346 111.259 113.935 116.406 115.098 118.469C115.929 119.945 116.685 120.254 119.119 120.254C122.839 120.238 126.558 120.109 130.274 120.041L130.277 120.057Z" fill="#64876F"/>
</svg>
