<svg width="165" height="165" viewBox="0 0 165 165" fill="none" xmlns="http://www.w3.org/2000/svg">
<path d="M19.3453 72.2005C19.314 69.643 18.168 67.0599 16.9875 62.864C16.947 64.335 15.6386 64.8027 15.8234 66.7415C15.8213 66.9925 15.8698 67.2414 15.9658 67.4734C16.0619 67.7053 16.2036 67.9156 16.3825 68.0917C16.5615 68.2678 16.774 68.4061 17.0074 68.4984C17.2409 68.5907 17.4905 68.6352 17.7415 68.6291C17.8225 68.6312 17.8993 68.6653 17.9551 68.724C18.0108 68.7828 18.041 68.8612 18.0389 68.9422C18.0369 69.0231 18.0027 69.1 17.944 69.1557C17.8853 69.2115 17.8068 69.2417 17.7259 69.2396C17.3774 69.2787 17.0248 69.2486 16.688 69.1512C16.3512 69.0537 16.037 68.8908 15.7633 68.6716C15.4896 68.4525 15.2619 68.1816 15.0931 67.8743C14.9243 67.567 14.8179 67.2294 14.7798 66.8809C14.6306 66.0473 14.7442 65.1879 15.1048 64.4216C15.5264 63.5966 15.9934 63.1998 15.6922 62.2254C15.4381 61.4145 15.0174 61.2165 14.2897 60.9186C13.7458 60.7192 13.2585 60.3905 12.8699 59.9608C11.9764 58.9056 12.1274 56.9157 12.8468 55.6923C13.2648 55.1859 13.5135 54.5612 13.558 53.9061C13.4573 51.3759 11.0986 52.2405 10.6424 49.6838C10.5479 49.1832 10.5762 48.6671 10.7249 48.1798C10.9907 47.3368 11.4103 46.5502 11.9624 45.8599C11.9896 45.8189 12.0247 45.7838 12.0658 45.7566C12.1068 45.7295 12.1529 45.7109 12.2013 45.7019C12.2496 45.693 12.2993 45.6939 12.3474 45.7046C12.3954 45.7153 12.4408 45.7355 12.4808 45.7641C12.5208 45.7927 12.5547 45.8291 12.5804 45.8711C12.606 45.9131 12.623 45.9598 12.6302 46.0085C12.6374 46.0571 12.6347 46.1068 12.6223 46.1544C12.6099 46.202 12.5881 46.2466 12.5581 46.2856C11.8939 47.2027 11.5935 48.3336 11.7149 49.4594C11.9319 50.3042 12.247 50.442 13.0605 50.9518C13.5787 51.2368 14.0099 51.657 14.3081 52.1677C14.6064 52.6783 14.7605 53.2603 14.7542 53.8517C14.7447 54.7398 14.4399 55.5995 13.8879 56.2953C13.4243 57.0758 13.2676 58.5575 13.7956 59.1828C14.4292 59.9534 15.7755 59.814 16.5436 61.181C15.0908 55.0908 15.9975 47.981 12.6307 41.9989C11.8807 40.669 10.2027 39.8539 9.4907 41.6508C8.98204 43.2923 8.8401 45.0254 9.0749 46.7278C9.25694 48.646 9.53837 50.5535 9.91805 52.4426C10.2423 53.7189 10.9155 54.8631 11.2248 56.1468C11.493 57.8019 11.851 59.4411 12.2974 61.0572C12.7148 62.2015 13.9474 62.7815 14.2773 63.9447C14.7187 65.499 14.3475 67.2002 14.5249 68.7858C14.6044 70.4088 15.129 71.9786 16.0412 73.3233C16.3047 73.6867 16.6662 73.9676 17.0835 74.1329C17.5008 74.2983 17.9565 74.3415 18.3974 74.2572C19.2447 74.0023 19.3527 72.943 19.3453 72.2005Z" fill="#64876F"/>
<path d="M48.9022 42.9999C50.0485 42.1391 51.4601 41.7068 52.8919 41.778C53.1961 41.2955 53.5266 40.83 53.8819 40.3838C52.1626 40.4993 50.4169 40.5488 48.6992 40.6412C48.7083 41.4314 48.7762 42.2198 48.9022 42.9999Z" fill="#64876F"/>
<path d="M63.832 40.124C62.9929 40.4026 62.1184 40.5601 61.2349 40.5918C62.4798 42.6411 62.2636 45.6796 61.5904 47.884C61.2811 48.9119 60.6004 49.7394 60.678 50.8375C60.6868 51.5615 60.8394 52.2766 61.1268 52.9412C61.4824 53.5443 62.6192 53.8999 63.1068 54.4493C63.562 55.0636 63.9148 55.7476 64.1512 56.4747C63.8897 51.0322 64.0696 45.5748 63.832 40.124Z" fill="#64876F"/>
<path d="M35.9054 40.9199C32.1665 41.2681 28.2998 40.7689 24.6211 41.518C24.7762 47.279 25.1392 50.4957 24.9923 56.0562C24.923 58.5766 24.6681 61.6852 26.5937 63.6347C30.2121 67.3001 34.4732 65.0371 35.8502 60.7108C37.4069 55.8359 36.5976 46.2824 35.9054 40.9199Z" fill="#64876F"/>
<path d="M93.3444 43.2127C93.3716 38.0408 93.1793 38.931 93.3287 38.5498C88.1167 38.6047 82.9115 38.9429 77.7362 39.5629C77.4887 44.1252 77.0762 49.7104 79.1387 53.9229C79.8186 55.2605 80.8086 56.4161 82.0261 57.2933C83.2435 58.1704 84.6531 58.7437 86.1372 58.9653C86.9102 59.1195 88.1996 59.6145 88.9595 59.2202C91.0632 58.1221 91.9443 54.6117 92.8568 52.6202C94.3492 49.3532 90.7695 45.5483 93.3444 43.2127Z" fill="#64876F"/>
<path d="M116.392 39.0851L116.601 38.9919C116.507 38.9845 115.522 38.7757 104.189 39.0001C104.159 40.7401 104.198 42.4792 104.251 44.2199C104.388 49.0239 103.189 53.7478 106.502 57.2879C108.79 59.7241 112.866 60.4666 115.016 57.443C116.06 55.7583 116.547 53.7872 116.407 51.8099C116.391 50.3406 116.572 48.8564 116.6 47.3871C116.663 44.6324 116.477 41.8456 116.392 39.0851Z" fill="#64876F"/>
<path d="M61.0215 53.927C60.8041 52.9725 60.5355 52.0304 60.2172 51.1046C60.1916 51.0136 60.1315 50.9361 60.0496 50.8887C59.9678 50.8413 59.8707 50.8277 59.779 50.8509C59.6873 50.874 59.6082 50.932 59.5586 51.0125C59.509 51.093 59.4928 51.1897 59.5134 51.282L60.0315 54.6307C60.0425 54.7036 60.068 54.7736 60.1064 54.8365C60.1448 54.8995 60.1953 54.9541 60.2551 54.9973C60.3149 55.0405 60.3826 55.0713 60.4545 55.088C60.5263 55.1046 60.6007 55.1068 60.6734 55.0943C62.7359 54.7841 62.9553 57.8168 61.1527 58.3811C61.0301 58.4205 60.923 58.4974 60.8466 58.6011C60.7701 58.7048 60.7283 58.8299 60.727 58.9586C60.727 61.2554 60.5084 62.5886 58.813 63.5151C57.8821 64.0945 56.7597 64.2817 55.6912 64.0357C54.6344 63.8492 54.5544 63.7321 54.3712 64.0043C54.1163 64.435 54.9619 64.9382 55.3843 65.1181C56.1772 65.3729 57.0243 65.4077 57.8354 65.2187C58.2061 65.1357 58.5644 65.0048 58.9013 64.8293C59.048 66.5689 59.3238 68.2951 59.7263 69.9938C59.7375 70.074 59.7798 70.1466 59.8441 70.1958C59.9084 70.245 59.9895 70.2669 60.0699 70.2567C60.1502 70.2465 60.2233 70.205 60.2732 70.1413C60.3232 70.0776 60.346 69.9967 60.3368 69.9163C60.2271 66.2327 60.1165 65.5611 60.0431 64.171C61.5974 63.1645 61.9092 61.2266 61.9406 59.3687C64.4832 58.1196 63.9618 53.8816 61.0215 53.927Z" fill="#191919"/>
<path d="M59.126 58.1629C58.9007 58.1035 58.3735 58.7759 58.3141 58.8584C58.09 59.1951 57.784 59.4693 57.4248 59.6553C57.2661 59.7154 57.0957 59.7383 56.9268 59.7221C56.7579 59.706 56.5949 59.6512 56.4505 59.5621C55.543 59.0621 55.453 58.9318 55.2212 59.129C54.8912 59.3765 55.3862 60.0876 55.4918 60.227C55.8446 60.6144 56.3262 60.8603 56.8469 60.9188C57.3676 60.9772 57.8917 60.8442 58.3216 60.5447C58.5709 60.3938 58.7881 60.1953 58.9607 59.9605C59.1333 59.7256 59.2578 59.459 59.3273 59.176C59.3594 58.9425 59.4271 58.2404 59.126 58.1629Z" fill="#191919"/>
<path d="M54.3265 54.3886C54.244 53.8622 53.9239 53.4761 53.5997 53.5223C53.2754 53.5685 53.0972 54.0404 53.174 54.5659C53.2507 55.0915 53.5865 55.4866 53.9008 55.4396C54.2151 55.3926 54.404 54.9215 54.3265 54.3886Z" fill="#191919"/>
<path d="M58.7237 53.5116C58.6462 52.9852 58.3211 52.5992 58.0043 52.6454C57.6875 52.6916 57.4936 53.1634 57.5786 53.6972C57.6636 54.231 57.9812 54.6097 58.298 54.5627C58.6148 54.5156 58.8087 54.0445 58.7237 53.5116Z" fill="#191919"/>
<path d="M58.5157 56.265C58.2138 55.4013 56.8129 52.084 56.0176 52.4998C55.3444 52.8512 56.5951 54.7438 57.2246 56.204C57.1421 56.2717 56.4417 56.8071 56.5646 57.0851C56.7461 57.4696 57.8252 57.1041 58.1882 57.0026C58.3249 56.9426 58.4343 56.8337 58.4948 56.6973C58.5554 56.5608 58.5629 56.4067 58.5157 56.265Z" fill="#191919"/>
<path d="M81.4433 68.897C77.2433 71.4058 73.1933 72.9502 68.4133 72.2795C68.0074 72.2613 68.0792 71.6393 68.4669 71.6764C73.063 71.9354 77.6764 69.8614 81.5902 67.4078C81.6747 67.3536 81.7716 67.3216 81.8718 67.3148C81.972 67.3081 82.0723 67.3267 82.1633 67.3691C82.2544 67.4115 82.3332 67.4763 82.3926 67.5573C82.4519 67.6384 82.4897 67.7331 82.5026 67.8327C83.2735 72.5563 84.4375 77.2073 85.9825 81.7373C86.0337 81.8566 86.044 81.9895 86.0118 82.1153C85.9796 82.2411 85.9066 82.3527 85.8043 82.4327C83.2487 84.644 80.2931 86.345 77.0972 87.4438C76.9953 88.2282 76.9487 89.0189 76.9578 89.8099C76.961 89.9069 76.9266 90.0013 76.8617 90.0735C76.7968 90.1456 76.7064 90.1898 76.6097 90.1968C76.5125 90.2011 76.4175 90.167 76.3453 90.1018C76.273 90.0367 76.2293 89.9458 76.2236 89.8487C76.1601 88.9299 76.1472 88.0084 76.1848 87.0882C76.1896 86.9909 76.223 86.8973 76.2809 86.8189C76.3387 86.7405 76.4183 86.681 76.5098 86.6477C79.4817 85.4627 82.25 83.8203 84.7145 81.7802C83.3293 77.566 82.2364 73.2614 81.4433 68.897Z" fill="#191919"/>
<path d="M94.7362 51.8096C92.9311 50.9161 93.3444 46.9132 94.2494 45.0116C94.2965 44.9274 94.3083 44.828 94.2822 44.7352C94.256 44.6424 94.1941 44.5637 94.11 44.5166C94.0234 44.4713 93.9227 44.4614 93.829 44.4889C93.7352 44.5165 93.6559 44.5793 93.6076 44.6642C92.7062 46.1657 92.2751 47.9027 92.3701 49.6514C92.3889 50.1987 92.5161 50.7368 92.7444 51.2346C92.9727 51.7324 93.2975 52.1799 93.7 52.5512C92.1878 55.6508 92.7339 55.2399 88.5652 60.6866C87.8284 61.684 84.7281 65.6531 83.4502 67.0506C83.3927 67.1071 83.3601 67.184 83.3594 67.2645C83.3587 67.3451 83.39 67.4226 83.4465 67.48C83.5029 67.5375 83.5799 67.5701 83.6604 67.5708C83.7409 67.5715 83.8184 67.5402 83.8759 67.4837C86.0117 65.7123 87.9093 63.6719 89.5214 61.4134C94.1661 55.3571 93.2652 56.0938 94.9886 52.6131C95.0612 52.473 95.0754 52.3098 95.0281 52.1593C94.9808 52.0087 94.8759 51.883 94.7362 51.8096Z" fill="#191919"/>
<path d="M103.203 43.1891C103.139 42.888 102.296 42.8476 102.105 42.8591C101.151 43.0291 100.221 43.3147 99.3364 43.7097C99.1153 43.8079 98.325 44.2641 98.471 44.6535C98.6079 45.019 99.3909 44.8878 99.739 44.7921C100.087 44.6964 99.6186 44.8193 101.324 44.2897C101.618 44.1973 101.928 44.1123 102.213 44.0117C102.498 43.8904 103.274 43.5183 103.203 43.1891Z" fill="#191919"/>
<path d="M102.37 46.3496C101.486 46.4015 100.62 46.6137 99.8121 46.9758C99.6042 47.0979 99.03 47.5054 99.1702 47.842C99.3105 48.1786 100.06 48.0648 100.3 48.007C100.382 47.9889 102.266 47.5203 102.349 47.4964C102.596 47.4361 103.302 47.0632 103.285 46.8157C103.263 46.5394 102.482 46.3595 102.37 46.3496Z" fill="#191919"/>
<path d="M102.261 49.9834C101.45 50.0025 100.65 50.1732 99.9025 50.4866C99.5899 50.6945 99.0899 51.0369 99.2376 51.376C99.3853 51.7151 100.299 51.5509 100.393 51.5303C100.837 51.4042 101.289 51.3061 101.746 51.2366C102.001 51.1978 102.264 51.1821 102.519 51.1434C102.775 51.1046 103.546 50.8579 103.563 50.6104C103.58 50.3406 102.914 49.9834 102.261 49.9834Z" fill="#191919"/>
<path d="M100.707 53.3024C100.696 53.1523 100.675 52.5773 100.675 52.173C100.67 52.093 100.697 52.0143 100.75 51.9541C100.803 51.8939 100.878 51.8572 100.958 51.8521C101.038 51.8469 101.116 51.8738 101.176 51.9267C101.237 51.9796 101.273 52.0543 101.278 52.1342C101.338 52.5277 101.455 53.1729 101.572 53.6423C101.582 53.7002 101.58 53.7594 101.565 53.8163C101.551 53.8732 101.524 53.9264 101.488 53.9724C101.452 54.0184 101.406 54.0562 101.354 54.0833C101.302 54.1105 101.245 54.1263 101.186 54.1299C99.9857 54.2891 96.8474 55.1306 95.9968 54.0911C95.7558 53.7824 95.5821 53.4266 95.487 53.0467C94.8417 49.2226 94.3976 45.3673 94.1562 41.4967C94.2388 40.2715 94.973 39.7724 96.1981 39.6866C97.662 39.5576 99.1371 39.6567 100.571 39.9803C100.674 39.9986 100.767 40.0531 100.834 40.134C100.9 40.2149 100.936 40.3169 100.934 40.4217L100.857 41.7747C100.857 41.87 100.819 41.9615 100.753 42.0298C100.686 42.0981 100.596 42.138 100.501 42.141C100.405 42.144 100.313 42.1099 100.242 42.0459C100.171 41.9818 100.128 41.8929 100.122 41.7978L100.068 40.816C98.809 40.7191 97.5439 40.7293 96.2864 40.8466C95.7757 40.8928 95.4977 40.9629 95.3971 41.2492C95.1496 41.9826 96.4852 51.9742 96.5801 52.4848C96.7723 53.3808 96.8961 53.3503 97.2302 53.413C98.3902 53.4511 99.5515 53.4142 100.707 53.3024Z" fill="#191919"/>
<path d="M99.2664 37.6715C98.9465 37.5531 98.6092 37.4884 98.2682 37.4801C98.2874 36.8564 98.2695 36.2322 98.2146 35.6106C98.1321 33.8781 98.1321 33.4161 97.9827 32.1927C97.8095 31.3041 97.7402 30.9188 97.3722 30.9403C97.0266 30.9601 96.9919 31.3165 96.9003 32.2471C96.8809 33.9956 96.9708 35.7436 97.1693 37.4809C94.8857 37.6789 94.413 38.9659 96.3121 38.8009C96.5217 38.7852 96.7246 38.7547 96.9309 38.7316C97.6699 38.6631 98.4141 38.6733 99.1509 38.7621C99.886 38.7621 100.037 38.687 100.094 38.5146C100.209 38.1879 99.4125 37.7309 99.2664 37.6715Z" fill="#191919"/>
<path d="M53.6536 50.206C53.2131 50.0033 52.7123 49.9738 52.2511 50.1236C51.8031 50.239 51.4005 50.4872 51.0961 50.8355C50.9311 51.0368 50.644 51.644 50.9187 51.8635C51.1934 52.0829 51.766 51.7183 52.0737 51.5162C52.2255 51.4168 52.3928 51.3434 52.5687 51.2992C52.8174 51.2425 53.0744 51.2321 53.3269 51.2687C53.4094 51.2687 54.0479 51.3512 54.1849 51.0591C54.3953 50.7159 53.8854 50.3537 53.6536 50.206Z" fill="#191919"/>
<path d="M58.422 49.3898C58.103 49.2347 57.7427 49.1858 57.394 49.2504C56.9967 49.3073 56.6308 49.4982 56.357 49.7916C56.2233 49.9929 55.9684 50.5539 56.2572 50.7734C56.5146 50.9582 57.1143 50.6455 57.2471 50.5572C57.4511 50.4496 57.6846 50.4117 57.9121 50.4491C58.148 50.4912 58.6843 50.582 58.8559 50.379C59.0754 50.1191 58.6794 49.5218 58.422 49.3898Z" fill="#191919"/>
<path d="M58.9055 39.631C56.6499 39.0295 54.4505 40.8685 53.0067 42.6678C49.927 42.3172 46.7747 44.8491 45.8853 47.8447C45.5201 49.1405 45.5281 50.5131 45.9084 51.8047C45.9348 51.8938 46.6262 54.0412 46.9488 54.7664C47.0469 54.9768 47.2392 55.3266 47.3101 55.4495C46.8569 55.6854 46.4686 56.0292 46.1795 56.4505C45.8904 56.8718 45.7094 57.3578 45.6523 57.8656C45.5953 58.3733 45.664 58.8873 45.8524 59.3623C46.0407 59.8373 46.343 60.2586 46.7326 60.5893C47.2304 61.0573 47.8763 61.3363 48.5583 61.378C49.1946 61.395 49.8307 61.3433 50.4558 61.2237C50.6848 64.1436 51.1477 67.0404 51.8402 69.8862C51.851 69.9648 51.8922 70.036 51.9549 70.0846C52.0176 70.1332 52.0968 70.1554 52.1756 70.1463C52.2544 70.1372 52.3265 70.0977 52.3766 70.0361C52.4266 69.9746 52.4505 69.8959 52.4433 69.8169C52.322 68.0951 52.4053 67.7544 52.0489 65.0377C51.879 63.5914 51.6933 62.1378 51.6315 60.529C51.6285 60.4481 51.6092 60.3687 51.5745 60.2955C51.5398 60.2223 51.4906 60.157 51.4298 60.1035C51.3691 60.05 51.298 60.0094 51.2211 59.9843C51.1441 59.9591 51.0628 59.95 50.9822 59.9573C50.212 60.0825 49.4341 60.1547 48.654 60.1735C48.3297 60.1421 48.0181 60.0318 47.7463 59.852C47.4746 59.6722 47.2511 59.4286 47.0954 59.1423C46.9397 58.8561 46.8566 58.5361 46.8533 58.2103C46.85 57.8845 46.9267 57.5629 47.0766 57.2736C47.3147 56.8661 47.671 56.5407 48.0983 56.3404C48.5256 56.1402 49.0037 56.0746 49.4691 56.1524C49.5616 56.1643 49.6555 56.1526 49.7422 56.1184C49.8289 56.0841 49.9055 56.0285 49.9649 55.9567C50.0243 55.8849 50.0645 55.7992 50.0818 55.7076C50.0991 55.616 50.093 55.5216 50.064 55.433C49.581 54.2793 49.3338 53.0405 49.3371 51.7898C51.714 48.9172 55.9668 47.5988 59.299 49.988C59.3718 50.0404 59.4553 50.076 59.5435 50.0924C59.6317 50.1087 59.7225 50.1053 59.8092 50.0824C59.8959 50.0596 59.9765 50.0178 60.0452 49.9601C60.1139 49.9024 60.169 49.8302 60.2065 49.7488C61.7814 46.3192 62.4909 40.6094 58.9055 39.631ZM48.6928 51.176C48.1063 51.4955 47.5502 51.8677 47.0313 52.2881C46.7229 50.9373 46.7257 49.5341 47.0395 48.1846C47.4543 47.0173 48.1622 45.9762 49.0952 45.1613C50.0282 44.3463 51.1549 43.7849 52.3674 43.5307C50.6489 46.0354 49.7059 48.8866 48.6928 51.176ZM59.3865 48.6012C57.9828 47.7875 56.3562 47.4426 54.7431 47.6165C53.13 47.7903 51.6143 48.474 50.4162 49.5681C50.6794 49.0582 50.9269 48.5401 51.1818 48.022C52.5447 45.2517 55.608 39.9915 58.5903 40.7992C61.0868 41.4979 60.3534 46.1386 59.3865 48.6012Z" fill="#191919"/>
<path d="M64.3787 70.5369C63.3857 70.064 62.3359 69.721 61.2553 69.5164C61.1247 69.493 60.99 69.5177 60.8763 69.586C60.7625 69.6543 60.6773 69.7614 60.6365 69.8877C60.007 71.6342 59.1738 73.455 58.5946 75.4152C56.9166 74.3055 55.8119 73.2924 52.5169 70.8834C52.4721 70.8362 52.4155 70.8019 52.3529 70.7842C52.2903 70.7665 52.2241 70.766 52.1613 70.7828C51.849 70.8872 51.5544 71.0385 51.2876 71.2316C51.1226 71.3446 50.97 71.4791 51.0162 71.6721C51.0265 71.7196 51.0462 71.7645 51.074 71.8043C51.1019 71.8441 51.1374 71.8779 51.1785 71.9038C51.2196 71.9296 51.2655 71.9471 51.3134 71.955C51.3613 71.963 51.4103 71.9613 51.4576 71.9502C51.6822 71.9072 51.8969 71.8233 52.0912 71.7027C54.0935 73.5962 56.2543 75.3146 58.5501 76.8391C57.2882 77.7373 56.0815 78.7106 54.9366 79.7538C54.7435 79.9395 54.5513 80.1581 54.3178 80.3643C54.2415 80.4251 54.1917 80.5131 54.1787 80.6098C54.1658 80.7066 54.1908 80.8046 54.2485 80.8833C54.3101 80.9555 54.3962 81.0024 54.4902 81.0152C54.5843 81.028 54.6797 81.0057 54.7584 80.9526C55.5537 80.4369 55.2394 80.8849 58.9057 78.0972C58.8836 78.7751 58.9505 79.453 59.1045 80.1135C60.1506 85.6551 60.1539 85.0116 60.4113 85.905C60.5375 86.3439 61.0053 86.2408 61.0226 85.8671C60.9654 83.4316 60.6296 81.0107 60.0219 78.6516C61.181 79.4445 63.0991 80.2794 63.6593 80.6894C63.7222 80.738 63.8015 80.7601 63.8804 80.7512C63.9593 80.7422 64.0316 80.7028 64.082 80.6414C64.1324 80.58 64.1568 80.5013 64.1501 80.4222C64.1435 80.343 64.1062 80.2696 64.0462 80.2175C62.5984 78.815 63.0785 79.3389 59.4848 76.6782C59.5945 76.4885 59.5541 76.3053 60.111 74.657C60.5672 73.3188 61.0927 72.0046 61.5564 70.6747C62.3047 70.7704 63.4176 70.9222 64.1782 71.1078C64.2157 71.1226 64.2558 71.1294 64.2961 71.128C64.3363 71.1265 64.3758 71.1168 64.4122 71.0994C64.4485 71.0819 64.4808 71.0572 64.5071 71.0267C64.5335 70.9963 64.5532 70.9607 64.5652 70.9222C64.5915 70.8464 64.5866 70.7632 64.5517 70.691C64.5167 70.6187 64.4545 70.5633 64.3787 70.5369Z" fill="#191919"/>
<path d="M135.837 80.3634C135.772 80.0276 135.55 79.2835 135.177 79.3891C134.897 79.4716 134.961 79.6291 134.759 80.549C134.608 81.2362 134.168 81.9309 133.467 81.869C133.074 81.7858 132.716 81.5802 132.447 81.2816C131.858 80.7734 131.787 80.5276 131.488 80.6785C131.09 80.8691 131.436 81.6009 131.619 81.9466C131.805 82.2567 132.06 82.5195 132.365 82.714C132.67 82.9086 133.015 83.0297 133.375 83.0677C133.721 83.0728 134.064 83.0044 134.381 82.8669C134.698 82.7294 134.983 82.5261 135.215 82.2704C135.448 82.0147 135.624 81.7125 135.731 81.3837C135.838 81.0549 135.874 80.7071 135.837 80.3634Z" fill="#191919"/>
<path d="M133.082 72.3431C133.445 72.4198 133.623 73.0551 133.476 73.7505C133.329 74.446 132.919 74.9575 132.548 74.88C132.176 74.8024 131.998 74.1762 132.145 73.4725C132.292 72.7688 132.71 72.2697 133.082 72.3431Z" fill="#191919"/>
<path d="M152.052 70.109C151.972 69.2138 151.593 68.3717 150.975 67.7182C150.358 67.0647 149.539 66.6378 148.65 66.5062C148.737 65.8464 148.709 65.1765 148.568 64.5262C148.197 63.4247 147.568 62.4282 146.732 61.6208C145.897 60.8133 144.879 60.2185 143.765 59.8864C140.739 59.0309 131.129 59.7214 129.73 60.0102C128.534 60.2516 127.396 60.7244 126.382 61.4019C125.317 62.1547 124.487 63.192 123.984 64.395C123.721 65.0323 123.678 65.7393 123.863 66.4036C124.048 67.0678 124.45 67.6511 125.005 68.0605C126.528 69.1065 128.302 69.7291 130.145 69.8648C127.485 73.1829 125.562 75.7916 124.192 77.6528C124.128 77.7412 124.088 77.8457 124.079 77.9549C124.07 78.064 124.09 78.1737 124.139 78.2718C124.188 78.37 124.263 78.4528 124.355 78.5114C124.448 78.57 124.555 78.602 124.664 78.604L127.533 78.6354C126.764 81.2151 125.938 84.4483 127.858 86.3681C128.973 87.5008 130.918 87.6881 132.497 87.7912C132.441 89.7572 132.415 90.2225 132.482 93.289C132.478 93.3689 132.506 93.4471 132.56 93.5065C132.613 93.5658 132.688 93.6016 132.768 93.6058C132.849 93.6074 132.927 93.5777 132.986 93.5229C133.045 93.4682 133.08 93.3926 133.085 93.3121C133.162 92.266 133.399 90.3933 133.614 87.8275C133.966 87.8481 136.749 87.8861 137.046 87.8498C137.206 87.8284 138.139 87.6617 138.159 87.3548C138.18 87.0479 137.279 86.7773 137.046 86.7286C135.508 86.4432 132.825 86.9761 130.216 86.2906C129.657 86.1678 129.138 85.9043 128.708 85.5249C127.081 83.8791 128.26 80.41 128.917 78.2097C128.942 78.1215 128.948 78.0287 128.932 77.9383C128.916 77.8479 128.88 77.7622 128.827 77.6877C128.773 77.6133 128.703 77.552 128.622 77.5085C128.541 77.465 128.452 77.4404 128.36 77.4366L125.84 77.4135C128.269 74.0558 127.641 75.0615 131.078 69.9349C133.312 70.0735 136.308 70.0941 137.254 70.0941C134.944 73.3719 137.075 76.8237 140.611 76.6941C140.681 76.6891 140.751 76.67 140.814 76.6382C140.878 76.6063 140.934 76.5623 140.981 76.5085C141.142 76.2981 141.349 76.1274 141.587 76.0094C141.824 75.8915 142.085 75.8294 142.35 75.8279C143.016 75.8683 143.402 77.0118 142.699 77.9927C142.418 78.38 142.042 78.689 141.608 78.8903C141.539 78.9245 141.477 78.9722 141.426 79.0307C141.376 79.0891 141.337 79.1572 141.314 79.2307C141.29 79.3043 141.281 79.3818 141.288 79.4589C141.295 79.5359 141.317 79.6107 141.353 79.679C142.461 81.5403 143.799 83.254 145.337 84.7791C145.172 90.1416 145.221 90.489 145.359 91.6118C145.462 92.4368 145.491 92.6628 145.772 92.6628C146.095 92.6628 146.108 92.3452 146.22 91.6266C146.433 90.324 146.442 90.1416 146.56 84.9953C151.189 79.5387 152.613 73.3051 152.052 70.109Z" fill="#191919"/>
<path d="M109.896 135.031C110.506 133.051 111.156 131.056 111.829 129.091C112.502 129.059 113.167 128.998 113.839 128.951C112.578 122.255 109.733 115.782 107.312 109.441C110.947 107.013 115.03 105.242 118.711 102.841C124.588 99.0056 129.445 94.6133 136.621 93.4607C145.784 91.9757 154.082 99.0707 153.656 105.764C153.502 108.231 155.443 110.35 156.355 112.639C158.246 117.062 159.758 121.638 160.875 126.316C156.926 127.306 153.046 128.554 149.26 130.051C148.695 131.257 148.1 132.449 147.497 133.623L109.896 135.031Z" fill="#64876F"/>
<path d="M140.371 96.4077C140.307 96.3346 140.216 96.2895 140.119 96.2823C140.023 96.275 139.927 96.3062 139.852 96.369C139.816 96.4007 139.786 96.4394 139.765 96.4828C139.744 96.5262 139.731 96.5734 139.729 96.6216C139.726 96.6698 139.733 96.7181 139.749 96.7637C139.765 96.8093 139.79 96.8512 139.822 96.8871C142.173 99.6285 142.297 103.596 142.033 107.211C141.297 117.22 133.658 123.945 124.503 128.268C121.724 129.58 118.857 130.696 115.923 131.609C115.884 131.619 115.847 131.636 115.816 131.66C115.784 131.685 115.757 131.715 115.737 131.749C115.717 131.784 115.703 131.822 115.698 131.862C115.693 131.901 115.695 131.941 115.706 131.98C115.727 132.057 115.778 132.123 115.848 132.163C115.917 132.203 115.999 132.215 116.077 132.196C129.284 129.211 142.27 120.696 143.204 107.304C143.446 103.328 143.046 99.4297 140.371 96.4077Z" fill="#191919"/>
<path d="M153.325 110.859C153.23 110.844 153.133 110.868 153.054 110.924C152.976 110.981 152.924 111.066 152.907 111.161C152.178 113.82 152.214 113.95 151.933 115.212C150.658 120.966 150.27 121.515 148.786 126.927C148.757 127.002 148.759 127.085 148.791 127.159C148.823 127.232 148.882 127.291 148.956 127.321C148.992 127.337 149.032 127.345 149.072 127.345C149.112 127.346 149.151 127.338 149.188 127.322C149.225 127.307 149.258 127.284 149.286 127.256C149.314 127.227 149.336 127.194 149.351 127.156C150.068 125.935 150.638 124.634 151.052 123.279C151.891 120.711 152.571 118.094 153.086 115.441C153.381 114.067 153.562 112.67 153.627 111.265C153.64 111.172 153.615 111.076 153.559 111C153.502 110.924 153.418 110.873 153.325 110.859Z" fill="#191919"/>
<path d="M106.371 111.267C106.339 111.176 106.272 111.102 106.185 111.06C106.099 111.018 105.999 111.012 105.908 111.043C90.1139 115.919 69.8552 108.255 61.2191 106.38C61.1411 106.362 61.0592 106.375 60.9911 106.417C60.9231 106.459 60.8742 106.526 60.8552 106.604C60.8376 106.683 60.851 106.766 60.8929 106.835C60.9347 106.904 61.0016 106.954 61.0796 106.975C65.0941 108.112 67.989 109.78 78.3007 111.971C87.3072 113.902 97.562 115.051 106.148 111.731C106.194 111.716 106.236 111.692 106.272 111.66C106.308 111.629 106.338 111.59 106.359 111.547C106.38 111.503 106.392 111.456 106.394 111.408C106.396 111.36 106.388 111.312 106.371 111.267Z" fill="#191919"/>
<path d="M68.9126 111.534C64.3314 111.33 60.128 117.821 64.6053 120.319C64.6361 120.344 64.6716 120.363 64.7099 120.375C64.7482 120.386 64.7884 120.39 64.8281 120.385C64.8678 120.381 64.9063 120.369 64.9411 120.349C64.976 120.33 65.0065 120.303 65.031 120.272C65.0558 120.241 65.0743 120.205 65.0854 120.167C65.0965 120.129 65.1 120.089 65.0956 120.049C65.0912 120.01 65.0791 119.972 65.06 119.937C65.0408 119.902 65.015 119.871 64.984 119.847C64.6303 119.45 64.3479 118.994 64.1491 118.501C63.1813 116.243 65.2117 113.905 67.459 112.833C67.9371 112.582 68.4434 112.39 68.9671 112.26C69.0147 112.256 69.0612 112.243 69.1039 112.222C69.1466 112.2 69.1846 112.171 69.2158 112.134C69.247 112.098 69.2707 112.056 69.2856 112.011C69.3006 111.965 69.3064 111.917 69.3028 111.87C69.2993 111.822 69.2863 111.776 69.2648 111.733C69.2432 111.69 69.2135 111.652 69.1773 111.621C69.141 111.59 69.099 111.566 69.0536 111.551C69.0082 111.536 68.9603 111.53 68.9126 111.534Z" fill="#191919"/>
<path d="M72.0137 120.326C71.9331 120.322 71.8543 120.351 71.7946 120.405C71.7349 120.46 71.6991 120.535 71.695 120.616C71.6908 120.697 71.7187 120.776 71.7725 120.836C71.8264 120.896 71.9018 120.932 71.9824 120.937C72.0368 120.943 72.0649 121.007 72.1061 121.053C72.1707 121.196 72.2015 121.353 72.1962 121.51C72.1909 121.667 72.1497 121.821 72.0756 121.96C71.904 122.303 71.197 122.478 70.8068 122.478C68.3441 122.501 67.7963 120.138 69.0594 117.97C69.8795 116.563 70.5205 116.688 70.2276 116.198C69.8918 115.64 68.7212 116.674 68.2938 117.15C66.4689 119.224 66.6793 123.721 70.8224 123.668C71.2741 123.69 71.7229 123.585 72.1189 123.367C72.5148 123.148 72.8423 122.824 73.0648 122.43C73.4352 121.261 72.7216 120.273 72.0137 120.326Z" fill="#191919"/>
<path d="M109.703 129.14C109.689 129.061 109.645 128.991 109.579 128.945C109.514 128.899 109.434 128.88 109.355 128.892C99.775 129.936 87.8372 127.776 80.4494 124.083C78.6703 123.237 77.0282 122.129 75.5777 120.796C75.5445 120.761 75.5045 120.732 75.4602 120.713C75.4159 120.693 75.3681 120.683 75.3197 120.682C75.2712 120.681 75.2231 120.69 75.1781 120.708C75.1331 120.726 75.0922 120.752 75.0576 120.786C75.0231 120.82 74.9958 120.861 74.9772 120.906C74.9585 120.95 74.949 120.998 74.9492 121.047C74.9494 121.095 74.9593 121.143 74.9782 121.188C74.9972 121.232 75.0249 121.273 75.0596 121.307C76.467 122.824 78.1108 124.104 79.9271 125.096C84.9217 127.79 95.4074 130.541 103.45 130.261C105.473 130.192 107.485 129.936 109.46 129.495C109.538 129.479 109.607 129.432 109.652 129.366C109.697 129.3 109.716 129.219 109.703 129.14Z" fill="#191919"/>
<path d="M10.6487 53.8358C10.4152 52.4283 10.3657 48.5863 8.83367 45.4208C8.33289 44.3846 7.74879 43.9614 7.25379 43.8607C5.57822 43.5126 4.45457 46.212 4.21449 47.843C4.05128 49.5408 4.14529 51.2536 4.49334 52.9233C4.69382 53.9059 4.98009 54.8646 5.22017 55.8315C5.23762 55.9267 5.29217 56.0112 5.37184 56.0662C5.4515 56.1213 5.54976 56.1425 5.64504 56.1252C5.69249 56.1169 5.73783 56.0993 5.77839 56.0734C5.81895 56.0474 5.85393 56.0136 5.88128 55.974C5.90863 55.9344 5.9278 55.8897 5.93766 55.8425C5.94753 55.7954 5.9479 55.7468 5.93874 55.6995C5.71599 53.6081 5.06342 50.0342 5.40579 48.0212C5.54934 46.9726 6.37434 45.0446 6.96752 45.0446C7.25709 45.0446 7.61349 45.6947 7.74137 45.957C8.87244 48.2456 8.92937 50.3601 10.0514 53.9686C10.0693 54.0474 10.1176 54.1158 10.1857 54.1592C10.2538 54.2026 10.3362 54.2174 10.4152 54.2004C10.4931 54.1806 10.5606 54.1319 10.6039 54.0642C10.6473 53.9965 10.6633 53.9149 10.6487 53.8358Z" fill="#191919"/>
<path d="M15.9589 53.3779C15.8252 52.3755 15.7196 51.3748 15.5414 50.3774C15.3005 49.0037 14.9384 47.64 14.6133 45.9925C14.4731 45.2995 14.0696 44.0042 14.5671 43.5257C14.6603 43.4333 14.7684 43.4721 14.8691 43.5257C15.4647 43.9374 15.9525 44.4864 16.2914 45.1262C17.7194 47.7753 17.8044 50.4351 19.0914 53.9348C19.0998 53.9753 19.1165 54.0137 19.1404 54.0475C19.1643 54.0813 19.195 54.1098 19.2304 54.1313C19.2659 54.1527 19.3053 54.1666 19.3464 54.1721C19.3874 54.1776 19.4292 54.1745 19.469 54.1632C19.5088 54.1518 19.5459 54.1323 19.5778 54.106C19.6098 54.0796 19.636 54.047 19.6547 54.01C19.6735 53.9731 19.6844 53.9327 19.6869 53.8914C19.6893 53.85 19.6832 53.8086 19.6689 53.7698C19.3001 51.8129 19.0625 47.7472 17.3589 44.552C16.8961 43.6942 16.2262 42.9657 15.4103 42.4326C15.1425 42.2705 14.8269 42.2059 14.5169 42.2497C14.207 42.2934 13.9216 42.4428 13.7091 42.6727C12.7571 43.6247 13.1885 45.0231 13.4385 46.2301C14.2107 49.865 14.8517 51.7716 15.2321 53.4901C15.2489 53.5847 15.3018 53.6692 15.3797 53.7255C15.4576 53.7819 15.5544 53.8057 15.6495 53.792C15.7444 53.776 15.8295 53.724 15.8871 53.6469C15.9447 53.5698 15.9704 53.4734 15.9589 53.3779Z" fill="#191919"/>
<path d="M22.533 67.063C22.5147 66.9867 22.468 66.9203 22.4023 66.8774C22.3367 66.8346 22.2571 66.8184 22.18 66.8324C22.1028 66.8463 22.0339 66.8892 21.9874 66.9524C21.9409 67.0155 21.9203 67.094 21.9299 67.1719C21.9299 67.4878 21.5232 69.8317 21.4423 70.1328C21.3689 70.4001 21.1569 71.1063 20.878 71.0073C20.6165 70.8924 20.3806 70.7265 20.1841 70.5192C19.9876 70.3119 19.8345 70.0675 19.7337 69.8003C19.4293 69.1708 19.445 68.9613 18.6819 66.808C18.66 66.7126 18.6011 66.6298 18.5182 66.5778C18.4352 66.5259 18.3351 66.5089 18.2397 66.5308C18.1443 66.5527 18.0615 66.6116 18.0095 66.6945C17.9575 66.7774 17.9406 66.8776 17.9625 66.973C17.9568 68.1199 18.1912 69.2552 18.6505 70.306C18.8125 70.7224 19.0581 71.1012 19.3721 71.419C19.6861 71.7368 20.0619 71.987 20.4762 72.154C22.5478 72.885 23.2416 69.0628 22.533 67.063Z" fill="#191919"/>
<path d="M10.6779 56.0485C10.5517 55.6682 9.3901 55.966 9.20118 56.0254C7.62606 56.7095 6.28682 57.8416 5.35008 59.2809C5.11908 59.6661 4.6414 60.534 5.02008 60.7733C5.58438 61.133 6.34008 59.5787 7.8193 58.2983C8.39545 57.8196 9.01432 57.3949 9.66813 57.0294C9.74815 56.9799 10.7835 56.3472 10.6779 56.0485Z" fill="#191919"/>
<path d="M11.633 60.1735C11.468 59.8047 10.3732 60.2164 10.1249 60.3385C8.80971 61.1312 7.65755 62.1672 6.73004 63.391C6.44542 63.7705 5.80604 64.6904 6.18142 64.9767C6.46439 65.2027 6.75397 64.9767 7.47254 64.2804C7.95187 63.8167 8.11439 63.5461 9.04994 62.6485C9.59393 62.1474 10.1672 61.6791 10.7668 61.246C10.8517 61.1825 11.7691 60.4557 11.633 60.1735Z" fill="#191919"/>
<path d="M13.2622 65.1035C13.0741 64.7784 11.9315 65.3172 11.8086 65.3823C10.377 66.2795 9.07823 67.3728 7.95005 68.6304C7.67615 68.976 7.07061 69.7853 7.40061 70.0832C7.70998 70.3463 8.10846 69.9899 8.91613 69.2714C11.189 67.2518 10.8961 67.5389 12.1642 66.5192C12.4546 66.289 13.4776 65.4228 13.2622 65.1035Z" fill="#191919"/>
<path d="M22.3152 59.1876C21.8437 58.662 21.2716 58.2364 20.6326 57.9361C19.9936 57.6358 19.3007 57.4669 18.5952 57.4395C18.1266 57.451 17.1548 57.4807 17.1721 57.9501C17.1853 58.3016 17.4939 58.2917 18.1085 58.4138C19.1101 58.5683 20.0656 58.9406 20.9077 59.5044C21.2097 59.7288 21.4612 60.0141 21.646 60.3418C21.8307 60.6695 21.9446 61.0324 21.9802 61.4069C22.1221 62.6279 21.9596 62.7723 22.2665 62.8605C22.6369 62.9901 22.9314 62.1131 23.0247 61.7311C23.1145 61.2812 23.0971 60.8165 22.9739 60.3746C22.8506 59.9327 22.6249 59.526 22.3152 59.1876Z" fill="#191919"/>
<path d="M65.5134 71.8348C65.7609 74.7314 66.2625 77.4448 66.279 80.8273C66.2931 84.9325 65.2065 89.9485 61.329 91.29C58.807 92.1496 55.4971 90.8931 53.9667 87.1996C53.4081 85.6777 52.9965 84.1058 52.7375 82.5054C52.2549 79.952 51.335 77.0455 50.9819 73.9757C50.9736 73.9279 50.975 73.879 50.9859 73.8318C50.9968 73.7846 51.017 73.7401 51.0454 73.7008C51.0738 73.6615 51.1097 73.6282 51.1511 73.603C51.1924 73.5778 51.2384 73.5611 51.2863 73.5539C51.3343 73.5467 51.3831 73.5492 51.4301 73.5611C51.477 73.5731 51.5211 73.5943 51.5598 73.6235C51.5984 73.6527 51.6309 73.6894 51.6552 73.7313C51.6795 73.7732 51.6951 73.8196 51.7013 73.8676C52.0989 75.9128 52.6517 77.6387 53.1937 79.551C54.3025 83.6059 54.1969 84.6834 55.0648 86.7426C56.4269 89.9023 59.038 90.7958 60.9347 90.1374C63.8181 89.1474 64.8171 85.4102 65.0333 82.3742C65.2734 79.1394 64.6851 76.0217 64.6851 71.3233C64.6829 71.2611 64.6954 71.1992 64.7217 71.1428C64.7479 71.0863 64.7871 71.0368 64.8361 70.9984C64.885 70.9599 64.9424 70.9336 65.0035 70.9216C65.0646 70.9095 65.1276 70.912 65.1876 70.929C65.7576 71.1468 66.0291 71.2317 67.1131 71.6871C67.1847 71.7188 67.2414 71.7767 67.2716 71.8489C67.3018 71.9211 67.3032 72.0021 67.2756 72.0753C67.2479 72.1485 67.1932 72.2083 67.1228 72.2424C67.0524 72.2766 66.9716 72.2825 66.897 72.2589C66.0777 72.0006 65.7205 71.9033 65.5134 71.8348Z" fill="#191919"/>
<path d="M76.2519 92.4885C73.1375 90.519 70.605 87.7545 68.9153 84.4799C67.2257 81.2054 66.4402 77.5393 66.6398 73.86C66.6462 73.7649 66.6892 73.6759 66.7598 73.6119C66.8305 73.5479 66.9232 73.5138 67.0185 73.5168C67.1138 73.5198 67.2042 73.5596 67.2706 73.628C67.3371 73.6963 67.3745 73.7877 67.3749 73.8831C67.4063 75.6518 67.6557 77.41 68.1174 79.1177C69.3808 84.3092 72.6291 88.7986 77.1651 91.6222C77.2491 91.6756 77.319 91.7484 77.3687 91.8346C77.4184 91.9208 77.4465 92.0178 77.4506 92.1172C77.7285 97.2431 77.6096 102.383 77.095 107.49C77.0937 107.53 77.0843 107.569 77.0675 107.605C77.0507 107.641 77.0269 107.674 76.9973 107.701C76.9677 107.727 76.9331 107.748 76.8955 107.761C76.8578 107.774 76.818 107.779 76.7782 107.777C76.6994 107.773 76.6252 107.738 76.5717 107.681C76.5181 107.623 76.4895 107.546 76.4919 107.467C76.4845 106.562 76.3063 93.9116 76.2519 92.4885Z" fill="#191919"/>
<path d="M34.0946 87.8958C34.0822 87.8174 34.0396 87.7468 33.976 87.6992C33.9124 87.6516 33.8327 87.6307 33.7539 87.6409C32.158 87.7786 30.5504 87.6636 28.9903 87.3002C22.4827 85.9167 17.5171 80.805 13.6635 75.3765C13.3467 74.9277 12.4615 73.6605 12.3344 73.479C13.1693 74.0367 14.3969 74.7297 15.2219 74.139C15.4982 73.8813 15.701 73.5548 15.8096 73.193C15.9182 72.8312 15.9286 72.447 15.8398 72.0798C15.6902 70.8745 15.3673 69.6972 14.8812 68.5842C14.618 68.0067 14.3557 67.5637 14.2393 67.2849C14.2163 67.2089 14.1648 67.1448 14.0957 67.1059C14.0265 67.067 13.9449 67.0563 13.8681 67.0761C13.8298 67.0864 13.7939 67.1042 13.7626 67.1286C13.7312 67.1529 13.7051 67.1833 13.6856 67.2178C13.6662 67.2524 13.6538 67.2905 13.6493 67.33C13.6448 67.3694 13.6482 67.4093 13.6594 67.4474C13.7171 67.9386 13.7997 68.4265 13.9069 68.9093C14.1082 69.8415 15.028 72.9411 14.533 73.1391C14.1882 73.3115 12.6809 72.319 12.2445 71.9478C12.2445 71.9478 10.5202 70.6022 10.3808 70.4553C10.3141 70.3854 10.223 70.3439 10.1264 70.3396C10.0299 70.3353 9.93537 70.3685 9.86272 70.4322C9.61522 70.6533 9.78517 70.8447 9.95594 71.1698C10.5425 72.2753 11.1159 73.4583 11.8196 74.6183C14.3529 78.8923 17.7507 82.5902 21.7955 85.4753C25.5493 87.9915 29.4721 89.1985 33.8405 88.244C33.9201 88.231 33.9914 88.1872 34.039 88.122C34.0865 88.0569 34.1065 87.9756 34.0946 87.8958Z" fill="#191919"/>
<path d="M45.909 73.0615C45.8869 72.9665 45.8283 72.884 45.7458 72.832C45.6634 72.7799 45.5637 72.7625 45.4684 72.7835C41.2996 73.556 37.1726 74.5393 33.1033 75.7296C32.9599 75.7703 32.8375 75.8641 32.7608 75.9919C32.6842 76.1197 32.6592 76.272 32.6908 76.4176L32.7073 76.4902C31.7704 76.4159 30.8405 76.2708 29.9254 76.0563C27.8162 75.4455 25.873 74.3643 24.242 72.8941C23.9508 72.6532 23.3048 72.1516 22.9278 71.8265C22.8963 71.7896 22.8578 71.7595 22.8144 71.7379C22.771 71.7163 22.7236 71.7037 22.6752 71.7008C22.6269 71.698 22.5784 71.7049 22.5327 71.7213C22.4871 71.7376 22.4453 71.763 22.4097 71.796C22.3387 71.8601 22.2956 71.9494 22.2897 72.0449C22.2839 72.1404 22.3157 72.2344 22.3783 72.3067C22.7703 72.9086 23.2268 73.466 23.7396 73.969C26.0554 76.1215 29.8314 78.0264 32.8616 77.1931C33.949 82.2949 35.6666 92.9185 35.792 94.0801C35.8034 94.1874 35.8432 94.2898 35.9075 94.3766C35.9718 94.4633 36.0582 94.5313 36.1576 94.5734C36.2571 94.6155 36.366 94.6302 36.473 94.616C36.5801 94.6018 36.6813 94.5592 36.7663 94.4926C38.536 93.0901 40.8022 91.4293 42.6238 90.1151C42.7525 92.3797 42.7517 93.689 42.9175 96.0469C42.9191 96.0865 42.9284 96.1255 42.9449 96.1615C42.9615 96.1976 42.985 96.23 43.0141 96.257C43.0433 96.2839 43.0774 96.3049 43.1146 96.3187C43.1518 96.3325 43.1914 96.3388 43.231 96.3373C43.2707 96.3357 43.3097 96.3264 43.3457 96.3099C43.3818 96.2933 43.4142 96.2698 43.4412 96.2406C43.4681 96.2115 43.4891 96.1774 43.5029 96.1402C43.5166 96.103 43.523 96.0634 43.5214 96.0238C43.4389 92.7609 43.7029 92.7238 43.6683 89.0641C43.663 88.9649 43.6314 88.8689 43.5768 88.786C43.5222 88.7031 43.4465 88.6362 43.3575 88.5921C43.2686 88.548 43.1695 88.5284 43.0704 88.5352C42.9713 88.542 42.8759 88.5751 42.7938 88.6309C40.94 89.9047 38.6869 91.4747 36.8538 92.8921C36.7647 92.1314 34.934 81.0657 33.9663 76.699C35.8844 76.1215 45.5361 73.5244 45.6202 73.5046C45.6687 73.4953 45.7148 73.4763 45.7558 73.4488C45.7968 73.4213 45.8318 73.3858 45.8588 73.3444C45.8858 73.3031 45.9041 73.2567 45.9127 73.2081C45.9213 73.1595 45.9201 73.1096 45.909 73.0615Z" fill="#191919"/>
<path d="M50.4704 102.008C49.5258 101.869 44.0115 101.572 44.0907 102.603C44.1245 103.047 44.8777 103.042 45.7531 103.091C49.3476 103.091 49.3006 103.168 50.0917 103.137C50.5174 103.12 51.8242 103.016 51.8242 102.588C51.8234 102.255 51.2385 102.122 50.4704 102.008Z" fill="#191919"/>
<path d="M50.0945 105.105C50.012 105.105 46.2475 105.057 45.5322 105.113C45.0941 105.151 44.0777 105.247 44.086 105.685C44.0951 106.15 45.0257 106.205 45.7409 106.25C47.3221 106.352 48.9084 106.347 50.4888 106.234C52.6297 105.88 52.2411 105.105 50.0945 105.105Z" fill="#191919"/>
<path d="M41.3511 101.415C41.1978 101.416 41.048 101.462 40.9209 101.548C40.7937 101.634 40.6947 101.755 40.6364 101.897C40.5781 102.039 40.5631 102.195 40.5933 102.345C40.6235 102.496 40.6975 102.634 40.806 102.742C40.9146 102.85 41.0527 102.924 41.2032 102.954C41.3536 102.984 41.5095 102.969 41.6513 102.911C41.7932 102.852 41.9145 102.753 42.0001 102.626C42.0857 102.499 42.1318 102.349 42.1324 102.195C42.1329 102.093 42.1129 101.991 42.0738 101.896C42.0347 101.801 41.9772 101.715 41.9045 101.642C41.8319 101.57 41.7456 101.512 41.6506 101.473C41.5556 101.434 41.4538 101.415 41.3511 101.415Z" fill="#191919"/>
<path d="M41.5386 104.836C41.3853 104.837 41.2356 104.883 41.1084 104.969C40.9813 105.054 40.8823 105.176 40.824 105.318C40.7657 105.459 40.7506 105.615 40.7808 105.766C40.8109 105.916 40.8848 106.054 40.9932 106.163C41.1017 106.271 41.2398 106.345 41.3901 106.375C41.5405 106.405 41.6964 106.39 41.8383 106.332C41.9801 106.274 42.1015 106.175 42.1872 106.047C42.2729 105.92 42.3191 105.771 42.3199 105.617C42.3205 105.514 42.3006 105.413 42.2616 105.318C42.2225 105.223 42.165 105.136 42.0923 105.064C42.0196 104.991 41.9333 104.933 41.8383 104.894C41.7432 104.855 41.6414 104.835 41.5386 104.836Z" fill="#191919"/>
<path d="M56.8668 102.324C56.8668 102.53 56.7849 102.728 56.6392 102.874C56.4934 103.019 56.2958 103.101 56.0897 103.101C55.8835 103.101 55.6859 103.019 55.5401 102.874C55.3944 102.728 55.3125 102.53 55.3125 102.324C55.3125 102.118 55.3944 101.92 55.5401 101.775C55.6859 101.629 55.8835 101.547 56.0897 101.547C56.2958 101.547 56.4934 101.629 56.6392 101.775C56.7849 101.92 56.8668 102.118 56.8668 102.324Z" fill="#191919"/>
<path d="M67.4703 101.686C66.4872 101.601 65.4983 101.606 64.516 101.701C59.1387 102.013 58.7286 101.775 58.6701 102.278C58.6148 102.764 59.6601 102.899 60.4488 102.998C61.888 103.051 63.3291 103.017 64.7643 102.897C65.2841 102.865 66.8821 102.79 67.4043 102.727C68.7837 102.571 68.9116 102.495 68.9273 102.263C68.9504 101.887 68.0462 101.763 67.4703 101.686Z" fill="#191919"/>
<path d="M68.228 104.85C67.158 104.801 66.0861 104.822 65.0188 104.912C64.6384 104.946 63.7813 105.14 63.8052 105.539C63.8308 105.982 64.6376 106.044 65.2126 106.064C65.6524 106.08 67.8741 106.047 68.3056 105.963C68.5745 105.897 69.3335 105.699 69.3261 105.386C69.3187 105.072 68.3716 104.87 68.228 104.85Z" fill="#191919"/>
<path d="M95.5936 91.5898C95.1171 91.5201 94.6352 91.4939 94.154 91.5114C94.1812 90.99 93.9972 87.7544 93.989 87.6694C93.8462 85.3899 92.8628 85.6614 92.829 87.5151C92.8065 88.8696 92.879 90.224 93.046 91.5684C92.7372 91.5946 92.4301 91.6378 92.1261 91.6979C91.7334 91.8208 91.0536 92.0279 91.113 92.4173C91.1724 92.8067 92.221 92.8298 92.3967 92.8116C92.6822 92.8116 93.0567 92.744 94.2521 92.7291C94.6003 92.7209 94.9484 92.7291 95.304 92.7135C95.6117 92.6937 96.5564 92.5658 96.5877 92.2185C96.6207 91.8885 95.7149 91.6179 95.5936 91.5898Z" fill="#191919"/>
<path d="M101.591 91.9786C101.17 91.92 100.743 91.9134 100.32 91.9588C100.329 91.2908 100.29 90.623 100.203 89.9607C99.9415 86.8611 100.038 87.7389 99.9935 87.3545C99.9794 87.1029 99.8285 85.8076 99.3904 85.8076C98.968 85.8076 98.9127 86.4957 98.8492 87.192C98.8485 88.822 98.9921 90.4489 99.2782 92.0537C99.1668 92.0702 99.0563 92.0883 98.9482 92.1106C98.6083 92.1849 97.8996 92.4183 97.9433 92.7987C97.9846 93.1435 98.8335 93.2747 99.3038 93.2475C99.7295 93.2318 100.155 93.193 100.587 93.165C100.866 93.1501 101.145 93.1559 101.423 93.1188C101.778 93.0717 102.492 92.8308 102.513 92.6007C102.54 92.2847 101.782 92.0091 101.591 91.9786Z" fill="#191919"/>
<path d="M103.4 94.6083C103.395 94.4627 103.338 94.3239 103.238 94.2176C103.139 94.1113 103.004 94.0449 102.859 94.0308C101.056 93.7831 99.2218 93.891 97.4602 94.3484L97.4751 93.9054C97.4808 93.7576 97.4319 93.6129 97.3377 93.4989C97.2435 93.385 97.1106 93.3097 96.9644 93.2875C94.8388 93.1696 92.7069 93.2366 90.5929 93.4879C90.4534 93.5156 90.3277 93.5909 90.2375 93.7009C90.1472 93.8108 90.0979 93.9487 90.0979 94.091C90.1317 95.8235 90.1573 97.556 90.1994 99.2885C89.4239 99.3017 88.7482 99.3215 87.9496 99.3438C88.108 97.6908 88.1519 96.0289 88.0808 94.3699C88.8534 94.1174 89.5088 93.5944 89.9266 92.8971C90.3443 92.1999 90.4963 91.3752 90.3545 90.5749C90.2976 90.1247 90.215 89.6782 90.107 89.2375C90.1017 89.158 90.0657 89.0837 90.0065 89.0303C89.9474 88.9769 89.8698 88.9485 89.7902 88.9513C89.7502 88.952 89.7108 88.961 89.6744 88.9776C89.638 88.9942 89.6053 89.018 89.5785 89.0477C89.5517 89.0774 89.5312 89.1123 89.5184 89.1502C89.5056 89.1881 89.5006 89.2282 89.5039 89.2681C89.4577 89.6698 89.3958 90.0931 89.3265 90.5204C89.2275 91.5541 89.0023 92.5978 88.1072 93.0639C88.2236 91.8113 88.1796 90.549 87.976 89.3077C87.9745 89.2594 87.9635 89.212 87.9437 89.168C87.9239 89.1241 87.8955 89.0844 87.8604 89.0514C87.8252 89.0184 87.7839 88.9926 87.7387 88.9756C87.6936 88.9585 87.6456 88.9506 87.5973 88.9521C87.5494 88.9526 87.5021 88.9627 87.4581 88.9817C87.4142 89.0007 87.3744 89.0284 87.3412 89.0629C87.308 89.0975 87.2821 89.1383 87.2649 89.183C87.2477 89.2277 87.2395 89.2755 87.2409 89.3233C87.0519 90.5485 86.94 91.7843 86.906 93.0235C86.4401 92.4468 86.2049 91.7177 86.246 90.9775C86.2039 90.475 86.1684 89.9949 86.1684 89.575C86.1768 89.5259 86.175 89.4756 86.1632 89.4272C86.1515 89.3788 86.13 89.3333 86.1 89.2935C86.0701 89.2537 86.0324 89.2205 85.9891 89.1957C85.9459 89.171 85.8981 89.1554 85.8486 89.1497C85.7991 89.1441 85.749 89.1487 85.7014 89.1631C85.6537 89.1775 85.6095 89.2014 85.5714 89.2335C85.5333 89.2656 85.5021 89.3051 85.4798 89.3496C85.4575 89.3941 85.4445 89.4428 85.4416 89.4925C85.3298 89.9093 85.2447 90.3328 85.1867 90.7605C84.9953 92.2133 85.4631 93.9433 86.8738 94.3591C86.868 95.152 86.8689 95.9448 86.8829 96.731C86.8593 97.6127 86.8982 98.4949 86.9992 99.371C85.4515 99.4189 83.5441 99.4873 82.1004 99.5236C82.2819 97.8115 82.3351 96.0883 82.2596 94.3682C83.0299 94.1119 83.6831 93.5884 84.1009 92.8923C84.5187 92.1962 84.6735 91.3736 84.5374 90.5732C84.4912 90.1096 84.3724 89.6657 84.2899 89.2359C84.2838 89.1552 84.2464 89.0801 84.1856 89.0266C84.1249 88.9731 84.0457 88.9455 83.9649 88.9496C83.885 88.9539 83.81 88.9896 83.7564 89.049C83.7027 89.1083 83.6748 89.1865 83.6786 89.2664C83.6324 89.6682 83.5705 90.0914 83.5086 90.5188C83.3634 91.5376 83.2389 92.5681 82.2852 93.0622C82.4029 91.8095 82.3563 90.5467 82.1466 89.306C82.1466 89.258 82.1369 89.2104 82.1181 89.1662C82.0992 89.122 82.0716 89.0821 82.0369 89.0489C82.0023 89.0156 81.9612 88.9898 81.9162 88.9729C81.8712 88.956 81.8233 88.9483 81.7753 88.9504C81.7275 88.9511 81.6802 88.9612 81.6364 88.9803C81.5925 88.9994 81.5528 89.027 81.5197 89.0616C81.4866 89.0961 81.4608 89.1369 81.4436 89.1816C81.4264 89.2262 81.4183 89.2739 81.4197 89.3217C81.2296 90.5464 81.1177 91.782 81.0848 93.021C80.6233 92.4426 80.3905 91.7147 80.4306 90.9758C80.3918 90.4726 80.3538 89.9932 80.3481 89.5733C80.3598 89.4768 80.3332 89.3795 80.274 89.3023C80.2147 89.2252 80.1276 89.1744 80.0313 89.1608C79.9338 89.1511 79.8364 89.1796 79.7595 89.2402C79.6826 89.3008 79.6322 89.3889 79.6188 89.4859C79.1905 90.6902 79.2264 92.0109 79.7194 93.1901C79.849 93.4661 80.0346 93.712 80.2644 93.9123C80.4942 94.1126 80.7632 94.2628 81.0543 94.3534C81.0493 95.1462 81.0543 95.939 81.0642 96.7244C81.0362 97.6643 81.082 98.6049 81.2011 99.5377C80.3538 99.555 79.4934 99.5665 78.6139 99.5665C78.5306 99.5648 78.4478 99.5808 78.3712 99.6135C78.2946 99.6463 78.2258 99.695 78.1695 99.7565C78.1132 99.8179 78.0706 99.8907 78.0447 99.9699C78.0188 100.049 78.01 100.133 78.0191 100.216C78.1565 102.677 78.4319 105.128 78.8441 107.558C78.8567 107.637 78.8989 107.708 78.962 107.757C79.0252 107.806 79.1045 107.829 79.184 107.821C79.2231 107.817 79.261 107.806 79.2955 107.787C79.33 107.768 79.3604 107.743 79.385 107.712C79.4095 107.681 79.4276 107.646 79.4383 107.608C79.449 107.57 79.452 107.531 79.4472 107.491C79.3482 105.594 79.5041 103.884 79.2533 100.755C84.1125 100.755 85.8904 100.545 90.1829 100.462C90.1632 102.462 90.2458 104.463 90.4304 106.455C90.4348 106.549 90.4751 106.637 90.5427 106.701C90.6104 106.766 90.7003 106.802 90.7938 106.802C90.8873 106.802 90.9772 106.766 91.0449 106.701C91.1125 106.637 91.1528 106.549 91.1572 106.455C91.4073 102.506 91.4571 98.5474 91.3065 94.5934C91.9665 94.5241 95.8061 94.3954 96.24 94.4235C95.9975 103.612 96.2763 103.363 96.3225 105.272C96.3229 105.353 96.3546 105.43 96.411 105.488C96.4673 105.546 96.5439 105.579 96.6245 105.582C96.7051 105.582 96.7826 105.55 96.8403 105.494C96.898 105.438 96.9313 105.361 96.933 105.28C97.296 100.516 97.2168 101.348 97.428 95.1379C99.0219 95.0351 100.621 95.0475 102.213 95.1751C102.475 103.536 102.35 101.424 102.723 104.663C102.727 104.741 102.761 104.815 102.818 104.869C102.875 104.923 102.95 104.953 103.029 104.953C103.107 104.953 103.182 104.923 103.239 104.869C103.296 104.815 103.33 104.741 103.334 104.663C103.647 101.962 103.659 102.475 103.4 94.6083Z" fill="#191919"/>
<path d="M28.9297 36.4309C28.9297 36.8944 29.1138 37.3388 29.4415 37.6665C29.7692 37.9942 30.2136 38.1783 30.677 38.1783C31.1405 38.1783 31.5849 37.9942 31.9126 37.6665C32.2403 37.3388 32.4244 36.8944 32.4244 36.4309C32.4244 35.9675 32.2403 35.5231 31.9126 35.1954C31.5849 34.8677 31.1405 34.6836 30.677 34.6836C30.2136 34.6836 29.7692 34.8677 29.4415 35.1954C29.1138 35.5231 28.9297 35.9675 28.9297 36.4309Z" fill="#64876F"/>
<path d="M30.6797 34.3155C30.3842 34.287 30.0859 34.3206 29.804 34.4141C29.5222 34.5076 29.263 34.659 29.0431 34.8586C28.8232 35.0581 28.6474 35.3014 28.5271 35.5729C28.4067 35.8444 28.3444 36.138 28.3442 36.4349C28.3383 36.7453 28.3944 37.0537 28.5092 37.3421C28.6239 37.6305 28.795 37.8932 29.0124 38.1147C29.2298 38.3363 29.4892 38.5123 29.7754 38.6324C30.0616 38.7525 30.3689 38.8144 30.6793 38.8144C30.9897 38.8144 31.297 38.7525 31.5832 38.6324C31.8695 38.5123 32.1289 38.3363 32.3463 38.1147C32.5637 37.8932 32.7348 37.6305 32.8495 37.3421C32.9642 37.0537 33.0203 36.7453 33.0145 36.4349C32.9691 35.1611 32.2093 34.3551 30.6797 34.3155ZM30.6797 35.0506C31.0029 35.1125 31.2948 35.284 31.5062 35.5363C31.7175 35.7885 31.8353 36.1059 31.8397 36.4349C31.8397 36.7413 31.718 37.035 31.5014 37.2516C31.2848 37.4682 30.991 37.5899 30.6847 37.5899C30.3784 37.5899 30.0846 37.4682 29.868 37.2516C29.6514 37.035 29.5297 36.7413 29.5297 36.4349C29.5237 36.1047 29.6366 35.7833 29.8476 35.5292C30.0587 35.2751 30.354 35.1053 30.6797 35.0506Z" fill="#191919"/>
<path d="M34.5625 36.2278C34.5625 36.6912 34.7466 37.1357 35.0743 37.4634C35.402 37.7911 35.8464 37.9752 36.3098 37.9752C36.7733 37.9752 37.2177 37.7911 37.5454 37.4634C37.8731 37.1357 38.0572 36.6912 38.0572 36.2278C38.0572 35.7644 37.8731 35.3199 37.5454 34.9923C37.2177 34.6646 36.7733 34.4805 36.3098 34.4805C35.8464 34.4805 35.402 34.6646 35.0743 34.9923C34.7466 35.3199 34.5625 35.7644 34.5625 36.2278Z" fill="#64876F"/>
<path d="M36.3082 34.1113C36.0127 34.0829 35.7146 34.1166 35.4329 34.2101C35.1511 34.3036 34.892 34.455 34.6722 34.6544C34.4523 34.8538 34.2765 35.097 34.1561 35.3683C34.0356 35.6396 33.9731 35.9331 33.9727 36.2299C33.9727 36.5366 34.0331 36.8403 34.1504 37.1237C34.2678 37.4071 34.4398 37.6645 34.6567 37.8814C34.8736 38.0983 35.1311 38.2703 35.4144 38.3877C35.6978 38.5051 36.0015 38.5655 36.3082 38.5655C36.6149 38.5655 36.9187 38.5051 37.202 38.3877C37.4854 38.2703 37.7429 38.0983 37.9597 37.8814C38.1766 37.6645 38.3486 37.4071 38.466 37.1237C38.5834 36.8403 38.6438 36.5366 38.6438 36.2299C38.5976 34.957 37.8378 34.155 36.3082 34.1113ZM36.3082 34.8464C36.6314 34.908 36.9234 35.0793 37.1348 35.3314C37.3461 35.5836 37.4639 35.901 37.4682 36.2299C37.4682 36.5363 37.3465 36.83 37.1299 37.0466C36.9133 37.2632 36.6195 37.3849 36.3132 37.3849C36.0069 37.3849 35.7131 37.2632 35.4965 37.0466C35.2799 36.83 35.1582 36.5363 35.1582 36.2299C35.1523 35.8998 35.2651 35.5785 35.4762 35.3245C35.6873 35.0706 35.9826 34.9009 36.3082 34.8464Z" fill="#191919"/>
<path d="M40.5703 36.2278C40.5703 36.6912 40.7544 37.1357 41.0821 37.4634C41.4098 37.7911 41.8542 37.9752 42.3177 37.9752C42.7811 37.9752 43.2255 37.7911 43.5532 37.4634C43.8809 37.1357 44.065 36.6912 44.065 36.2278C44.065 35.7644 43.8809 35.3199 43.5532 34.9923C43.2255 34.6646 42.7811 34.4805 42.3177 34.4805C41.8542 34.4805 41.4098 34.6646 41.0821 34.9923C40.7544 35.3199 40.5703 35.7644 40.5703 36.2278Z" fill="#64876F"/>
<path d="M42.3199 34.1113C42.0245 34.0829 41.7263 34.1166 41.4446 34.2101C41.1628 34.3036 40.9038 34.455 40.6839 34.6544C40.464 34.8538 40.2882 35.097 40.1678 35.3683C40.0473 35.6396 39.9849 35.9331 39.9844 36.2299C39.9844 36.8494 40.2304 37.4434 40.6684 37.8814C41.1065 38.3194 41.7005 38.5655 42.3199 38.5655C42.9394 38.5655 43.5334 38.3194 43.9714 37.8814C44.4095 37.4434 44.6555 36.8494 44.6555 36.2299C44.606 34.957 43.847 34.155 42.3199 34.1113ZM42.3199 34.8464C42.6422 34.909 42.9331 35.0808 43.1434 35.3328C43.3538 35.5848 43.4709 35.9017 43.4749 36.2299C43.4749 36.5363 43.3533 36.83 43.1367 37.0466C42.9201 37.2632 42.6263 37.3849 42.3199 37.3849C42.0136 37.3849 41.7198 37.2632 41.5032 37.0466C41.2866 36.83 41.1649 36.5363 41.1649 36.2299C41.1592 35.899 41.2728 35.5772 41.4849 35.3231C41.6969 35.0691 41.9934 34.8999 42.3199 34.8464Z" fill="#191919"/>
<path d="M61.7996 40.5968C68.5052 40.6793 87.2921 39.2504 94.1924 39.0037C94.2701 39.0022 94.3442 38.9708 94.3993 38.9161C94.4545 38.8613 94.4864 38.7874 94.4884 38.7097C94.4904 38.632 94.4624 38.5565 94.4102 38.499C94.358 38.4414 94.2856 38.4062 94.2081 38.4007C84.8245 37.6928 69.5265 39.3783 61.7856 39.8626C61.7372 39.8636 61.6896 39.8743 61.6454 39.894C61.6012 39.9137 61.5614 39.942 61.5283 39.9772C61.4952 40.0125 61.4694 40.054 61.4526 40.0993C61.4357 40.1447 61.428 40.1929 61.43 40.2412C61.4336 40.3368 61.4742 40.4272 61.5431 40.4936C61.612 40.5599 61.704 40.5969 61.7996 40.5968Z" fill="#191919"/>
<path d="M74.3335 96.8073C60.5255 96.5829 49.5736 97.4483 44.9586 97.4846C46.0609 96.1472 47.0152 94.6945 47.8048 93.1517C50.8771 86.9873 51.9694 78.819 48.2074 72.8757C48.931 72.5946 49.6867 72.4051 50.4572 72.3114C50.5524 72.3016 50.6398 72.2547 50.7006 72.1809C50.7615 72.1071 50.7908 72.0123 50.7823 71.917C50.7726 71.8214 50.726 71.7334 50.6523 71.6717C50.5786 71.61 50.4837 71.5796 50.3879 71.587C49.3041 71.5848 48.23 71.7921 47.2249 72.1975C47.1584 72.2293 47.0993 72.2747 47.0515 72.3306C47.0036 72.3866 46.9679 72.452 46.9468 72.5226C46.8454 73.0044 47.1811 72.8286 48.153 75.2211C51.1106 82.4358 48.3271 90.9382 44.1633 97.4912C41.9044 97.4953 39.6456 97.4532 37.216 97.6141C37.0651 97.6266 36.925 97.6973 36.8254 97.8112C36.7257 97.9252 36.6744 98.0734 36.6822 98.2246C36.9091 102.956 37.126 105.122 37.3834 109.216C33.4168 108.969 29.7332 109.022 27.4084 106.131C23.761 101.635 24.1587 94.4156 24.3154 88.337C24.3191 88.24 24.2848 88.1454 24.2197 88.0733C24.1547 88.0012 24.0642 87.9573 23.9673 87.9509C23.919 87.948 23.8706 87.9548 23.8249 87.9708C23.7793 87.9867 23.7372 88.0117 23.7013 88.0441C23.6654 88.0765 23.6362 88.1157 23.6156 88.1595C23.595 88.2033 23.5833 88.2507 23.5812 88.299C23.3865 91.6881 22.8247 95.394 23.5111 99.7129C23.8587 102.322 24.8794 104.795 26.4728 106.89C29.0179 110.063 32.7428 110.118 36.4875 110.37C43.7583 110.893 51.0631 110.691 58.2939 109.767C58.373 109.758 58.4454 109.718 58.4959 109.657C58.5464 109.595 58.571 109.517 58.5645 109.437C58.5613 109.398 58.5503 109.36 58.5322 109.325C58.5141 109.29 58.4893 109.259 58.4591 109.234C58.4289 109.209 58.394 109.19 58.3564 109.178C58.3189 109.167 58.2794 109.163 58.2403 109.167C57.1587 109.238 56.0672 109.243 54.9848 109.282C49.0976 109.447 43.5264 109.559 38.1334 109.264C38.1169 107.825 37.8859 99.6939 37.8578 98.7468C40.9986 98.5992 44.4405 98.7658 47.6242 98.6231C56.2042 98.2362 65.1587 97.7527 73.7305 97.9507C73.6645 103.561 73.9681 104.651 74.0481 108.452C74.0486 108.492 74.0571 108.532 74.0729 108.569C74.0887 108.605 74.1117 108.639 74.1404 108.667C74.1691 108.695 74.2031 108.717 74.2403 108.732C74.2776 108.746 74.3174 108.754 74.3575 108.753C74.3966 108.753 74.4353 108.745 74.4713 108.73C74.5074 108.714 74.54 108.692 74.5673 108.664C74.5946 108.636 74.6161 108.603 74.6305 108.567C74.6449 108.53 74.6519 108.491 74.6512 108.452C74.6974 106.233 74.8162 98.8821 74.8912 97.4095C74.8952 97.3331 74.8839 97.2567 74.8578 97.1847C74.8318 97.1128 74.7916 97.0468 74.7396 96.9906C74.6876 96.9345 74.6249 96.8893 74.5551 96.8578C74.4854 96.8263 74.41 96.8092 74.3335 96.8073Z" fill="#191919"/>
<path d="M75.2248 109.416C81.8735 110.314 87.0809 109.551 94.3788 109.324C99.7925 109.121 99.5475 109.437 106.558 108.937C106.64 108.933 106.717 108.898 106.773 108.839C106.83 108.78 106.861 108.701 106.86 108.62C106.86 108.58 106.851 108.541 106.836 108.504C106.82 108.468 106.797 108.435 106.768 108.407C106.739 108.38 106.705 108.358 106.668 108.344C106.63 108.33 106.591 108.324 106.551 108.325C105.329 108.279 104.115 108.194 102.893 108.141C94.5249 107.821 89.6202 108.452 82.88 108.643C81.3471 108.69 77.2378 108.765 75.29 108.682C75.195 108.678 75.1023 108.711 75.031 108.774C74.9598 108.837 74.9155 108.925 74.9076 109.019C74.8996 109.114 74.9285 109.208 74.9882 109.282C75.0479 109.356 75.1338 109.404 75.2281 109.416H75.2248Z" fill="#191919"/>
<path d="M95.3002 30.723C76.0001 29.8501 62.4429 30.841 44.0611 30.6405C39.6749 30.5691 35.2882 30.7509 30.923 31.185C28.6864 31.4176 26.4003 31.878 25.162 33.7367C24.4726 34.8372 24.0539 36.0855 23.9402 37.3791C23.663 39.7171 25.2074 57.6964 24.1794 71.2726C24.1714 71.3685 24.2015 71.4637 24.2633 71.5376C24.3251 71.6114 24.4135 71.6579 24.5094 71.6669C24.6064 71.6757 24.7029 71.646 24.7782 71.5843C24.8535 71.5226 24.9016 71.4337 24.912 71.3369C25.176 68.7134 25.3509 66.0709 25.4565 63.4243C25.9361 64.7001 26.8846 65.7446 28.1083 66.3447C29.3319 66.9448 30.7385 67.0552 32.0408 66.6534C34.1926 65.8491 35.9735 64.2817 37.0445 62.2495C37.9074 65.7385 42.4721 67.405 45.8588 65.8317C46.481 65.5467 47.0411 65.1419 47.5068 64.6403C47.9725 64.1388 48.3348 63.5504 48.573 62.9087C48.6089 62.838 48.6152 62.756 48.5906 62.6807C48.566 62.6053 48.5125 62.5428 48.4418 62.5069C48.3712 62.4711 48.2891 62.4647 48.2138 62.4893C48.1384 62.5139 48.0759 62.5674 48.0401 62.6381C47.3777 63.5851 46.4578 64.3223 45.3893 64.7625C44.3818 65.1889 43.2751 65.3253 42.1942 65.1562C41.1133 64.9871 40.1011 64.5192 39.2719 63.8055C38.4179 63.0353 37.8533 61.9959 37.6723 60.8602C37.7045 60.7889 37.7078 60.7079 37.6816 60.6342C37.6554 60.5605 37.6017 60.4998 37.5317 60.4648C37.4618 60.4298 37.381 60.4233 37.3063 60.4465C37.2316 60.4698 37.1688 60.5211 37.1311 60.5896C36.5583 61.4327 35.9168 62.2268 35.213 62.964C34.2692 64.0953 33.0545 64.9694 31.682 65.505C29.5807 66.1856 27.7987 65.175 26.6008 63.2849C26.218 62.6777 25.8682 62.0293 25.5283 61.4105C25.6784 55.6636 25.5283 50.768 25.4458 45.837C25.4169 44.5376 25.2371 43.032 25.124 41.4967C25.2065 41.5033 38.1656 41.6146 54.5526 40.5685C54.5927 40.568 54.6323 40.5597 54.6691 40.5439C54.706 40.5281 54.7394 40.5052 54.7674 40.4765C54.7954 40.4478 54.8174 40.4139 54.8323 40.3767C54.8472 40.3394 54.8546 40.2997 54.8541 40.2596C54.8537 40.2195 54.8453 40.1799 54.8295 40.143C54.8137 40.1062 54.7908 40.0728 54.7621 40.0448C54.7334 40.0168 54.6995 39.9947 54.6623 39.9798C54.6251 39.965 54.5853 39.9575 54.5452 39.958C52.7987 39.9176 25.3278 40.7063 25.0737 40.7137C24.9607 38.6042 25.0011 36.1523 26.1652 34.4C27.1453 32.901 29.2829 32.566 31.0442 32.3738C35.3665 31.9539 39.7091 31.7784 44.0512 31.8483C58.1447 31.9753 89.1919 31.1602 95.2837 31.3219C95.3239 31.3238 95.364 31.3177 95.4018 31.3039C95.4395 31.2901 95.4742 31.2689 95.5037 31.2415C95.5332 31.2142 95.5569 31.1812 95.5735 31.1446C95.5902 31.108 95.5993 31.0684 95.6005 31.0282C95.5994 30.9484 95.5676 30.8721 95.5117 30.8153C95.4557 30.7584 95.3799 30.7253 95.3002 30.723Z" fill="#191919"/>
<path d="M78.667 59.0105C78.6006 58.9663 78.5195 58.9502 78.4413 58.9657C78.3631 58.9811 78.2942 59.0269 78.2496 59.093C77.3797 60.045 76.3983 60.8887 75.3266 61.6059C74.3233 62.283 73.1743 62.7137 71.9731 62.8629C70.7719 63.0122 69.5524 62.8757 68.4139 62.4647C67.2424 61.9777 66.1762 61.2686 65.274 60.3767C65.2186 60.3237 65.1587 60.2757 65.0949 60.2331C64.812 60.0681 64.1635 60.6374 64.0505 60.7586C63.869 60.9558 63.7073 61.1579 63.5324 61.3469C62.9359 61.9928 62.6612 62.162 62.5581 62.2824C62.4756 62.3418 61.8345 62.9639 62.0169 63.2724C62.1868 63.5983 62.7792 63.3962 63.1232 63.2642C63.9065 62.7668 64.565 62.0962 65.0479 61.304C67.6161 64.6543 72.402 64.9604 75.961 62.5885C77.1699 61.8172 78.1371 60.721 78.752 59.4254C78.7737 59.3926 78.7887 59.3558 78.7961 59.3172C78.8036 59.2786 78.8033 59.2389 78.7955 59.2004C78.7876 59.1618 78.7722 59.1252 78.7501 59.0926C78.7281 59.0601 78.6998 59.0321 78.667 59.0105Z" fill="#191919"/>
<path d="M88.4326 60.0645C88.4236 60.0259 88.407 59.9895 88.3839 59.9573C88.3607 59.9251 88.3314 59.8978 88.2977 59.8769C88.264 59.8561 88.2265 59.8421 88.1873 59.8358C88.1482 59.8294 88.1082 59.8309 88.0696 59.8401C87.7503 59.8525 86.8989 59.8244 86.6778 59.8244C84.5747 59.9331 82.5082 59.2427 80.8929 57.8915C80.6207 57.6902 80.1116 57.3313 79.7948 57.0557C79.7291 56.9847 79.6385 56.9419 79.5419 56.9362C79.4454 56.9305 79.3503 56.9624 79.2767 57.0252C79.2056 57.0893 79.1626 57.1788 79.1569 57.2743C79.1512 57.3698 79.1833 57.4638 79.2462 57.5359C79.5053 57.9696 79.814 58.3716 80.1661 58.7338C81.0443 59.5511 82.0887 60.1691 83.2278 60.5455C84.3669 60.922 85.5738 61.0481 86.7661 60.9151C87.2667 60.8139 87.7526 60.6501 88.2123 60.4275C88.2893 60.408 88.3555 60.359 88.3967 60.2911C88.438 60.2232 88.4508 60.1418 88.4326 60.0645Z" fill="#191919"/>
<path d="M117.158 51.7662C117.259 47.3665 118.502 36.5425 115.508 33.1525C113.901 31.481 111.757 30.4293 109.452 30.1825C106.158 29.6801 102.469 30.19 99.6156 30.3913C99.5674 30.3938 99.5201 30.4058 99.4765 30.4267C99.4328 30.4475 99.3938 30.4767 99.3614 30.5126C99.2961 30.5852 99.2623 30.6807 99.2675 30.7782C99.2726 30.8757 99.3163 30.9671 99.3888 31.0324C99.4614 31.0977 99.5569 31.1315 99.6544 31.1263C104.599 30.9349 111.35 30.1363 114.641 33.9181C115.446 34.8372 115.857 36.4756 116.079 38.3913C111.902 38.1694 106.433 38.3261 101.192 38.4457C101.144 38.4442 101.096 38.4522 101.051 38.4693C101.006 38.4863 100.964 38.5121 100.929 38.5451C100.894 38.5781 100.866 38.6177 100.846 38.6617C100.826 38.7057 100.815 38.7531 100.814 38.8013C100.812 38.8495 100.82 38.8976 100.837 38.9427C100.854 38.9878 100.88 39.0291 100.913 39.0643C100.946 39.0995 100.986 39.1278 101.03 39.1476C101.073 39.1675 101.121 39.1785 101.169 39.18C104.515 39.6304 113.194 39.5562 116.176 39.3854C116.537 43.7818 116.015 49.1897 115.948 51.7423C115.898 53.8873 115.877 56.0323 115.886 58.1773C114.162 59.536 112.439 60.3091 110.33 59.8512C108.391 59.3118 106.636 58.2512 105.258 56.7847C105.233 56.4736 105.156 56.2113 104.972 56.1808C104.664 56.1313 104.2 57.3432 104.169 57.4257C103.923 58.1751 103.563 58.882 103.101 59.5212C102.322 60.3588 101.317 60.9535 100.208 61.2339C100.68 59.213 100.903 57.142 100.873 55.067C100.876 55.0191 100.869 54.9711 100.853 54.9258C100.837 54.8806 100.812 54.839 100.779 54.8036C100.747 54.7683 100.707 54.7397 100.664 54.7198C100.62 54.6998 100.573 54.6889 100.525 54.6875C100.477 54.6854 100.429 54.6928 100.384 54.7091C100.34 54.7255 100.298 54.7506 100.263 54.7829C100.228 54.8153 100.2 54.8543 100.179 54.8976C100.159 54.941 100.148 54.9879 100.146 55.0357C99.9867 56.4961 99.749 57.9468 99.4341 59.3818C98.2954 65.1006 95.7072 70.4312 91.9176 74.8629C90.2967 76.7423 88.4412 78.4059 86.3967 79.8129C86.3268 79.8524 86.2754 79.9179 86.2536 79.9952C86.2318 80.0725 86.2414 80.1552 86.2803 80.2254C86.3195 80.2956 86.3845 80.3477 86.4615 80.3708C86.5385 80.3939 86.6215 80.3861 86.6928 80.3491C89.0227 79.2051 91.0999 77.6062 92.802 75.6466C96.2529 71.7191 98.7289 67.033 100.029 61.969C102.165 62.261 104.383 60.8395 105.155 58.0494C106.438 59.5447 108.165 60.5913 110.085 61.0367C111.121 61.2895 112.205 61.261 113.227 60.9543C114.248 60.6475 115.169 60.0736 115.894 59.2918C115.961 70.0036 116.852 88.9283 116.492 99.5279C116.489 99.6083 116.518 99.6865 116.572 99.7458C116.627 99.805 116.702 99.8405 116.782 99.8445C116.863 99.8485 116.941 99.8207 117.001 99.7672C117.061 99.7137 117.098 99.6387 117.103 99.5584C118.406 82.5049 116.741 68.8783 117.158 51.7662Z" fill="#191919"/>
</svg>
