<svg width="165" height="165" viewBox="0 0 165 165" fill="none" xmlns="http://www.w3.org/2000/svg">
<path d="M142.074 134.695C142.366 131.863 130.854 128.612 114.633 126.28C97.6677 126.454 53.8627 126.276 51.2928 126.543C49.6205 126.747 47.9272 126.7 46.2686 126.405C45.1068 126.168 44.0301 125.624 43.1509 124.828C39.7841 125.305 36.6012 125.901 33.6683 126.61C33.0545 126.759 19.4156 130.142 19.6475 133.081C19.8793 136.021 34.0916 136.373 34.2079 139.014C34.3242 141.655 19.8141 142.604 19.6475 145.481C19.4173 149.454 46.4913 156.459 76.2664 155.725C94.4032 155.279 112.424 151.989 112.401 149.254C112.378 146.519 96.1489 148.292 96.1398 145.829C96.1217 141.795 141.496 140.308 142.074 134.695Z" fill="#64876F"/>
<path d="M93.9034 19.5588C93.9039 19.5002 93.8928 19.4421 93.8707 19.3879C93.8485 19.3336 93.8158 19.2843 93.7744 19.2428C93.733 19.2014 93.6838 19.1686 93.6296 19.1463C93.5754 19.1241 93.5173 19.1129 93.4587 19.1133C92.0504 19.129 90.643 19.1504 89.2355 19.1446C89.1647 19.1446 89.0955 19.1658 89.0369 19.2057C88.9784 19.2455 88.9332 19.3021 88.9072 19.368C88.8813 19.4339 88.8759 19.5061 88.8916 19.5752C88.9074 19.6442 88.9435 19.707 88.9955 19.7551C89.1555 25.5714 89.5342 31.3802 89.6555 37.1965C89.6565 37.3143 89.7038 37.427 89.7871 37.5103C89.8705 37.5936 89.9831 37.6409 90.101 37.642C91.3079 37.642 93.2219 38.2401 93.7442 36.8673C94.0445 36.0794 93.7631 34.5911 93.7442 33.7488C93.6361 28.7097 93.8225 25.5615 93.9034 19.5588ZM92.8573 34.3263C92.8573 34.6695 93.1048 36.2238 92.8928 36.4779C92.2877 36.773 91.6081 36.88 90.9416 36.7848C90.134 36.166 90.6265 36.185 89.5474 19.9086C90.7115 19.8306 91.8796 19.8306 93.0437 19.9086C92.9084 25.4237 92.8218 29.5264 92.8573 34.3238V34.3263Z" fill="#191919"/>
<path d="M93.9034 43.0549C93.9041 42.9963 93.893 42.9381 93.8709 42.8838C93.8488 42.8295 93.8161 42.7802 93.7747 42.7387C93.7333 42.6972 93.684 42.6644 93.6297 42.6422C93.5755 42.62 93.5173 42.6088 93.4587 42.6094C92.0504 42.6251 90.643 42.6457 89.2355 42.6399C89.1647 42.6398 89.0955 42.6611 89.0369 42.7009C88.9784 42.7408 88.9332 42.7974 88.9072 42.8633C88.8813 42.9292 88.8759 43.0014 88.8916 43.0705C88.9074 43.1395 88.9435 43.2022 88.9955 43.2504C89.1555 49.0675 89.5342 54.8755 89.6555 60.6926C89.6565 60.8104 89.7038 60.9231 89.7871 61.0064C89.8705 61.0897 89.9831 61.137 90.101 61.1381C91.3079 61.1381 93.2219 61.7354 93.7442 60.3626C94.0445 59.5747 93.7631 58.0864 93.7442 57.2449C93.6361 52.2083 93.8225 49.0576 93.9034 43.0549ZM92.8573 57.8224C92.8573 58.1648 93.1048 59.7199 92.8928 59.9732C92.2878 60.2686 91.6082 60.3757 90.9416 60.2809C90.134 59.6613 90.6265 59.6811 89.5474 43.4047C90.7115 43.3263 91.8796 43.3263 93.0437 43.4047C92.9084 48.9231 92.8218 53.0217 92.8573 57.8199V57.8224Z" fill="#191919"/>
<path d="M93.9038 73.3811C93.9043 73.3225 93.8932 73.2644 93.8711 73.2101C93.8489 73.1559 93.8162 73.1066 93.7748 73.0651C93.7334 73.0236 93.6842 72.9908 93.63 72.9686C93.5758 72.9463 93.5177 72.9351 93.4591 72.9356C92.0508 72.9512 90.6442 72.9719 89.2368 72.9669C89.1658 72.9664 89.0964 72.9874 89.0377 73.027C88.9789 73.0667 88.9335 73.1232 88.9074 73.1892C88.8813 73.2552 88.8758 73.3275 88.8916 73.3966C88.9074 73.4657 88.9438 73.5285 88.9959 73.5766C89.1559 79.3937 89.5346 85.2025 89.6559 91.0187C89.6569 91.1366 89.7042 91.2492 89.7875 91.3326C89.8709 91.4159 89.9835 91.4632 90.1014 91.4642C91.3083 91.4642 93.2223 92.0624 93.7446 90.6896C94.0449 89.9017 93.7635 88.4126 93.7446 87.5711C93.6365 82.5344 93.8229 79.3838 93.9038 73.3811ZM92.8577 88.1486C92.8577 88.4918 93.1052 90.0502 92.8932 90.2993C92.2882 90.5947 91.6086 90.7019 90.942 90.6071C90.1344 89.9883 90.6269 90.0073 89.5478 73.7309C90.7119 73.6529 91.88 73.6529 93.0441 73.7309C92.9088 79.246 92.8222 83.3479 92.8577 88.1461V88.1486Z" fill="#191919"/>
<path d="M93.9034 99.299C93.9039 99.2404 93.8928 99.1823 93.8707 99.1281C93.8485 99.0738 93.8158 99.0246 93.7744 98.9831C93.733 98.9416 93.6838 98.9088 93.6296 98.8866C93.5754 98.8643 93.5173 98.8531 93.4587 98.8535C92.0504 98.8692 90.643 98.8907 89.2355 98.8849C89.1647 98.8848 89.0955 98.9061 89.0369 98.9459C88.9784 98.9857 88.9332 99.0423 88.9072 99.1082C88.8813 99.1742 88.8759 99.2464 88.8916 99.3154C88.9074 99.3845 88.9435 99.4472 88.9955 99.4954C89.1555 105.312 89.5342 111.12 89.6555 116.938C89.6565 117.055 89.7039 117.168 89.7872 117.251C89.8705 117.334 89.9832 117.381 90.101 117.382C91.3079 117.382 93.2219 117.98 93.7442 116.608C94.0445 115.82 93.7631 114.331 93.7442 113.49C93.6361 108.453 93.8225 105.303 93.9034 99.299ZM92.8573 114.067C92.8573 114.41 93.1048 115.969 92.8928 116.218C92.2879 116.514 91.6081 116.621 90.9416 116.525C90.134 115.906 90.6265 115.926 89.5474 99.6488C90.7116 99.5713 91.8796 99.5713 93.0437 99.6488C92.9084 105.164 92.8218 109.267 92.8573 114.064V114.067Z" fill="#191919"/>
<path d="M117.131 39.2182C117.327 42.9753 114.253 44.6335 110.294 44.0156C107.599 43.5948 106.155 42.3936 106.21 40.0556C106.156 38.6739 106.434 37.2994 107.02 36.0469C107.429 36.3247 107.866 36.5576 108.325 36.7416C109.564 37.233 110.908 37.3994 112.229 37.2248C113.551 37.0502 114.806 36.5405 115.875 35.7441C116.621 36.7561 117.057 37.963 117.131 39.2182Z" fill="#64876F"/>
<path d="M115.798 31.8966C114.777 31.2427 113.616 30.841 112.409 30.7248C111.203 30.6086 109.986 30.7812 108.859 31.2284C108.179 31.5164 107.531 31.876 106.926 32.3009C105.474 30.6509 105.327 28.6544 105.995 26.5506C106.636 24.5302 108.948 23.4635 110.97 23.2952C114.978 22.9602 117.066 27.9977 116.074 31.263C116.01 31.4853 115.917 31.6982 115.798 31.8966Z" fill="#191919"/>
<path d="M115.932 33.812C115.899 33.7714 115.863 33.7328 115.825 33.6965C114.119 32.0779 111.886 32.0531 109.59 32.69C109.091 32.7903 108.607 32.9501 108.146 33.1661C108.026 33.223 106.811 34.0554 106.895 34.128C109.221 36.1501 113.456 36.457 115.932 33.812Z" fill="#191919"/>
<path d="M123.56 138.717C122.605 138.651 121.647 138.792 120.751 139.131C119.856 139.469 119.044 139.996 118.37 140.676C119.453 136.146 121.711 126.722 121.742 126.517C126.824 125.555 126.385 120.763 126.383 116.518C126.383 109.414 126.364 102.305 126.21 95.2057C126.101 90.1996 126.413 85.0639 125.875 80.062C125.818 79.5232 124.978 79.5191 125.029 80.062C125.373 83.692 125.364 108.9 125.367 110.447C125.377 114.224 126.018 118.674 125.207 122.415C124.465 125.826 120.257 125.639 117.564 125.742C115.579 125.818 50.9423 125.893 50.1354 125.885C48.4252 125.867 46.5459 126.003 44.9379 125.307C40.6166 123.43 42.1808 117.641 42.2072 111.848C42.2377 105.108 42.0339 98.3514 42.2072 91.6169C45.3275 90.8364 48.3456 89.6928 51.1997 88.2097C53.3694 87.0703 56.1827 83.9848 53.0081 82.1212C52.9036 82.0632 52.7804 82.0488 52.6653 82.0813C52.5503 82.1137 52.4527 82.1904 52.3939 82.2944C52.3351 82.3985 52.3199 82.5216 52.3515 82.6369C52.3831 82.7522 52.459 82.8503 52.5626 82.9099C55.6596 84.9938 50.3953 87.3781 49.4449 87.8087C46.3294 89.0539 43.112 90.0271 39.8287 90.7177C35.0668 91.9048 30.0838 92.8115 25.2015 91.8892C21.3469 91.1559 17.7217 89.5176 14.6243 87.1091C11.5269 84.7006 9.04589 81.5908 7.38559 78.0358C2.99329 68.6398 6.46076 60.8716 14.7792 55.1684C22.5681 49.829 31.9516 47.4274 41.2617 47.227C41.3799 47.227 41.4932 47.18 41.5768 47.0965C41.6603 47.0129 41.7072 46.8996 41.7072 46.7815C41.7072 46.6633 41.6603 46.55 41.5768 46.4664C41.4932 46.3829 41.3799 46.336 41.2617 46.336C32.2169 46.2359 23.3262 48.6807 15.6042 53.3914C9.53636 57.1393 3.93131 63.1008 4.13014 70.6553C4.31906 77.8567 8.77983 84.6052 14.4583 88.7608C21.2332 93.7182 29.2258 94.4854 37.2811 92.814C38.6754 92.5244 40.096 92.1994 41.5167 91.8298C40.9144 99.8875 41.4878 109.402 41.0753 118.56C40.9268 121.874 41.628 124.675 44.1624 126.132C45.3804 131.706 46.909 137.207 48.7412 142.611C43.1139 140.858 38.0929 144.471 40.2024 146.664C40.5315 146.927 40.9101 147.121 41.3158 147.235C41.7215 147.348 42.1459 147.378 42.5636 147.324C44.1618 147.369 45.7611 147.296 47.3486 147.106C49.1025 146.875 50.769 143.716 50.7781 143.369C50.9217 137.998 51.0702 132.627 51.2236 127.255C53.4511 127.197 55.771 126.983 57.8112 126.97C63.432 126.934 113.994 126.792 114.736 126.792C115.32 132.115 115.84 137.45 116.121 142.797C116.121 142.988 116.526 145.211 122.33 144.966C124.352 144.883 128.661 145.656 128.69 142.462C128.709 140.275 125.366 138.858 123.56 138.717Z" fill="#191919"/>
<path d="M47.9618 83.3401C49.8593 82.9556 52.0595 82.4136 53.0083 80.5293C53.627 79.3001 53.5742 77.2293 52.0059 76.7698C51.6413 76.6625 51.223 77.1212 51.4763 77.4562C52.2188 78.4462 52.6032 79.5764 51.7881 80.6894C50.8748 81.9368 49.1522 82.2437 47.739 82.5332C47.2094 82.6421 47.4371 83.4465 47.9618 83.3401Z" fill="#191919"/>
<path d="M46.2397 78.993C49.7715 79.5417 52.6747 76.504 52.1145 74.7534C51.6847 73.4061 49.812 73.5332 50.0883 74.4333C50.1191 74.534 50.1807 74.6225 50.2645 74.6863C50.3483 74.7501 50.45 74.786 50.5553 74.7888C51.0676 75.2343 51.1526 75.6798 50.8135 76.08C50.2817 76.7544 49.6027 77.2983 48.8284 77.6701C48.0541 78.0419 47.205 78.2317 46.3461 78.225C45.9229 78.2324 45.7934 78.9237 46.2397 78.993Z" fill="#191919"/>
<path d="M45.4618 75.735C48.2024 75.735 52.3819 73.1726 51.0116 71.054C50.924 70.9179 50.8081 70.8023 50.6718 70.7152C50.5354 70.628 50.3819 70.5713 50.2217 70.5489C50.0614 70.5265 49.8983 70.539 49.7433 70.5854C49.5883 70.6318 49.4451 70.7112 49.3236 70.818C49.2559 70.8798 49.2088 70.961 49.1889 71.0506C49.1689 71.1401 49.177 71.2336 49.2121 71.3183C49.2472 71.403 49.3075 71.4749 49.3849 71.5242C49.4622 71.5734 49.5529 71.5976 49.6445 71.5935C50.7047 71.4681 49.3104 72.9077 49.0967 73.1206C48.0305 74.0464 46.7378 74.6727 45.3504 74.9356C45.2615 74.9677 45.1863 75.0295 45.1374 75.1105C45.0886 75.1915 45.069 75.2868 45.0821 75.3804C45.0951 75.4741 45.14 75.5605 45.2091 75.625C45.2782 75.6896 45.3674 75.7284 45.4618 75.735Z" fill="#191919"/>
<path d="M41.9979 63.7026C43.8781 65.7602 44.2411 68.8853 44.5232 71.5195C44.5802 72.0491 45.4126 72.0632 45.3606 71.5195C45.0372 68.1048 44.6767 64.2083 41.6729 61.9924C40.5913 61.1946 39.1203 60.434 38.5238 62.0237C37.9274 63.6135 38.6063 66.7625 38.6311 68.4282C38.6616 70.3884 39.0716 71.866 37.5041 73.1629C36.1445 74.3954 34.4632 75.217 32.6553 75.5324C30.8475 75.8478 28.9873 75.6441 27.2906 74.9449C27.3263 74.8587 27.3341 74.7635 27.3129 74.6726C26.4879 71.1326 28.8466 68.2682 32.0831 67.1371C32.7505 66.9036 32.4353 65.8311 31.7935 66.0902C28.2031 67.5397 25.5581 70.5221 26.2973 74.5052C25.9104 74.3138 25.5185 74.1083 25.1308 73.8724C24.984 73.8046 24.8173 73.7939 24.663 73.8423C24.5088 73.8907 24.3781 73.9948 24.2963 74.1343C24.2146 74.2738 24.1877 74.4387 24.2209 74.5969C24.254 74.7551 24.3449 74.8953 24.4757 74.9903C29.4018 77.9957 34.4797 77.5643 38.7746 73.7156C40.9312 71.7827 39.6772 68.1403 39.6343 65.4714C39.6269 64.9682 39.287 62.7134 39.5452 62.5229C40.371 61.9107 41.5219 63.1812 41.9979 63.7026Z" fill="#191919"/>
<path d="M157.197 14.8552C156.756 14.2414 155.785 14.7884 156.181 15.4517C159.574 21.1442 159.893 27.5289 159.415 34.0076C157.658 57.7808 142.431 72.7644 125.453 73.7322C124.763 73.7718 124.758 74.8459 125.453 74.8104C142.974 73.912 158.657 58.6404 160.617 34.4523C161.147 27.9067 161.166 20.3769 157.197 14.8552Z" fill="#191919"/>
<path d="M154.029 28.8817C153.989 29.4964 154.925 29.6003 155.089 29.0236C156.367 24.5455 154.996 19.6038 152.653 15.7246C152.602 15.651 152.525 15.5994 152.438 15.5798C152.351 15.5603 152.259 15.5745 152.182 15.6194C152.104 15.6643 152.046 15.7367 152.02 15.8223C151.993 15.9078 152 16.0002 152.039 16.081C154.122 20.2951 154.33 24.3112 154.029 28.8817Z" fill="#191919"/>
<path d="M148.618 29.1086C148.675 29.6251 149.503 29.847 149.608 29.2423C150.154 25.1106 149.508 20.9088 147.746 17.1321C147.562 16.7493 147.031 17.0339 147.1 17.4035C147.461 19.3514 147.991 21.2381 148.255 23.1934C148.519 25.1486 148.403 27.1493 148.618 29.1086Z" fill="#191919"/>
<path d="M134.903 28.1556C135.08 27.5195 135.394 26.93 135.824 26.429C136.254 25.9279 136.789 25.5276 137.39 25.2564C137.992 24.9852 138.647 24.8497 139.307 24.8596C139.967 24.8694 140.617 25.0244 141.21 25.3135C142.572 25.989 143.731 27.0118 144.572 28.2787C145.412 29.5456 145.903 31.0116 145.995 32.5289C146.021 32.6233 146.077 32.7065 146.155 32.7658C146.232 32.8252 146.327 32.8573 146.425 32.8573C146.523 32.8573 146.618 32.8252 146.695 32.7658C146.773 32.7065 146.829 32.6233 146.855 32.5289C146.81 28.8098 144.418 24.7739 140.642 23.8037C137.777 23.0662 134.231 24.7393 133.8 27.8528C133.7 28.5607 134.693 28.8899 134.903 28.1556Z" fill="#191919"/>
<path d="M138.23 35.3432C137.954 35.5012 137.643 35.5879 137.325 35.5957C137.007 35.6035 136.692 35.532 136.409 35.3878C135.831 35.0998 135.698 34.5017 135.171 34.194C135.112 34.1586 135.045 34.1374 134.977 34.1321C134.908 34.1268 134.839 34.1375 134.775 34.1634C134.711 34.1893 134.654 34.2297 134.608 34.2814C134.562 34.3331 134.529 34.3946 134.511 34.4613C133.986 35.8027 136.913 37.7671 139.031 36.2383C140.969 34.8416 140.528 31.9483 138.684 30.7108C138.279 30.4386 137.792 31.0722 138.159 31.3923C139.287 32.3724 139.724 34.4704 138.23 35.3432Z" fill="#191919"/>
<path d="M127.066 56.8163C135.529 57.0638 142.148 50.2641 142.589 42.024C142.587 41.9195 142.562 41.8167 142.515 41.7234C142.468 41.6301 142.4 41.5488 142.317 41.4857C142.233 41.4226 142.137 41.3793 142.034 41.3593C141.932 41.3392 141.826 41.3428 141.725 41.3698C136.91 43.2937 131.873 40.5044 131.32 35.2541C131.242 34.5058 130.06 34.4967 130.135 35.2541C130.222 36.5394 130.594 37.7893 131.225 38.9123C131.856 40.0354 132.73 41.0032 133.783 41.7451C134.836 42.4871 136.042 42.9843 137.312 43.2006C138.582 43.4168 139.884 43.3466 141.124 42.995C140.233 50.2732 134.404 55.3222 127.066 55.4979C126.889 55.4959 126.719 55.5643 126.592 55.6881C126.465 55.8118 126.393 55.9808 126.391 56.1579C126.39 56.2461 126.407 56.3336 126.441 56.415C126.474 56.4965 126.524 56.5702 126.588 56.6318C126.651 56.6933 126.726 56.7414 126.808 56.7731C126.89 56.8048 126.978 56.8195 127.066 56.8163Z" fill="#191919"/>
<path d="M106.008 114.055C106.095 115.141 107.761 115.168 107.728 114.055C107.549 107.979 107.81 101.583 106.837 95.5791C106.734 94.9513 105.869 95.1782 105.812 95.7177C105.201 101.507 105.812 107.583 105.999 113.409C105.988 113.624 105.991 113.84 106.008 114.055Z" fill="#191919"/>
<path d="M115.607 115.881C116.432 113.761 115.835 110.536 115.812 108.309C115.769 104.102 115.647 99.8943 115.242 95.7091C115.164 94.894 113.903 94.8626 113.946 95.7091C114.156 99.9009 114.097 104.113 114.102 108.309C114.102 110.378 113.277 116.919 115.16 116.327C115.265 116.295 115.361 116.237 115.439 116.159C115.517 116.082 115.574 115.986 115.607 115.881Z" fill="#191919"/>
<path d="M115.173 70.8241C115.111 70.3514 114.316 70.1113 114.237 70.6946C113.882 74.0778 113.733 77.4795 113.792 80.8808C113.792 81.2108 113.717 89.7413 113.751 90.0738C113.968 92.1413 115.279 91.9664 115.462 90.2966C115.5 89.595 115.5 88.8919 115.462 88.1903C115.466 77.8704 115.673 74.6529 115.173 70.8241Z" fill="#191919"/>
<path d="M43.3249 58.5051C43.3337 58.5691 43.3654 58.6277 43.414 58.6702C43.4627 58.7127 43.5252 58.7361 43.5898 58.7361C43.6544 58.7361 43.7168 58.7127 43.7655 58.6702C43.8142 58.6277 43.8458 58.5691 43.8546 58.5051C43.7597 50.9241 43.108 20.673 43.0931 19.6129C43.0651 17.5991 43.1418 15.6917 44.3719 14.0029C47.9359 9.11562 56.5662 10.4298 65.0868 10.4554C91.764 10.5379 92.1319 10.7656 99.6988 10.5239C108.584 10.2409 105.964 10.2706 117.969 10.2706C120.669 10.2706 123.673 10.0842 124.569 13.2629C126.031 18.4678 125.603 43.6683 125.714 50.788C125.717 50.8494 125.744 50.907 125.789 50.9492C125.833 50.9913 125.893 51.0148 125.954 51.0148C126.016 51.0148 126.075 50.9913 126.119 50.9492C126.164 50.907 126.191 50.8494 126.195 50.788C126.112 37.4181 126.921 25.1866 125.549 14.6085C125.159 11.6063 124.707 10.0215 121.402 9.59742C115.888 8.89039 110.053 9.35652 104.477 9.52234C88.3444 10.0008 72.1768 9.49512 56.0357 9.46872C52.3785 9.46212 48.4144 9.46872 45.3454 11.749C42.7054 13.7125 42.1625 16.3096 42.2277 19.4496C42.292 22.6877 42.9644 48.7371 43.3249 58.5051Z" fill="#191919"/>
<path d="M60.7522 117.191C64.7337 117.12 68.7217 117.005 72.6974 116.767C75.1188 116.623 75.7582 114.946 75.7177 112.884C75.6625 110.075 75.4265 98.3162 75.4059 95.2455C75.3935 93.4305 75.7804 91.335 73.5975 90.7295C71.7825 90.2254 69.2638 90.7336 67.4017 90.8276C65.0769 90.9442 62.7504 91.0927 60.4222 91.2731C57.59 91.4909 56.3674 91.9331 56.5299 94.9295C56.8772 101.33 56.836 107.748 56.8285 114.158C56.8252 116.852 58.2401 117.233 60.7522 117.191ZM63.0103 101.53C63.0824 101.528 63.153 101.508 63.2168 101.475C63.2806 101.441 63.3359 101.393 63.3787 101.335C63.4215 101.277 63.4507 101.21 63.464 101.139C63.4773 101.068 63.4745 100.995 63.4558 100.925C62.738 98.1594 68.5864 98.0076 68.5864 101.018C68.5945 101.158 68.6542 101.289 68.7539 101.387C68.8536 101.485 68.9863 101.543 69.126 101.549C70.7586 101.62 72.3938 101.605 74.0248 101.504C74.0452 102.87 74.0705 104.237 74.1007 105.606C72.3196 105.632 70.5021 105.584 68.7069 105.713C68.5756 105.713 68.4497 105.765 68.3569 105.858C68.264 105.951 68.2119 106.077 68.2119 106.208C68.2119 109.286 63.8823 109.103 63.3444 106.333C63.3158 106.227 63.2531 106.134 63.1661 106.068C63.0791 106.002 62.9727 105.967 62.8634 105.967C61.2646 106.132 59.6616 106.132 58.0619 106.215C58.0619 105.043 58.0619 102.059 58.0396 101.738C59.6789 101.709 61.3446 101.599 63.0103 101.53ZM58.0825 114.826C57.7435 114.075 58.0825 112.483 58.0825 111.65C58.0825 110.114 58.0603 108.581 58.0512 107.045C59.5741 107.081 61.8561 106.828 62.4163 107.472C62.0772 110.251 62.4385 113.16 62.4163 115.935C60.9082 116.059 58.7038 116.21 58.0825 114.826ZM63.5275 115.908C63.3493 113.48 63.4747 110.987 63.2693 108.554C63.6379 108.896 64.0737 109.157 64.5489 109.321C65.0241 109.485 65.5282 109.548 66.029 109.506C66.5299 109.464 67.0165 109.318 67.4578 109.078C67.8992 108.837 68.2855 108.507 68.5922 108.109C68.5163 110.603 68.763 113.12 68.7572 115.605C68.7572 115.697 68.7802 115.787 68.824 115.868C67.0591 115.868 65.2936 115.881 63.5275 115.908ZM72.5827 115.908C71.6563 115.877 70.7298 115.889 69.8033 115.885C69.8493 115.803 69.8694 115.708 69.8611 115.614C69.6243 112.726 69.7678 109.77 69.3314 106.906C70.309 106.376 72.8731 106.568 74.1164 106.568L74.1436 108.015C74.17 109.535 75.2912 115.995 72.5819 115.904L72.5827 115.908ZM72.7791 92.1097C74.7319 92.9578 73.9861 97.7312 73.9861 100.457C72.5445 100.694 71.0733 100.687 69.6342 100.435C69.3982 97.6867 69.4915 94.9427 69.3405 92.1947C70.3858 92.1905 72.0019 91.769 72.7783 92.1056L72.7791 92.1097ZM68.6186 92.2301C68.4042 94.3103 68.3372 96.4031 68.4181 98.4927C67.0981 97.2593 64.3847 97.6034 63.1093 98.9778C63.082 96.7344 62.9078 94.4953 62.5879 92.2747C65.2963 92.2351 63.2701 92.4133 68.6178 92.226L68.6186 92.2301ZM59.8893 92.6129C60.516 92.4198 61.1666 92.3148 61.8223 92.3011C61.7677 95.089 61.9163 97.8772 62.2669 100.643C60.8463 100.755 59.4298 100.866 58.0141 100.996C58.0141 99.967 57.9769 98.9423 57.9382 97.9177C57.8507 95.6423 56.9655 93.5419 59.8885 92.6088L59.8893 92.6129Z" fill="#191919"/>
</svg>
